{
.formatVersion = 3;
axes = (
{
name = Weight;
tag = wght;
}
);
familyName = "Noto Sans Ol Chiki";
customParameters = (
{
name = glyphOrder;
value = (
space,
uni00A0,
CR,
.notdef,
uni20B9,
NULL,
uni1C50,
uni1C51,
uni1C52,
uni1C53,
uni1C54,
uni1C55,
uni1C56,
uni1C57,
uni1C58,
uni1C59,
uni1C5A,
uni1C5B,
uni1C5C,
uni1C5D,
uni1C5E,
uni1C5F,
uni1C60,
uni1C61,
uni1C62,
uni1C63,
uni1C64,
uni1C65,
uni1C66,
uni1C67,
uni1C68,
uni1C69,
uni1C6A,
uni1C6B,
uni1C6C,
uni1C6D,
uni1C6E,
uni1C6F,
uni1C70,
uni1C71,
uni1C72,
uni1C73,
uni1C74,
uni1C75,
uni1C76,
uni1C77,
uni1C78,
uni1C79,
uni1C7A,
uni1C7B,
uni1C7C,
uni1C7D,
uni1C7E,
uni1C7F,
newGlyph
);
},
{
name = trademark;
value = "Noto is a trademark of Google Inc.";
},
{
name = GSDimensionPlugin.Dimensions;
value = {
"9C387D97-1150-45A6-AF8D-2AAB62D95D5D" = {
HH = 126;
HV = 151;
OH = 126;
OV = 159;
};
UUID0 = {
HH = 79;
HV = 90;
OH = 75;
OV = 88;
};
};
},
{
name = "Has WWS Names";
value = 1;
},
{
name = codePageRanges;
value = (
1252
);
},
{
name = description;
value = "Designed by Monotype design team.";
},
{
name = unicodeRanges;
value = (
0,
1,
114
);
},
{
name = versionString;
value = "Version 2.002";
}
);
featurePrefixes = (
{
code = "#> languagesystem
languagesystem DFLT dflt;
languagesystem latn dflt;
languagesystem olck dflt;
#< languagesystem
";
tag = Languagesystems;
}
);
fontMaster = (
{
axesValues = (
151
);
customParameters = (
{
name = typoAscender;
value = 1069;
},
{
name = typoDescender;
value = -293;
},
{
name = typoLineGap;
value = 0;
},
{
name = winAscent;
value = 1069;
},
{
name = winDescent;
value = 293;
},
{
name = underlineThickness;
value = 50;
},
{
name = underlinePosition;
value = -100;
},
{
name = strikeoutPosition;
value = 300;
},
{
name = strikeoutSize;
value = 50;
},
{
name = subscriptXOffset;
value = 0;
},
{
name = subscriptXSize;
value = 650;
},
{
name = subscriptYOffset;
value = 75;
},
{
name = subscriptYSize;
value = 600;
},
{
name = superscriptXOffset;
value = 0;
},
{
name = superscriptXSize;

glyphs = (
{
glyphname = .notdef;
layers = (
{
layerId = "A2F8418F-339B-4F91-B830-CE586139F48E";
name = "#instance";
shapes = (
{
closed = 1;
nodes = (
(505,0,l),
(505,714,l),
(94,714,l),
(94,0,l)
);
},
{
closed = 1;
nodes = (
(145,663,l),
(454,663,l),
(454,51,l),
(145,51,l)
);
}
);
width = 600;
},
{
layerId = "B142495F-E341-49EC-94FB-15D38175E9C1";
shapes = (
{
closed = 1;
nodes = (
(505,0,l),
(505,714,l),
(94,714,l),
(94,0,l)
);
},
{
closed = 1;
nodes = (
(145,663,l),
(454,663,l),
(454,51,l),
(145,51,l)
);
}
);
width = 600;
},
{
layerId = "B4679C4A-7B1E-46C8-BD55-32AE88BDC1C0";
name = Semibold;
shapes = (
{
closed = 1;
nodes = (
(505,0,l),
(505,714,l),
(94,714,l),
(94,0,l)
);
},
{
closed = 1;
nodes = (
(145,663,l),
(454,663,l),
(454,51,l),
(145,51,l)
);
}
);
width = 600;
},
{
layerId = "F6727EBE-EF21-4659-9B68-88D73F70C0AC";
name = Medium;
shapes = (
{
closed = 1;
nodes = (
(505,0,l),
(505,714,l),
(94,714,l),
(94,0,l)
);
},
{
closed = 1;
nodes = (
(145,663,l),
(454,663,l),
(454,51,l),
(145,51,l)
);
}
);
width = 600;
},
{
layerId = "817F4B86-DD93-4C28-949A-BA0EB0B6E07F";
associatedMasterId = "DE23B2BA-64D1-45BF-8121-66FD42616F3E";
name = Layer3;
width = 600;
},
{
background = {
shapes = (
{
closed = 1;
nodes = (
(505,0,l),
(505,714,l),
(94,714,l),
(94,0,l)
);
},
{
closed = 1;
nodes = (
(145,663,l),
(454,663,l),
(454,51,l),
(145,51,l)
);
}
);
};
layerId = "DE23B2BA-64D1-45BF-8121-66FD42616F3E";
name = Regular;
shapes = (
{
closed = 1;
nodes = (
(505,0,l),
(505,714,l),
(94,714,l),
(94,0,l)
);
},
{
closed = 1;
nodes = (
(145,663,l),
(454,663,l),
(454,51,l),
(145,51,l)
);
}
);
width = 600;
}
);
},
{
glyphname = uni20B9;
layers = (
{
layerId = "A2F8418F-339B-4F91-B830-CE586139F48E";
name = "#instance";
shapes = (
{
closed = 1;
nodes = (
(489,726,l),
(77,726,l),
(77,642,l),
(142,642,ls),
(190,642,o),
(216,635,o),
(236,616,cs),
(259,596,o),
(272,561,o),
(272,507,cs),
(272,460,o),
(263,425,o),
(242,402,c),
(222,378,o),
(193,366,o),
(130,366,cs),
(87,366,l),
(77,282,l),
(283,-11,l),
(382,-11,l),
(153,317,l),
(145,279,l),
(292,293,o),
(351,373,o),
(351,509,cs),
(351,566,o),
(336,616,o),
(305,642,c),
(489,642,l)
);
},
{
closed = 1;
nodes = (
(77,466,l),
(489,466,l),
(489,551,l),
(77,551,l)
);
}
);
width = 551;
},
{
layerId = "B142495F-E341-49EC-94FB-15D38175E9C1";
shapes = (
{
closed = 1;
nodes = (
(535,728,l),
(61,728,l),
(61,586,l),
(120,586,ls),
(164,586,o),
(183,583,o),
(200,566,c),
(216,548,o),
(225,518,o),
(225,470,cs),
(225,429,o),
(220,397,o),
(206,376,c),
(188,354,o),
(169,345,o),
(107,345,cs),
(81,345,l),
(59,214,l),
(214,-15,l),
(385,-15,l),
(214,231,l),
(197,216,l),
(293,248,o),
(368,340,o),
(368,453,cs),
(368,506,o),
(351,562,o),
(327,586,c),
(535,587,l)
);
},
{
closed = 1;
nodes = (
(61,398,l),
(535,398,l),
(535,537,l),
(61,537,l)
);
}
);
width = 585;
},
{
layerId = "B4679C4A-7B1E-46C8-BD55-32AE88BDC1C0";
name = Semibold;
shapes = (
{
closed = 1;
nodes = (
(514,727,l),
(63,727,l),
(63,607,l),
(120,607,ls),
(171,607,o),
(194,602,o),
(212,583,c),
(231,565,o),
(243,533,o),
(243,483,cs),
(243,440,o),
(234,408,o),
(217,386,c),
(198,364,o),
(173,353,o),
(107,353,cs),
(81,353,l),
(63,239,l),
(241,-13,l),
(401,-13,l),
(192,269,l),
(196,245,l),
(309,270,o),
(373,352,o),
(373,472,cs),
(373,528,o),
(353,582,o),
(327,607,c),
(514,607,l)
);
},
{
closed = 1;
nodes = (
(63,425,l),
(514,425,l),
(514,545,l),
(63,545,l)
);
}
);
width = 570;
},
{
layerId = "F6727EBE-EF21-4659-9B68-88D73F70C0AC";
name = Medium;
shapes = (
{
closed = 1;
nodes = (
(498,726,l),
(68,726,l),
(68,631,l),
(135,631,ls),
(186,631,o),
(213,631,o),
(234,612,cs),
(258,592,o),
(272,562,o),
(272,507,cs),
(272,460,o),
(262,425,o),
(240,402,c),
(219,378,o),
(189,366,o),
(123,366,cs),
(78,366,l),
(68,282,l),
(283,-11,l),
(402,-11,l),
(163,317,l),
(148,266,l),
(302,280,o),
(360,373,o),
(360,509,cs),
(360,566,o),
(359,582,o),
(328,631,c),
(498,631,l)
);
},
{
closed = 1;
nodes = (
(68,451,l),
(498,451,l),
(498,551,l),
(68,551,l)
);
}
);
width = 551;
},
{
layerId = "449A2072-549A-40BB-BA23-60ECCA4EFBC0";
associatedMasterId = "DE23B2BA-64D1-45BF-8121-66FD42616F3E";
name = "SemiBold Condensed";
shapes = (
{
closed = 1;
nodes = (
(415,622,l),
(53,622,l),
(53,525,l),
(94,525,ls),
(133,525,o),
(149,518,o),
(162,506,cs),
(180,488,o),
(185,460,o),
(185,423,cs),
(185,382,o),
(182,351,o),
(166,332,cs),
(153,316,o),
(133,308,o),
(93,308,cs),
(72,308,l),
(52,223,l),
(180,0,l),
(331,0,l),
(178,239,l),
(172,221,l),
(246,239,o),
(306,280,o),
(306,399,cs),
(306,477,o),
(286,507,o),
(265,525,c),
(415,525,l)
);
},
{
closed = 1;
nodes = (
(53,369,l),
(416,369,l),
(416,466,l),
(53,466,l)
);
}
);
width = 460;
},
{
layerId = "042D80F7-0E9F-42FC-BDD9-183ADD532F01";
associatedMasterId = "DE23B2BA-64D1-45BF-8121-66FD42616F3E";
name = "Light Condensed";
shapes = (
{
closed = 1;
nodes = (
(367,622,l),
(53,622,l),
(53,596,l),
(84,596,ls),
(148,596,o),
(178,581,o),
(197,555,cs),
(214,532,o),
(220,501,o),
(220,463,cs),
(220,416,o),
(213,383,o),
(194,359,cs),
(174,335,o),
(146,323,o),
(86,323,cs),
(69,323,l),
(63,296,l),
(240,0,l),
(271,0,l),
(83,314,l),
(89,298,l),
(203,299,o),
(246,353,o),
(246,462,cs),
(246,539,o),
(217,580,o),
(181,596,c),
(367,596,l)
);
},
{
closed = 1;
nodes = (
(53,447,l),
(367,447,l),
(367,473,l),
(53,473,l)
);
}
);
width = 411;
},
{
layerId = "7EA7C165-394A-4F89-B97B-58FD4DC60A9A";
associatedMasterId = "DE23B2BA-64D1-45BF-8121-66FD42616F3E";
name = Condensed;
shapes = (
{
closed = 1;
nodes = (
(371,622,l),
(49,622,l),
(49,554,l),
(90,554,ls),
(132,554,o),
(152,545,o),
(167,529,cs),
(185,510,o),
(191,480,o),
(191,439,cs),
(191,396,o),
(186,365,o),
(170,345,cs),
(155,327,o),
(134,318,o),
(87,318,cs),
(63,318,l),
(50,255,l),
(195,0,l),
(288,0,l),
(123,279,l),
(125,252,l),
(218,267,o),
(266,320,o),
(266,438,cs),
(266,503,o),
(247,538,o),
(226,554,c),
(371,554,l)
);
},
{
closed = 1;
nodes = (
(49,406,l),
(371,406,l),
(371,474,l),
(49,474,l)
);
}
);
width = 411;
},
{
layerId = "985A7A4E-E8A5-4BB1-B003-BD221525F492";
associatedMasterId = "DE23B2BA-64D1-45BF-8121-66FD42616F3E";
name = "Bold Condensed";
shapes = (
{
closed = 1;
nodes = (
(444,622,l),
(56,622,l),
(56,507,l),
(98,507,ls),
(135,507,o),
(148,501,o),
(160,491,cs),
(178,475,o),
(182,447,o),
(182,413,cs),
(182,373,o),
(180,343,o),
(165,324,cs),
(153,309,o),
(133,302,o),
(98,302,cs),
(78,302,l),
(54,203,l),
(172,0,l),
(358,0,l),
(213,214,l),
(203,202,l),
(264,222,o),
(332,255,o),
(332,375,cs),
(332,460,o),
(312,487,o),
(290,507,c),
(444,507,l)
);
},
{
closed = 1;
nodes = (
(56,346,l),
(444,346,l),
(444,461,l),
(56,461,l)
);
}
);
width = 490;
},
{
background = {
shapes = (
{
closed = 1;
nodes = (
(489,726,l),
(77,726,l),
(77,642,l),
(142,642,ls),
(190,642,o),
(216,635,o),
(236,616,cs),
(259,596,o),
(272,561,o),
(272,507,cs),
(272,460,o),
(263,425,o),
(242,402,c),
(222,378,o),
(193,366,o),
(130,366,cs),
(87,366,l),
(77,282,l),
(283,-11,l),
(382,-11,l),
(153,317,l),
(145,279,l),
(292,293,o),
(351,373,o),
(351,509,cs),
(351,566,o),
(336,616,o),
(305,642,c),
(489,642,l)
);
},
{
closed = 1;
nodes = (
(77,466,l),
(489,466,l),
(489,551,l),
(77,551,l)
);
}
);
};
layerId = "DE23B2BA-64D1-45BF-8121-66FD42616F3E";
name = Regular;
shapes = (
{
closed = 1;
nodes = (
(489,726,l),
(77,726,l),
(77,642,l),
(142,642,ls),
(190,642,o),
(216,635,o),
(236,616,cs),
(259,596,o),
(272,561,o),
(272,507,cs),
(272,460,o),
(263,425,o),
(242,402,c),
(222,378,o),
(193,366,o),
(130,366,cs),
(87,366,l),
(77,282,l),
(283,-11,l),
(382,-11,l),
(153,317,l),
(145,279,l),
(292,293,o),
(351,373,o),
(351,509,cs),
(351,566,o),
(336,616,o),
(305,642,c),
(489,642,l)
);
},
{
closed = 1;
nodes = (
(77,466,l),
(489,466,l),
(489,551,l),
(77,551,l)
);
}
);
width = 551;
}
);
unicode = 8377;
},
{
color = 10;
glyphname = uni1C50;
layers = (
{
layerId = "A2F8418F-339B-4F91-B830-CE586139F48E";
name = "#instance";
shapes = (
{
closed = 1;
nodes = (
(456,-10,o),
(523,127,o),
(523,358,cs),
(523,590,o),
(445,725,o),
(285,725,cs),
(114,725,o),
(49,589,o),
(49,358,cs),
(49,127,o),
(124,-10,o),
(285,-10,cs)
);
},
{
closed = 1;
nodes = (
(177,65,o),
(137,162,o),
(137,358,cs),
(137,553,o),
(177,650,o),
(285,650,cs),
(392,650,o),
(434,553,o),
(434,358,cs),
(434,161,o),
(392,65,o),
(285,65,cs)
);
}
);
width = 572;
},
{
layerId = "B142495F-E341-49EC-94FB-15D38175E9C1";
shapes = (
{
closed = 1;
nodes = (
(470,-10,o),
(549,113,o),
(549,357,cs),
(549,604,o),
(467,725,o),
(291,725,cs),
(114,725,o),
(36,602,o),
(36,357,cs),
(36,113,o),
(117,-10,o),
(291,-10,cs)
);
},
{
closed = 1;
nodes = (
(215,112,o),
(186,190,o),
(186,357,cs),
(186,534,o),
(216,603,o),
(292,603,cs),
(367,603,o),
(399,534,o),
(399,357,cs),
(399,189,o),
(366,112,o),
(291,112,cs)
);
}
);
width = 585;
},
{
layerId = "B4679C4A-7B1E-46C8-BD55-32AE88BDC1C0";
name = Semibold;
shapes = (
{
closed = 1;
nodes = (
(465,-10,o),
(539,118,o),
(539,358,cs),
(539,599,o),
(458,725,o),
(289,725,cs),
(114,725,o),
(41,597,o),
(41,358,cs),
(41,118,o),
(120,-10,o),
(289,-10,cs)
);
},
{
closed = 1;
nodes = (
(201,94,o),
(167,179,o),
(167,358,cs),
(167,541,o),
(202,621,o),
(289,621,cs),
(377,621,o),
(412,541,o),
(412,358,cs),
(412,178,o),
(376,94,o),
(289,94,cs)
);
}
);
width = 580;
},
{
layerId = "F6727EBE-EF21-4659-9B68-88D73F70C0AC";
name = Medium;
shapes = (
{
closed = 1;
nodes = (
(460,-10,o),
(531,123,o),
(531,358,cs),
(531,594,o),
(451,725,o),
(287,725,cs),
(114,725,o),
(45,593,o),
(45,358,cs),
(45,123,o),
(122,-10,o),
(287,-10,cs)
);
},
{
closed = 1;
nodes = (
(188,79,o),
(151,170,o),
(151,358,cs),
(151,547,o),
(189,636,o),
(287,636,cs),
(385,636,o),
(424,547,o),
(424,358,cs),
(424,169,o),
(384,79,o),
(287,79,cs)
);
}
);
width = 576;
},
{
layerId = "817F4B86-DD93-4C28-949A-BA0EB0B6E07F";
associatedMasterId = "DE23B2BA-64D1-45BF-8121-66FD42616F3E";
name = Layer3;
width = 600;
},
{
background = {
shapes = (
{
closed = 1;
nodes = (
(456,-10,o),
(523,127,o),
(523,358,cs),
(523,590,o),
(445,725,o),
(285,725,cs),
(114,725,o),
(49,589,o),
(49,358,cs),
(49,127,o),
(124,-10,o),
(285,-10,cs)
);
},
{
closed = 1;
nodes = (
(177,65,o),
(137,162,o),
(137,358,cs),
(137,553,o),
(177,650,o),
(285,650,cs),
(392,650,o),
(434,553,o),
(434,358,cs),
(434,161,o),
(392,65,o),
(285,65,cs)
);
}
);
};
layerId = "DE23B2BA-64D1-45BF-8121-66FD42616F3E";
name = Regular;
shapes = (
{
closed = 1;
nodes = (
(456,-10,o),
(523,127,o),
(523,358,cs),
(523,590,o),
(445,725,o),
(285,725,cs),
(114,725,o),
(49,589,o),
(49,358,cs),
(49,127,o),
(124,-10,o),
(285,-10,cs)
);
},
{
closed = 1;
nodes = (
(177,65,o),
(137,162,o),
(137,358,cs),
(137,553,o),
(177,650,o),
(285,650,cs),
(392,650,o),
(434,553,o),
(434,358,cs),
(434,161,o),
(392,65,o),
(285,65,cs)
);
}
);
width = 572;
}
);
unicode = 7248;
},
{
color = 10;
glyphname = uni1C51;
layers = (
{
layerId = "A2F8418F-339B-4F91-B830-CE586139F48E";
name = "#instance";
shapes = (
{
closed = 1;
nodes = (
(461,81,l),
(229,175,o),
(136,385,o),
(145,589,c),
(112,587,l),
(461,337,l),
(461,714,l),
(375,714,l),
(375,448,l),
(407,465,l),
(47,724,l),
(47,342,o),
(125,109,o),
(461,-10,c)
);
}
);
width = 515;
},
{
layerId = "B142495F-E341-49EC-94FB-15D38175E9C1";
shapes = (
{
closed = 1;
nodes = (
(498,127,l),
(292,194,o),
(207,333,o),
(194,520,c),
(153,520,l),
(498,308,l),
(498,714,l),
(359,714,l),
(359,495,l),
(397,516,l),
(35,729,l),
(35,299,o),
(175,74,o),
(498,-15,c)
);
}
);
width = 539;
},
{
layerId = "B4679C4A-7B1E-46C8-BD55-32AE88BDC1C0";
name = Semibold;
shapes = (
{
closed = 1;
nodes = (
(484,110,l),
(268,187,o),
(180,353,o),
(175,546,c),
(137,545,l),
(484,319,l),
(484,714,l),
(365,714,l),
(365,477,l),
(401,497,l),
(39,727,l),
(39,315,o),
(156,87,o),
(484,-13,c)
);
}
);
width = 530;
},
{
layerId = "F6727EBE-EF21-4659-9B68-88D73F70C0AC";
name = Medium;
shapes = (
{
closed = 1;
nodes = (
(472,95,l),
(248,181,o),
(157,370,o),
(159,569,c),
(124,567,l),
(472,328,l),
(472,714,l),
(370,714,l),
(370,462,l),
(404,480,l),
(43,725,l),
(43,329,o),
(140,99,o),
(472,-11,c)
);
}
);
width = 522;
},
{
layerId = "817F4B86-DD93-4C28-949A-BA0EB0B6E07F";
associatedMasterId = "DE23B2BA-64D1-45BF-8121-66FD42616F3E";
name = Layer3;
width = 600;
},
{
background = {
shapes = (
{
closed = 1;
nodes = (
(461,81,l),
(229,175,o),
(136,385,o),
(145,589,c),
(112,587,l),
(461,337,l),
(461,714,l),
(375,714,l),
(375,448,l),
(407,465,l),
(47,724,l),
(47,342,o),
(125,109,o),
(461,-10,c)
);
}
);
};
layerId = "DE23B2BA-64D1-45BF-8121-66FD42616F3E";
name = Regular;
shapes = (
{
closed = 1;
nodes = (
(461,81,l),
(229,175,o),
(136,385,o),
(145,589,c),
(112,587,l),
(461,337,l),
(461,714,l),
(375,714,l),
(375,448,l),
(407,465,l),
(47,724,l),
(47,342,o),
(125,109,o),
(461,-10,c)
);
}
);
width = 515;
}
);
unicode = 7249;
},
{
color = 10;
glyphname = uni1C52;
layers = (
{
layerId = "A2F8418F-339B-4F91-B830-CE586139F48E";
name = "#instance";
shapes = (
{
closed = 1;
nodes = (
(45,55,o),
(161,-9,o),
(280,-9,cs),
(437,-9,o),
(491,121,o),
(500,145,c),
(419,162,l),
(409,133,o),
(369,66,o),
(280,66,cs),
(200,66,o),
(133,109,o),
(133,195,cs),
(133,228,o),
(192,287,o),
(212,307,cs),
(361,457,ls),
(373,470,o),
(432,530,o),
(432,608,cs),
(432,674,o),
(389,725,o),
(288,725,cs),
(186,725,o),
(145,662,o),
(145,607,cs),
(145,537,o),
(223,491,o),
(284,462,c),
(289,502,l),
(144,356,ls),
(95,307,o),
(45,253,o),
(45,195,cs)
);
},
{
closed = 1;
nodes = (
(228,635,o),
(249,657,o),
(288,657,cs),
(334,657,o),
(349,627,o),
(349,603,cs),
(349,543,o),
(304,516,o),
(304,510,c),
(317,508,l),
(315,519,o),
(228,565,o),
(228,606,cs)
);
}
);
width = 513;
},
{
layerId = "B142495F-E341-49EC-94FB-15D38175E9C1";
shapes = (
{
closed = 1;
nodes = (
(32,85,o),
(120,-15,o),
(271,-15,cs),
(381,-15,o),
(466,46,o),
(513,161,c),
(379,187,l),
(355,138,o),
(324,111,o),
(275,111,cs),
(226,111,o),
(190,143,o),
(190,193,cs),
(190,220,o),
(203,253,o),
(244,287,cs),
(424,436,ls),
(465,470,o),
(492,507,o),
(492,571,cs),
(492,661,o),
(415,728,o),
(302,728,cs),
(183,728,o),
(96,665,o),
(96,569,cs),
(96,514,o),
(137,454,o),
(235,420,c),
(231,445,l),
(122,359,ls),
(66,315,o),
(32,259,o),
(32,193,cs)
);
},
{
closed = 1;
nodes = (
(249,594,o),
(271,606,o),
(298,606,cs),
(323,606,o),
(341,597,o),
(341,571,cs),
(341,544,o),
(318,526,o),
(290,498,c),
(326,498,l),
(278,531,o),
(249,545,o),
(249,571,cs)
);
}
);
width = 518;
},
{
layerId = "B4679C4A-7B1E-46C8-BD55-32AE88BDC1C0";
name = Semibold;
shapes = (
{
closed = 1;
nodes = (
(37,74,o),
(136,-13,o),
(274,-13,cs),
(402,-13,o),
(476,74,o),
(508,155,c),
(394,177,l),
(375,136,o),
(341,94,o),
(277,94,cs),
(216,94,o),
(169,130,o),
(169,194,cs),
(169,223,o),
(199,266,o),
(232,294,cs),
(400,444,l),
(430,470,o),
(470,516,o),
(470,585,cs),
(470,666,o),
(405,727,o),
(297,727,cs),
(184,727,o),
(115,664,o),
(115,583,cs),
(115,523,o),
(170,468,o),
(254,436,c),
(253,466,l),
(131,358,ls),
(77,312,o),
(37,257,o),
(37,194,cs)
);
},
{
closed = 1;
nodes = (
(241,610,o),
(262,625,o),
(294,625,cs),
(327,625,o),
(344,608,o),
(344,583,cs),
(344,543,o),
(313,522,o),
(295,502,c),
(323,502,l),
(292,527,o),
(241,552,o),
(241,584,cs)
);
}
);
width = 516;
},
{
layerId = "F6727EBE-EF21-4659-9B68-88D73F70C0AC";
name = Medium;
shapes = (
{
closed = 1;
nodes = (
(41,64,o),
(149,-11,o),
(277,-11,cs),
(420,-11,o),
(484,99,o),
(504,150,c),
(407,169,l),
(393,134,o),
(356,79,o),
(279,79,cs),
(208,79,o),
(150,119,o),
(150,194,cs),
(150,226,o),
(195,277,o),
(221,301,cs),
(380,451,l),
(400,470,o),
(450,523,o),
(450,597,cs),
(450,670,o),
(397,726,o),
(292,726,cs),
(185,726,o),
(131,663,o),
(131,596,cs),
(131,530,o),
(198,480,o),
(270,450,c),
(272,485,l),
(138,357,ls),
(86,309,o),
(41,255,o),
(41,194,cs)
);
},
{
closed = 1;
nodes = (
(234,623,o),
(255,642,o),
(291,642,cs),
(331,642,o),
(347,618,o),
(347,594,cs),
(347,543,o),
(308,519,o),
(300,506,c),
(320,505,l),
(304,523,o),
(234,559,o),
(234,596,cs)
);
}
);
width = 514;
},
{
layerId = "817F4B86-DD93-4C28-949A-BA0EB0B6E07F";
associatedMasterId = "DE23B2BA-64D1-45BF-8121-66FD42616F3E";
name = Layer3;
width = 600;
},
{
background = {
shapes = (
{
closed = 1;
nodes = (
(45,55,o),
(161,-9,o),
(280,-9,cs),
(437,-9,o),
(491,121,o),
(500,145,c),
(419,162,l),
(409,133,o),
(369,66,o),
(280,66,cs),
(200,66,o),
(133,109,o),
(133,195,cs),
(133,228,o),
(192,287,o),
(212,307,cs),
(361,457,ls),
(373,470,o),
(432,530,o),
(432,608,cs),
(432,674,o),
(389,725,o),
(288,725,cs),
(186,725,o),
(145,662,o),
(145,607,cs),
(145,537,o),
(223,491,o),
(284,462,c),
(289,502,l),
(144,356,ls),
(95,307,o),
(45,253,o),
(45,195,cs)
);
},
{
closed = 1;
nodes = (
(228,635,o),
(249,657,o),
(288,657,cs),
(334,657,o),
(349,627,o),
(349,603,cs),
(349,543,o),
(304,516,o),
(304,510,c),
(317,508,l),
(315,519,o),
(228,565,o),
(228,606,cs)
);
}
);
};
layerId = "DE23B2BA-64D1-45BF-8121-66FD42616F3E";
name = Regular;
shapes = (
{
closed = 1;
nodes = (
(45,55,o),
(161,-9,o),
(280,-9,cs),
(437,-9,o),
(491,121,o),
(500,145,c),
(419,162,l),
(409,133,o),
(369,66,o),
(280,66,cs),
(200,66,o),
(133,109,o),
(133,195,cs),
(133,228,o),
(192,287,o),
(212,307,cs),
(361,457,l),
(373,470,o),
(432,530,o),
(432,608,cs),
(432,674,o),
(389,725,o),
(288,725,cs),
(186,725,o),
(145,662,o),
(145,607,cs),
(145,537,o),
(223,491,o),
(284,462,c),
(289,502,l),
(144,356,ls),
(95,307,o),
(45,253,o),
(45,195,cs)
);
},
{
closed = 1;
nodes = (
(228,635,o),
(249,657,o),
(288,657,cs),
(334,657,o),
(349,627,o),
(349,603,cs),
(349,543,o),
(304,516,o),
(304,510,c),
(317,508,l),
(315,519,o),
(228,565,o),
(228,606,cs)
);
}
);
width = 513;
}
);
unicode = 7250;
},
{
color = 10;
glyphname = uni1C53;
layers = (
{
layerId = "A2F8418F-339B-4F91-B830-CE586139F48E";
name = "#instance";
shapes = (
{
closed = 1;
nodes = (
(467,81,l),
(304,113,o),
(144,180,o),
(144,288,cs),
(144,347,o),
(213,421,o),
(249,460,c),
(198,461,l),
(467,337,l),
(467,714,l),
(381,714,l),
(381,456,l),
(251,515,l),
(279,491,l),
(303,515,o),
(345,547,o),
(345,608,cs),
(345,673,o),
(288,725,o),
(214,725,cs),
(129,725,o),
(80,664,o),
(80,602,cs),
(80,517,o),
(163,487,o),
(175,471,c),
(175,489,l),
(155,463,o),
(56,378,o),
(56,289,cs),
(56,125,o),
(262,45,o),
(467,-10,c)
);
},
{
closed = 1;
nodes = (
(226,527,l),
(211,534,o),
(157,565,o),
(157,603,cs),
(157,628,o),
(177,657,o),
(212,657,cs),
(245,657,o),
(267,634,o),
(267,608,cs),
(267,571,o),
(226,536,o),
(214,527,c)
);
}
);
width = 521;
},
{
layerId = "8D3DBADC-9403-4D50-9E69-2A6307EC5703";
associatedMasterId = "B142495F-E341-49EC-94FB-15D38175E9C1";
name = "Oct 4 19, 12:51";
shapes = (
{
closed = 1;
nodes = (
(396,435,l),
(522,374,l),
(522,714,l),
(396,714,l)
);
},
{
closed = 1;
nodes = (
(260,542,o),
(232,527,o),
(215,511,cs),
(138,440,ls),
(94,400,o),
(47,344,o),
(47,267,cs),
(47,100,o),
(246,29,o),
(520,-15,c),
(520,126,l),
(249,169,o),
(191,226,o),
(191,288,cs),
(191,328,o),
(215,363,o),
(250,393,cs),
(315,450,ls),
(350,480,o),
(383,513,o),
(383,576,cs),
(383,671,o),
(309,728,o),
(220,728,cs),
(124,728,o),
(53,666,o),
(53,576,cs),
(53,526,o),
(74,458,o),
(170,414,cs),
(522,254,l),
(522,381,l),
(225,518,ls),
(197,531,o),
(180,552,o),
(180,574,cs),
(180,594,o),
(194,613,o),
(220,613,cs),
(247,613,o),
(260,594,o),
(260,573,cs)
);
}
);
width = 600;
},
{
layerId = "B142495F-E341-49EC-94FB-15D38175E9C1";
shapes = (
{
closed = 1;
nodes = (
(516,126,l),
(245,179,o),
(187,226,o),
(187,291,cs),
(187,334,o),
(206,372,o),
(249,395,c),
(194,402,l),
(518,246,l),
(518,714,l),
(399,714,l),
(399,429,l),
(289,481,l),
(309,450,l),
(345,480,o),
(379,512,o),
(379,576,cs),
(379,671,o),
(305,728,o),
(216,728,cs),
(120,728,o),
(49,666,o),
(49,576,cs),
(49,525,o),
(70,462,o),
(167,417,c),
(150,453,l),
(98,415,o),
(43,369,o),
(43,291,cs),
(43,110,o),
(242,39,o),
(516,-15,c)
);
},
{
closed = 1;
nodes = (
(258,498,l),
(217,519,o),
(176,543,o),
(176,574,cs),
(176,594,o),
(190,613,o),
(216,613,cs),
(243,613,o),
(256,594,o),
(256,573,cs),
(256,543,o),
(229,522,o),
(206,502,c)
);
}
);
width = 559;
},
{
layerId = "B4679C4A-7B1E-46C8-BD55-32AE88BDC1C0";
name = Semibold;
shapes = (
{
closed = 1;
nodes = (
(497,109,l),
(267,154,o),
(171,209,o),
(171,290,cs),
(171,339,o),
(209,391,o),
(249,420,c),
(196,424,l),
(499,280,l),
(499,714,l),
(392,714,l),
(392,439,l),
(275,494,l),
(298,466,l),
(329,493,o),
(366,525,o),
(366,588,cs),
(366,672,o),
(299,727,o),
(215,727,cs),
(123,727,o),
(61,665,o),
(61,586,cs),
(61,522,o),
(105,472,o),
(170,437,c),
(160,466,l),
(119,433,o),
(48,372,o),
(48,290,cs),
(48,116,o),
(249,41,o),
(497,-13,c)
);
},
{
closed = 1;
nodes = (
(246,509,l),
(215,525,o),
(169,552,o),
(169,585,cs),
(169,607,o),
(185,630,o),
(214,630,cs),
(244,630,o),
(260,609,o),
(260,586,cs),
(260,554,o),
(228,527,o),
(209,512,c)
);
}
);
width = 545;
},
{
layerId = "F6727EBE-EF21-4659-9B68-88D73F70C0AC";
name = Medium;
shapes = (
{
closed = 1;
nodes = (
(481,94,l),
(287,132,o),
(157,194,o),
(157,289,cs),
(157,343,o),
(211,407,o),
(249,441,c),
(197,444,l),
(482,310,l),
(482,714,l),
(386,714,l),
(386,448,l),
(262,505,l),
(288,479,l),
(315,505,o),
(355,537,o),
(355,599,cs),
(355,672,o),
(293,726,o),
(215,726,cs),
(126,726,o),
(71,665,o),
(71,594,cs),
(71,519,o),
(136,480,o),
(173,455,c),
(168,478,l),
(138,449,o),
(52,375,o),
(52,290,cs),
(52,121,o),
(256,43,o),
(481,-11,c)
);
},
{
closed = 1;
nodes = (
(235,518,l),
(213,530,o),
(163,559,o),
(163,594,cs),
(163,618,o),
(181,644,o),
(213,644,cs),
(244,644,o),
(264,622,o),
(264,598,cs),
(264,563,o),
(227,532,o),
(212,520,c)
);
}
);
width = 532;
},
{
layerId = "7D95BC00-95BE-42D8-8F6C-912139891BD5";
associatedMasterId = "DE23B2BA-64D1-45BF-8121-66FD42616F3E";
name = "Oct 4 19, 12:51";
shapes = (
{
closed = 1;
nodes = (
(467,81,l),
(304,113,o),
(144,180,o),
(144,288,cs),
(144,340,o),
(197,403,o),
(234,444,c),
(467,337,l),
(467,714,l),
(381,714,l),
(381,456,l),
(287,499,l),
(303,515,o),
(345,548,o),
(345,608,cs),
(345,673,o),
(288,725,o),
(214,725,cs),
(129,725,o),
(80,664,o),
(80,602,cs),
(80,529,o),
(141,497,o),
(166,479,c),
(135,445,o),
(56,369,o),
(56,289,cs),
(56,125,o),
(262,45,o),
(467,-10,c)
);
},
{
closed = 1;
nodes = (
(208,536,o),
(157,567,o),
(157,603,cs),
(157,628,o),
(177,657,o),
(212,657,cs),
(245,657,o),
(267,634,o),
(267,608,cs),
(267,573,o),
(229,540,o),
(219,530,c)
);
}
);
width = 521;
},
{
layerId = "2158AEF6-410E-4D6B-A6DF-0BF8AE5F194A";
associatedMasterId = "DE23B2BA-64D1-45BF-8121-66FD42616F3E";
name = Layer5;
width = 600;
},
{
background = {
shapes = (
{
closed = 1;
nodes = (
(467,81,l),
(304,113,o),
(144,180,o),
(144,288,cs),
(144,347,o),
(213,421,o),
(249,460,c),
(198,461,l),
(467,337,l),
(467,714,l),
(381,714,l),
(381,456,l),
(251,515,l),
(279,491,l),
(303,515,o),
(345,547,o),
(345,608,cs),
(345,673,o),
(288,725,o),
(214,725,cs),
(129,725,o),
(80,664,o),
(80,602,cs),
(80,517,o),
(163,487,o),
(175,471,c),
(175,489,l),
(155,463,o),
(56,378,o),
(56,289,cs),
(56,125,o),
(262,45,o),
(467,-10,c)
);
},
{
closed = 1;
nodes = (
(226,527,l),
(211,534,o),
(157,565,o),
(157,603,cs),
(157,628,o),
(177,657,o),
(212,657,cs),
(245,657,o),
(267,634,o),
(267,608,cs),
(267,571,o),
(226,536,o),
(214,527,c)
);
}
);
};
layerId = "DE23B2BA-64D1-45BF-8121-66FD42616F3E";
name = Regular;
shapes = (
{
closed = 1;
nodes = (
(467,81,l),
(304,113,o),
(144,180,o),
(144,288,cs),
(144,347,o),
(213,421,o),
(249,460,c),
(198,461,l),
(467,337,l),
(467,714,l),
(381,714,l),
(381,456,l),
(251,515,l),
(279,491,l),
(303,515,o),
(345,547,o),
(345,608,cs),
(345,673,o),
(288,725,o),
(214,725,cs),
(129,725,o),
(80,664,o),
(80,602,cs),
(80,517,o),
(163,487,o),
(175,471,c),
(175,489,l),
(155,463,o),
(56,378,o),
(56,289,cs),
(56,125,o),
(262,45,o),
(467,-10,c)
);
},
{
closed = 1;
nodes = (
(226,527,l),
(211,534,o),
(157,565,o),
(157,603,cs),
(157,628,o),
(177,657,o),
(212,657,cs),
(245,657,o),
(267,634,o),
(267,608,cs),
(267,571,o),
(226,536,o),
(214,527,c)
);
}
);
width = 521;
}
);
unicode = 7251;
},
{
color = 10;
glyphname = uni1C54;
layers = (
{
layerId = "A2F8418F-339B-4F91-B830-CE586139F48E";
name = "#instance";
shapes = (
{
closed = 1;
nodes = (
(126,355,l),
(165,273,o),
(248,182,o),
(310,182,cs),
(349,182,o),
(364,194,o),
(373,200,c),
(354,208,l),
(359,200,o),
(371,179,o),
(371,149,cs),
(371,119,o),
(353,60,o),
(273,60,cs),
(167,60,o),
(132,195,o),
(132,292,cs),
(132,543,o),
(312,623,o),
(438,635,c),
(438,725,l),
(260,708,o),
(49,571,o),
(49,297,cs),
(49,135,o),
(121,-10,o),
(272,-10,cs),
(393,-10,o),
(448,72,o),
(448,145,cs),
(448,222,o),
(416,270,o),
(405,289,c),
(397,280,o),
(374,250,o),
(331,250,cs),
(268,250,o),
(186,344,o),
(151,443,c)
);
}
);
width = 483;
},
{
layerId = "B142495F-E341-49EC-94FB-15D38175E9C1";
shapes = (
{
closed = 1;
nodes = (
(153,365,l),
(200,275,o),
(271,178,o),
(359,178,cs),
(378,178,o),
(401,184,o),
(425,201,c),
(353,212,l),
(362,202,o),
(370,190,o),
(370,177,cs),
(370,134,o),
(339,111,o),
(298,111,cs),
(234,111,o),
(177,173,o),
(177,319,cs),
(177,471,o),
(304,574,o),
(496,591,c),
(490,729,l),
(166,701,o),
(36,468,o),
(36,309,cs),
(36,121,o),
(128,-15,o),
(298,-15,cs),
(403,-15,o),
(502,55,o),
(502,175,cs),
(502,238,o),
(476,292,o),
(440,324,c),
(430,296,o),
(410,280,o),
(381,280,cs),
(322,280,o),
(272,344,o),
(208,453,c)
);
}
);
width = 525;
},
{
layerId = "B4679C4A-7B1E-46C8-BD55-32AE88BDC1C0";
name = Semibold;
shapes = (
{
closed = 1;
nodes = (
(143,361,l),
(187,274,o),
(262,180,o),
(340,180,cs),
(367,180,o),
(387,188,o),
(405,200,c),
(354,210,l),
(361,201,o),
(371,186,o),
(371,166,cs),
(371,128,o),
(344,92,o),
(288,92,cs),
(209,92,o),
(160,182,o),
(160,309,cs),
(160,498,o),
(307,593,o),
(474,608,c),
(470,727,l),
(201,704,o),
(41,507,o),
(41,305,cs),
(41,126,o),
(125,-13,o),
(288,-13,cs),
(399,-13,o),
(482,61,o),
(482,164,cs),
(482,232,o),
(454,283,o),
(427,311,c),
(418,290,o),
(397,269,o),
(362,269,cs),
(302,269,o),
(239,344,o),
(187,449,c)
);
}
);
width = 509;
},
{
layerId = "F6727EBE-EF21-4659-9B68-88D73F70C0AC";
name = Medium;
shapes = (
{
closed = 1;
nodes = (
(134,358,l),
(175,274,o),
(255,181,o),
(324,181,cs),
(358,181,o),
(375,191,o),
(388,200,c),
(354,209,l),
(360,201,o),
(371,182,o),
(371,157,cs),
(371,123,o),
(349,75,o),
(280,75,cs),
(187,75,o),
(145,189,o),
(145,300,cs),
(145,522,o),
(310,609,o),
(455,622,c),
(453,726,l),
(232,706,o),
(45,541,o),
(45,301,cs),
(45,131,o),
(123,-11,o),
(280,-11,cs),
(396,-11,o),
(464,67,o),
(464,154,cs),
(464,227,o),
(434,276,o),
(415,299,c),
(407,285,o),
(385,259,o),
(346,259,cs),
(284,259,o),
(211,344,o),
(168,446,c)
);
}
);
width = 495;
},
{
layerId = "7A87374E-757F-43F1-8DBE-5D799CDD123E";
associatedMasterId = "DE23B2BA-64D1-45BF-8121-66FD42616F3E";
name = "Oct 8 19, 15:48";
shapes = (
{
closed = 1;
nodes = (
(393,-10,o),
(448,72,o),
(448,145,cs),
(448,222,o),
(416,270,o),
(405,289,c),
(397,280,o),
(374,250,o),
(331,250,cs),
(261,250,o),
(182,359,o),
(156,430,c),
(174,508,o),
(274,621,o),
(438,635,c),
(438,725,l),
(260,708,o),
(49,571,o),
(49,297,cs),
(49,135,o),
(121,-10,o),
(272,-10,cs)
);
},
{
closed = 1;
nodes = (
(167,60,o),
(132,195,o),
(132,292,cs),
(132,309,o),
(133,325,o),
(135,339,c),
(160,285,o),
(243,182,o),
(310,182,cs),
(342,182,o),
(359,191,o),
(362,193,c),
(364,188,o),
(371,171,o),
(371,149,cs),
(371,119,o),
(353,60,o),
(273,60,cs)
);
}
);
width = 483;
},
{
layerId = "E4FE3E4B-A1D2-4027-8FE1-69C95666C91A";
associatedMasterId = "DE23B2BA-64D1-45BF-8121-66FD42616F3E";
name = Layer4;
width = 600;
},
{
background = {
shapes = (
{
closed = 1;
nodes = (
(126,355,l),
(165,273,o),
(248,182,o),
(310,182,cs),
(349,182,o),
(364,194,o),
(373,200,c),
(354,208,l),
(359,200,o),
(371,179,o),
(371,149,cs),
(371,119,o),
(353,60,o),
(273,60,cs),
(167,60,o),
(132,195,o),
(132,292,cs),
(132,543,o),
(312,623,o),
(438,635,c),
(438,725,l),
(260,708,o),
(49,571,o),
(49,297,cs),
(49,135,o),
(121,-10,o),
(272,-10,cs),
(393,-10,o),
(448,72,o),
(448,145,cs),
(448,222,o),
(416,270,o),
(405,289,c),
(397,280,o),
(374,250,o),
(331,250,cs),
(268,250,o),
(186,344,o),
(151,443,c)
);
}
);
};
layerId = "DE23B2BA-64D1-45BF-8121-66FD42616F3E";
name = Regular;
shapes = (
{
closed = 1;
nodes = (
(126,355,l),
(165,273,o),
(248,182,o),
(310,182,cs),
(349,182,o),
(364,194,o),
(373,200,c),
(354,208,l),
(359,200,o),
(371,179,o),
(371,149,cs),
(371,119,o),
(353,60,o),
(273,60,cs),
(167,60,o),
(132,195,o),
(132,292,cs),
(132,543,o),
(312,623,o),
(438,635,c),
(438,725,l),
(260,708,o),
(49,571,o),
(49,297,cs),
(49,135,o),
(121,-10,o),
(272,-10,cs),
(393,-10,o),
(448,72,o),
(448,145,cs),
(448,222,o),
(416,270,o),
(405,289,c),
(397,280,o),
(374,250,o),
(331,250,cs),
(268,250,o),
(186,344,o),
(151,443,c)
);
}
);
width = 483;
}
);
unicode = 7252;
},
{
color = 10;
glyphname = uni1C55;
layers = (
{
layerId = "A2F8418F-339B-4F91-B830-CE586139F48E";
name = "#instance";
shapes = (
{
closed = 1;
nodes = (
(431,160,l),
(420,134,o),
(394,65,o),
(308,65,cs),
(208,65,o),
(138,153,o),
(138,316,cs),
(138,496,o),
(262,642,o),
(286,677,c),
(214,725,l),
(176,678,o),
(49,501,o),
(49,316,cs),
(49,119,o),
(160,-10,o),
(308,-10,cs),
(439,-10,o),
(515,104,o),
(515,203,c),
(437,203,o),
(328,222,o),
(328,320,cs),
(328,423,o),
(418,463,o),
(486,476,c),
(463,555,l),
(440,551,o),
(243,511,o),
(243,320,cs),
(243,182,o),
(371,138,o),
(445,147,c)
);
}
);
width = 551;
},
{
layerId = "B142495F-E341-49EC-94FB-15D38175E9C1";
shapes = (
{
closed = 1;
nodes = (
(434,191,l),
(413,137,o),
(380,111,o),
(327,111,cs),
(257,111,o),
(191,185,o),
(191,339,cs),
(191,475,o),
(238,555,o),
(316,648,c),
(197,729,l),
(102,622,o),
(36,488,o),
(36,339,cs),
(36,141,o),
(137,-15,o),
(327,-15,cs),
(449,-15,o),
(565,87,o),
(565,255,c),
(461,255,o),
(393,286,o),
(393,348,cs),
(393,402,o),
(442,440,o),
(520,458,c),
(482,579,l),
(321,547,o),
(248,448,o),
(248,348,cs),
(248,230,o),
(346,158,o),
(465,148,c)
);
}
);
width = 588;
},
{
layerId = "B4679C4A-7B1E-46C8-BD55-32AE88BDC1C0";
name = Semibold;
shapes = (
{
closed = 1;
nodes = (
(433,179,l),
(416,136,o),
(385,94,o),
(320,94,cs),
(238,94,o),
(171,173,o),
(171,330,cs),
(171,483,o),
(247,588,o),
(305,659,c),
(203,727,l),
(130,643,o),
(41,493,o),
(41,330,cs),
(41,132,o),
(146,-13,o),
(320,-13,cs),
(445,-13,o),
(546,93,o),
(546,235,c),
(452,235,o),
(368,262,o),
(368,337,cs),
(368,410,o),
(433,449,o),
(507,465,c),
(475,570,l),
(366,549,o),
(246,472,o),
(246,337,cs),
(246,212,o),
(356,151,o),
(458,147,c)
);
}
);
width = 574;
},
{
layerId = "F6727EBE-EF21-4659-9B68-88D73F70C0AC";
name = Medium;
shapes = (
{
closed = 1;
nodes = (
(432,169,l),
(418,135,o),
(390,79,o),
(314,79,cs),
(222,79,o),
(154,162,o),
(154,323,cs),
(154,490,o),
(255,616,o),
(295,668,c),
(209,726,l),
(154,661,o),
(45,497,o),
(45,323,cs),
(45,125,o),
(153,-11,o),
(314,-11,cs),
(442,-11,o),
(530,99,o),
(530,218,c),
(444,218,o),
(347,241,o),
(347,328,cs),
(347,417,o),
(425,456,o),
(496,471,c),
(469,562,l),
(405,550,o),
(244,492,o),
(244,328,cs),
(244,196,o),
(364,144,o),
(451,147,c)
);
}
);
width = 562;
},
{
layerId = "817F4B86-DD93-4C28-949A-BA0EB0B6E07F";
associatedMasterId = "DE23B2BA-64D1-45BF-8121-66FD42616F3E";
name = Layer3;
width = 600;
},
{
background = {
shapes = (
{
closed = 1;
nodes = (
(431,160,l),
(420,134,o),
(394,65,o),
(308,65,cs),
(208,65,o),
(138,153,o),
(138,316,cs),
(138,496,o),
(262,642,o),
(286,677,c),
(214,725,l),
(176,678,o),
(49,501,o),
(49,316,cs),
(49,119,o),
(160,-10,o),
(308,-10,cs),
(439,-10,o),
(515,104,o),
(515,203,c),
(437,203,o),
(328,222,o),
(328,320,cs),
(328,423,o),
(418,463,o),
(486,476,c),
(463,555,l),
(440,551,o),
(243,511,o),
(243,320,cs),
(243,182,o),
(371,138,o),
(445,147,c)
);
}
);
};
layerId = "DE23B2BA-64D1-45BF-8121-66FD42616F3E";
name = Regular;
shapes = (
{
closed = 1;
nodes = (
(431,160,l),
(420,134,o),
(394,65,o),
(308,65,cs),
(208,65,o),
(138,153,o),
(138,316,cs),
(138,496,o),
(262,642,o),
(286,677,c),
(214,725,l),
(176,678,o),
(49,501,o),
(49,316,cs),
(49,119,o),
(160,-10,o),
(308,-10,cs),
(439,-10,o),
(515,104,o),
(515,203,c),
(437,203,o),
(328,222,o),
(328,320,cs),
(328,423,o),
(418,463,o),
(486,476,c),
(463,555,l),
(440,551,o),
(243,511,o),
(243,320,cs),
(243,182,o),
(371,138,o),
(445,147,c)
);
}
);
width = 551;
}
);
unicode = 7253;
},
{
color = 10;
glyphname = uni1C56;
layers = (
{
layerId = "A2F8418F-339B-4F91-B830-CE586139F48E";
name = "#instance";
shapes = (
{
closed = 1;
nodes = (
(472,52,l),
(427,72,o),
(137,207,o),
(137,399,cs),
(137,496,o),
(182,554,o),
(190,561,c),
(168,567,l),
(198,503,o),
(241,425,o),
(341,425,cs),
(435,425,o),
(495,501,o),
(495,573,cs),
(495,660,o),
(434,725,o),
(336,725,cs),
(258,725,o),
(183,667,o),
(177,664,c),
(211,653,l),
(192,690,o),
(180,714,o),
(173,730,c),
(104,692,l),
(159,592,l),
(152,638,l),
(112,607,o),
(48,507,o),
(48,402,cs),
(48,195,o),
(274,49,o),
(412,-10,c)
);
},
{
closed = 1;
nodes = (
(276,496,o),
(238,600,o),
(224,623,c),
(224,604,l),
(247,622,o),
(292,653,o),
(334,653,cs),
(380,653,o),
(415,616,o),
(415,576,cs),
(415,534,o),
(383,496,o),
(341,496,cs)
);
}
);
width = 506;
},
{
layerId = "D8A14229-649D-41EA-84D8-980254CC3DF2";
associatedMasterId = "B142495F-E341-49EC-94FB-15D38175E9C1";
name = "Version 2";
shapes = (
{
closed = 1;
nodes = (
(514,91,l),
(296,217,o),
(205,308,o),
(205,423,cs),
(205,459,o),
(215,490,o),
(235,515,c),
(204,523,l),
(251,428,o),
(312,398,o),
(380,398,cs),
(480,398,o),
(563,457,o),
(563,561,cs),
(563,672,o),
(479,729,o),
(374,729,cs),
(317,729,o),
(261,711,o),
(213,678,c),
(260,654,l),
(246,679,o),
(232,703,o),
(218,728,c),
(116,670,l),
(168,582,l),
(170,646,l),
(105,590,o),
(61,511,o),
(61,418,cs),
(61,228,o),
(220,85,o),
(416,-12,c)
);
},
{
closed = 1;
nodes = (
(342,515,o),
(314,551,o),
(273,633,c),
(273,570,l),
(301,596,o),
(339,609,o),
(370,609,cs),
(406,609,o),
(426,592,o),
(426,562,cs),
(426,532,o),
(406,515,o),
(380,515,cs)
);
}
);
width = 600;
},
{
layerId = "ADF035D9-E320-44E5-A623-5B594FE69586";
associatedMasterId = "B142495F-E341-49EC-94FB-15D38175E9C1";
name = "Smaller counter";
shapes = (
{
closed = 1;
nodes = (
(514,95,l),
(296,227,o),
(207,309,o),
(207,427,cs),
(207,541,o),
(303,606,o),
(369,606,cs),
(404,606,o),
(426,587,o),
(426,557,cs),
(426,526,o),
(404,507,o),
(377,507,cs),
(346,507,o),
(323,536,o),
(293,580,cs),
(193,729,l),
(97,669,l),
(219,482,ls),
(258,423,o),
(320,390,o),
(380,390,cs),
(482,390,o),
(563,455,o),
(563,558,cs),
(563,669,o),
(479,729,o),
(369,729,cs),
(196,729,o),
(64,581,o),
(64,418,cs),
(64,228,o),
(220,95,o),
(416,-8,c)
);
}
);
width = 600;
},
{
layerId = "D2AD7C10-687B-4312-A9B3-DB006146C6B6";
associatedMasterId = "B142495F-E341-49EC-94FB-15D38175E9C1";
name = "Large counter";
shapes = (
{
closed = 1;
nodes = (
(511,87,l),
(296,207,o),
(213,305,o),
(213,426,cs),
(213,445,o),
(215,466,o),
(225,493,c),
(199,478,l),
(239,401,o),
(296,367,o),
(367,367,cs),
(469,367,o),
(560,434,o),
(560,550,cs),
(560,669,o),
(466,729,o),
(361,729,cs),
(295,729,o),
(231,704,o),
(181,662,c),
(219,655,l),
(206,677,o),
(191,704,o),
(180,729,c),
(74,672,l),
(139,555,l),
(135,618,l),
(90,563,o),
(60,491,o),
(60,413,cs),
(60,228,o),
(220,75,o),
(416,-12,c)
);
},
{
closed = 1;
nodes = (
(323,487,o),
(293,522,o),
(256,586,c),
(247,538,l),
(277,582,o),
(322,609,o),
(361,609,cs),
(398,609,o),
(423,585,o),
(423,550,cs),
(423,512,o),
(394,487,o),
(364,487,cs)
);
}
);
width = 600;
},
{
layerId = "B142495F-E341-49EC-94FB-15D38175E9C1";
shapes = (
{
closed = 1;
nodes = (
(489,92,l),
(266,218,o),
(179,309,o),
(179,427,cs),
(179,459,o),
(186,488,o),
(199,511,c),
(165,513,l),
(205,433,o),
(278,384,o),
(356,384,cs),
(451,384,o),
(538,454,o),
(538,555,cs),
(538,666,o),
(451,729,o),
(341,729,cs),
(275,729,o),
(217,708,o),
(167,672,c),
(211,647,l),
(194,673,o),
(180,698,o),
(165,724,c),
(69,668,l),
(123,570,l),
(124,635,l),
(70,579,o),
(36,500,o),
(36,418,cs),
(36,228,o),
(192,95,o),
(391,-11,c)
);
},
{
closed = 1;
nodes = (
(315,501,o),
(275,530,o),
(221,627,c),
(236,561,l),
(270,591,o),
(308,606,o),
(341,606,cs),
(376,606,o),
(401,584,o),
(401,554,cs),
(401,521,o),
(380,501,o),
(356,501,cs)
);
}
);
width = 538;
},
{
layerId = "B4679C4A-7B1E-46C8-BD55-32AE88BDC1C0";
name = Semibold;
shapes = (
{
closed = 1;
nodes = (
(483,77,l),
(326,163,o),
(163,270,o),
(163,416,cs),
(163,473,o),
(184,513,o),
(196,530,c),
(166,533,l),
(202,459,o),
(264,400,o),
(350,400,cs),
(445,400,o),
(522,472,o),
(522,562,cs),
(522,664,o),
(445,727,o),
(339,727,cs),
(269,727,o),
(204,692,o),
(171,669,c),
(211,649,l),
(193,679,o),
(180,704,o),
(168,726,c),
(82,677,l),
(136,579,l),
(135,636,l),
(86,590,o),
(40,503,o),
(40,412,cs),
(40,216,o),
(223,78,o),
(399,-10,c)
);
},
{
closed = 1;
nodes = (
(301,499,o),
(261,556,o),
(222,625,c),
(232,577,l),
(261,603,o),
(302,624,o),
(338,624,cs),
(378,624,o),
(406,596,o),
(406,563,cs),
(406,526,o),
(381,499,o),
(350,499,cs)
);
}
);
width = 526;
},
{
layerId = "F6727EBE-EF21-4659-9B68-88D73F70C0AC";
name = Medium;
shapes = (
{
closed = 1;
nodes = (
(477,64,l),
(379,115,o),
(149,237,o),
(149,407,cs),
(149,485,o),
(183,535,o),
(193,546,c),
(167,551,l),
(200,482,o),
(252,413,o),
(345,413,cs),
(440,413,o),
(508,487,o),
(508,568,cs),
(508,662,o),
(439,726,o),
(337,726,cs),
(263,726,o),
(193,679,o),
(174,666,c),
(211,651,l),
(193,685,o),
(180,709,o),
(171,728,c),
(94,685,l),
(148,586,l),
(144,637,l),
(100,599,o),
(44,505,o),
(44,407,cs),
(44,205,o),
(250,63,o),
(406,-10,c)
);
},
{
closed = 1;
nodes = (
(288,497,o),
(249,579,o),
(223,624,c),
(228,591,l),
(254,613,o),
(297,639,o),
(336,639,cs),
(379,639,o),
(411,607,o),
(411,570,cs),
(411,530,o),
(382,497,o),
(345,497,cs)
);
}
);
width = 515;
},
{
layerId = "62122E65-4709-4C10-943B-F21B9FAAF0F6";
associatedMasterId = "DE23B2BA-64D1-45BF-8121-66FD42616F3E";
name = Layer6;
width = 600;
},
{
background = {
shapes = (
{
closed = 1;
nodes = (
(472,52,l),
(427,72,o),
(137,207,o),
(137,399,cs),
(137,496,o),
(182,554,o),
(190,561,c),
(168,567,l),
(198,503,o),
(241,425,o),
(341,425,cs),
(435,425,o),
(495,501,o),
(495,573,cs),
(495,660,o),
(434,725,o),
(336,725,cs),
(258,725,o),
(183,667,o),
(177,664,c),
(211,653,l),
(192,690,o),
(180,714,o),
(173,730,c),
(104,692,l),
(159,592,l),
(152,638,l),
(112,607,o),
(48,507,o),
(48,402,cs),
(48,195,o),
(274,49,o),
(412,-10,c)
);
},
{
closed = 1;
nodes = (
(276,496,o),
(238,600,o),
(224,623,c),
(224,604,l),
(247,622,o),
(292,653,o),
(334,653,cs),
(380,653,o),
(415,616,o),
(415,576,cs),
(415,534,o),
(383,496,o),
(341,496,cs)
);
}
);
};
layerId = "DE23B2BA-64D1-45BF-8121-66FD42616F3E";
name = Regular;
shapes = (
{
closed = 1;
nodes = (
(472,52,l),
(427,72,o),
(137,207,o),
(137,399,cs),
(137,496,o),
(182,554,o),
(190,561,c),
(168,567,l),
(198,503,o),
(241,425,o),
(341,425,cs),
(435,425,o),
(495,501,o),
(495,573,cs),
(495,660,o),
(434,725,o),
(336,725,cs),
(258,725,o),
(183,667,o),
(177,664,c),
(211,653,l),
(192,690,o),
(180,714,o),
(173,730,c),
(104,692,l),
(159,592,l),
(152,638,l),
(112,607,o),
(48,507,o),
(48,402,cs),
(48,195,o),
(274,49,o),
(412,-10,c)
);
},
{
closed = 1;
nodes = (
(276,496,o),
(238,600,o),
(224,623,c),
(224,604,l),
(247,622,o),
(292,653,o),
(334,653,cs),
(380,653,o),
(415,616,o),
(415,576,cs),
(415,534,o),
(383,496,o),
(341,496,cs)
);
}
);
width = 506;
}
);
unicode = 7254;
},
{
color = 10;
glyphname = uni1C57;
layers = (
{
layerId = "A2F8418F-339B-4F91-B830-CE586139F48E";
name = "#instance";
shapes = (
{
closed = 1;
nodes = (
(403,-10,o),
(474,91,o),
(495,140,c),
(410,158,l),
(405,142,o),
(358,65,o),
(272,65,cs),
(186,65,o),
(140,125,o),
(140,195,cs),
(140,231,o),
(172,260,o),
(198,286,cs),
(351,440,ls),
(369,459,o),
(453,533,o),
(453,599,cs),
(453,680,o),
(397,725,o),
(305,725,cs),
(216,725,o),
(170,657,o),
(151,626,c),
(173,626,l),
(85,719,l),
(32,668,l),
(198,496,l),
(251,547,l),
(198,601,l),
(208,566,l),
(211,597,o),
(256,650,o),
(305,650,cs),
(344,650,o),
(365,628,o),
(365,599,cs),
(365,564,o),
(313,516,o),
(290,494,cs),
(123,329,ls),
(104,311,o),
(51,260,o),
(51,195,cs),
(51,84,o),
(130,-10,o),
(272,-10,cs)
);
}
);
width = 514;
},
{
layerId = "CB14131F-D99B-4CB0-AB12-1071E114265A";
associatedMasterId = "B142495F-E341-49EC-94FB-15D38175E9C1";
name = "Oct 4 19, 11:38";
shapes = (
{
closed = 1;
nodes = (
(77,77,o),
(164,-15,o),
(315,-15,cs),
(425,-15,o),
(510,46,o),
(557,161,c),
(423,187,l),
(398,139,o),
(364,111,o),
(315,111,cs),
(266,111,o),
(235,138,o),
(235,190,cs),
(235,217,o),
(247,252,o),
(286,288,cs),
(456,443,ls),
(495,479,o),
(527,518,o),
(527,577,cs),
(527,665,o),
(454,728,o),
(353,728,cs),
(275,728,o),
(214,688,o),
(183,640,c),
(250,547,l),
(273,584,o),
(308,607,o),
(336,607,cs),
(358,607,o),
(374,594,o),
(374,572,cs),
(374,551,o),
(365,538,o),
(352,526,cs),
(170,359,ls),
(117,310,o),
(77,256,o),
(77,185,cs)
);
},
{
closed = 1;
nodes = (
(44,642,l),
(216,468,l),
(284,536,l),
(112,710,l)
);
}
);
width = 600;
},
{
layerId = "B142495F-E341-49EC-94FB-15D38175E9C1";
shapes = (
{
closed = 1;
nodes = (
(397,-15,o),
(482,46,o),
(529,161,c),
(395,187,l),
(371,138,o),
(340,111,o),
(291,111,cs),
(242,111,o),
(206,143,o),
(206,193,cs),
(206,220,o),
(220,251,o),
(260,286,cs),
(438,438,ls),
(478,473,o),
(509,516,o),
(509,577,cs),
(509,665,o),
(436,728,o),
(332,728,cs),
(239,728,o),
(178,675,o),
(150,624,c),
(199,619,l),
(98,723,l),
(19,644,l),
(195,464,l),
(273,542,l),
(212,604,l),
(217,529,l),
(238,577,o),
(277,606,o),
(312,606,cs),
(340,606,o),
(355,593,o),
(355,569,cs),
(355,548,o),
(345,534,o),
(332,523,cs),
(141,360,ls),
(87,314,o),
(48,259,o),
(48,193,cs),
(48,85,o),
(136,-15,o),
(287,-15,cs)
);
}
);
width = 535;
},
{
layerId = "B4679C4A-7B1E-46C8-BD55-32AE88BDC1C0";
name = Semibold;
shapes = (
{
closed = 1;
nodes = (
(399,-13,o),
(479,63,o),
(516,153,c),
(401,176,l),
(384,140,o),
(347,94,o),
(284,94,cs),
(221,94,o),
(181,136,o),
(181,194,cs),
(181,224,o),
(202,254,o),
(236,286,cs),
(405,439,ls),
(437,468,o),
(488,522,o),
(488,586,cs),
(488,671,o),
(422,727,o),
(322,727,cs),
(230,727,o),
(175,668,o),
(151,625,c),
(189,622,l),
(93,721,l),
(24,653,l),
(196,476,l),
(264,544,l),
(207,603,l),
(214,543,l),
(228,584,o),
(269,623,o),
(309,623,cs),
(342,623,o),
(359,606,o),
(359,580,cs),
(359,554,o),
(333,527,o),
(316,512,cs),
(134,348,l),
(93,313,o),
(49,260,o),
(49,194,cs),
(49,84,o),
(134,-13,o),
(281,-13,cs)
);
}
);
width = 527;
},
{
layerId = "F6727EBE-EF21-4659-9B68-88D73F70C0AC";
name = Medium;
shapes = (
{
closed = 1;
nodes = (
(401,-11,o),
(476,78,o),
(505,146,c),
(406,167,l),
(395,141,o),
(353,79,o),
(278,79,cs),
(203,79,o),
(159,130,o),
(159,194,cs),
(159,228,o),
(186,257,o),
(216,286,cs),
(377,439,ls),
(401,463,o),
(470,528,o),
(470,593,cs),
(470,676,o),
(409,726,o),
(313,726,cs),
(223,726,o),
(172,662,o),
(151,625,c),
(181,624,l),
(89,720,l),
(28,661,l),
(197,487,l),
(257,546,l),
(202,602,l),
(211,555,l),
(219,591,o),
(262,637,o),
(307,637,cs),
(343,637,o),
(362,618,o),
(362,590,cs),
(362,559,o),
(322,521,o),
(302,503,cs),
(128,338,l),
(99,312,o),
(50,260,o),
(50,194,cs),
(50,84,o),
(132,-11,o),
(276,-11,cs)
);
}
);
width = 520;
},
{
layerId = "E4FE3E4B-A1D2-4027-8FE1-69C95666C91A";
associatedMasterId = "DE23B2BA-64D1-45BF-8121-66FD42616F3E";
name = Layer4;
width = 600;
},
{
background = {
shapes = (
{
closed = 1;
nodes = (
(403,-10,o),
(474,91,o),
(495,140,c),
(410,158,l),
(405,142,o),
(358,65,o),
(272,65,cs),
(186,65,o),
(140,125,o),
(140,195,cs),
(140,231,o),
(172,260,o),
(198,286,cs),
(351,440,ls),
(369,459,o),
(453,533,o),
(453,599,cs),
(453,680,o),
(397,725,o),
(305,725,cs),
(216,725,o),
(170,657,o),
(151,626,c),
(173,626,l),
(85,719,l),
(32,668,l),
(198,496,l),
(251,547,l),
(198,601,l),
(208,566,l),
(211,597,o),
(256,650,o),
(305,650,cs),
(344,650,o),
(365,628,o),
(365,599,cs),
(365,564,o),
(313,516,o),
(290,494,cs),
(123,329,ls),
(104,311,o),
(51,260,o),
(51,195,cs),
(51,84,o),
(130,-10,o),
(272,-10,cs)
);
}
);
};
layerId = "DE23B2BA-64D1-45BF-8121-66FD42616F3E";
name = Regular;
shapes = (
{
closed = 1;
nodes = (
(403,-10,o),
(474,91,o),
(495,140,c),
(410,158,l),
(405,142,o),
(358,65,o),
(272,65,cs),
(186,65,o),
(140,125,o),
(140,195,cs),
(140,231,o),
(172,260,o),
(198,286,cs),
(351,440,ls),
(369,459,o),
(453,533,o),
(453,599,cs),
(453,680,o),
(397,725,o),
(305,725,cs),
(216,725,o),
(170,657,o),
(151,626,c),
(173,626,l),
(85,719,l),
(32,668,l),
(198,496,l),
(251,547,l),
(198,601,l),
(208,566,l),
(211,597,o),
(256,650,o),
(305,650,cs),
(344,650,o),
(365,628,o),
(365,599,cs),
(365,564,o),
(313,516,o),
(290,494,cs),
(123,329,ls),
(104,311,o),
(51,260,o),
(51,195,cs),
(51,84,o),
(130,-10,o),
(272,-10,cs)
);
}
);
width = 514;
}
);
unicode = 7255;
},
{
color = 10;
glyphname = uni1C58;
layers = (
{
layerId = "A2F8418F-339B-4F91-B830-CE586139F48E";
name = "#instance";
shapes = (
{
closed = 1;
nodes = (
(580,-10,o),
(620,160,o),
(621,202,c),
(528,202,l),
(524,143,o),
(481,65,o),
(341,65,cs),
(202,65,o),
(146,115,o),
(146,202,cs),
(146,295,l),
(122,224,l),
(373,548,l),
(335,534,l),
(369,492,o),
(435,420,o),
(502,420,cs),
(614,420,o),
(652,510,o),
(652,572,cs),
(652,633,o),
(627,725,o),
(509,725,cs),
(433,725,o),
(399,683,o),
(329,603,c),
(384,603,l),
(366,619,ls),
(336,645,o),
(272,726,o),
(202,726,c),
(73,725,o),
(60,616,o),
(60,569,cs),
(60,194,ls),
(60,104,o),
(107,-10,o),
(341,-10,cs)
);
},
{
closed = 1;
nodes = (
(146,582,ls),
(146,603,o),
(157,647,o),
(198,647,cs),
(228,647,o),
(303,569,o),
(313,559,cs),
(324,548,l),
(313,581,l),
(121,341,l),
(146,332,l)
);
},
{
closed = 1;
nodes = (
(462,491,o),
(394,580,o),
(394,576,c),
(384,556,l),
(416,581,o),
(450,654,o),
(508,654,cs),
(550,654,o),
(572,613,o),
(572,572,cs),
(572,532,o),
(546,491,o),
(502,491,cs)
);
}
);
width = 668;
},
{
layerId = "ACD25A51-58A7-4B66-A441-8732CBCAEF4D";
associatedMasterId = "B142495F-E341-49EC-94FB-15D38175E9C1";
name = "Oct 4 19, 13:25";
shapes = (
{
closed = 1;
nodes = (
(9,220,ls),
(9,79,o),
(129,-15,o),
(310,-15,cs),
(491,-15,o),
(590,67,o),
(600,222,c),
(452,222,l),
(449,146,o),
(390,111,o),
(310,111,cs),
(224,111,o),
(167,156,o),
(167,222,cs),
(167,578,ls),
(167,598,o),
(172,611,o),
(186,611,c),
(168,731,l),
(97,731,o),
(9,673,o),
(9,548,cs)
);
},
{
closed = 1;
nodes = (
(430,729,o),
(385,691,o),
(338,635,cs),
(100,350,l),
(121,203,l),
(407,550,ls),
(424,570,o),
(443,606,o),
(477,606,cs),
(501,606,o),
(519,588,o),
(519,556,cs),
(519,524,o),
(501,502,o),
(477,502,cs),
(450,502,o),
(422,530,o),
(402,554,cs),
(317,657,ls),
(271,713,o),
(236,731,o),
(168,731,c),
(186,611,l),
(197,611,o),
(204,604,o),
(217,589,cs),
(333,460,ls),
(355,435,o),
(411,382,o),
(491,382,cs),
(569,382,o),
(652,444,o),
(652,560,cs),
(652,673,o),
(573,729,o),
(492,729,cs)
);
}
);
width = 600;
},
{
layerId = "B142495F-E341-49EC-94FB-15D38175E9C1";
shapes = (
{
closed = 1;
nodes = (
(542,-15,o),
(642,73,o),
(652,222,c),
(504,222,l),
(501,152,o),
(441,111,o),
(352,111,cs),
(266,111,o),
(199,156,o),
(199,222,cs),
(199,304,l),
(168,227,l),
(392,495,l),
(359,470,l),
(406,417,o),
(454,382,o),
(520,382,cs),
(611,382,o),
(684,454,o),
(684,560,cs),
(684,659,o),
(618,729,o),
(524,729,cs),
(462,729,o),
(423,696,o),
(345,600,c),
(401,599,l),
(341,666,ls),
(301,711,o),
(267,731,o),
(200,731,cs),
(110,731,o),
(47,651,o),
(47,548,cs),
(47,220,ls),
(47,79,o),
(161,-15,o),
(352,-15,cs)
);
},
{
closed = 1;
nodes = (
(199,571,ls),
(199,593,o),
(205,604,o),
(218,604,cs),
(228,604,o),
(232,599,o),
(249,582,cs),
(324,507,l),
(326,575,l),
(175,396,l),
(199,385,l)
);
},
{
closed = 1;
nodes = (
(485,502,o),
(459,529,o),
(435,557,c),
(434,545,l),
(466,585,o),
(485,606,o),
(509,606,cs),
(534,606,o),
(551,586,o),
(551,556,cs),
(551,525,o),
(533,502,o),
(509,502,cs)
);
}
);
width = 697;
},
{
layerId = "B4679C4A-7B1E-46C8-BD55-32AE88BDC1C0";
name = Semibold;
shapes = (
{
closed = 1;
nodes = (
(556,-13,o),
(633,106,o),
(640,215,c),
(513,215,l),
(510,149,o),
(456,94,o),
(348,94,cs),
(242,94,o),
(179,140,o),
(179,215,cs),
(179,301,l),
(151,226,l),
(385,515,l),
(350,494,l),
(392,445,o),
(447,396,o),
(513,396,cs),
(612,396,o),
(672,475,o),
(672,564,cs),
(672,649,o),
(621,727,o),
(518,727,cs),
(451,727,o),
(414,691,o),
(339,601,c),
(395,601,l),
(351,648,ls),
(314,686,o),
(269,729,o),
(201,729,cs),
(96,729,o),
(52,638,o),
(52,556,cs),
(52,210,ls),
(52,89,o),
(141,-13,o),
(348,-13,cs)
);
},
{
closed = 1;
nodes = (
(179,575,ls),
(179,597,o),
(187,620,o),
(211,620,cs),
(228,620,o),
(259,588,o),
(273,573,c),
(324,523,l),
(321,577,l),
(155,375,l),
(179,365,l)
);
},
{
closed = 1;
nodes = (
(476,498,o),
(434,548,o),
(419,564,c),
(415,549,l),
(447,583,o),
(472,624,o),
(508,624,cs),
(540,624,o),
(559,596,o),
(559,562,cs),
(559,528,o),
(538,498,o),
(506,498,cs)
);
}
);
width = 686;
},
{
layerId = "F6727EBE-EF21-4659-9B68-88D73F70C0AC";
name = Medium;
shapes = (
{
closed = 1;
nodes = (
(569,-11,o),
(626,134,o),
(630,208,c),
(521,208,l),
(517,146,o),
(469,79,o),
(344,79,cs),
(221,79,o),
(162,127,o),
(162,208,cs),
(162,298,l),
(136,225,l),
(379,532,l),
(342,515,l),
(380,470,o),
(441,409,o),
(507,409,cs),
(613,409,o),
(661,493,o),
(661,568,cs),
(661,641,o),
(624,726,o),
(513,726,cs),
(442,726,o),
(406,687,o),
(334,602,c),
(389,602,l),
(359,633,l),
(326,664,o),
(271,727,o),
(201,727,cs),
(84,727,o),
(56,626,o),
(56,563,cs),
(56,202,ls),
(56,97,o),
(123,-11,o),
(344,-11,cs)
);
},
{
closed = 1;
nodes = (
(162,579,ls),
(162,600,o),
(171,634,o),
(204,634,cs),
(228,634,o),
(282,578,o),
(294,566,cs),
(324,536,l),
(317,579,l),
(137,357,l),
(162,348,l)
);
},
{
closed = 1;
nodes = (
(469,494,o),
(413,565,o),
(406,570,c),
(399,553,l),
(431,582,o),
(460,640,o),
(508,640,cs),
(545,640,o),
(566,605,o),
(566,567,cs),
(566,530,o),
(542,494,o),
(504,494,cs)
);
}
);
width = 677;
},
{
layerId = "1FAAF3F4-44C6-458E-B5CC-FDA944F6889A";
associatedMasterId = "DE23B2BA-64D1-45BF-8121-66FD42616F3E";
name = "Oct 4 19, 13:27";
shapes = (
{
closed = 1;
nodes = (
(580,-10,o),
(620,160,o),
(621,202,c),
(528,202,l),
(524,143,o),
(481,65,o),
(341,65,cs),
(202,65,o),
(146,115,o),
(146,202,cs),
(146,295,l),
(122,224,l),
(373,548,l),
(335,534,l),
(369,492,o),
(435,420,o),
(502,420,cs),
(614,420,o),
(652,510,o),
(652,572,cs),
(652,633,o),
(627,725,o),
(509,725,cs),
(433,725,o),
(399,683,o),
(329,603,c),
(384,603,l),
(366,619,ls),
(336,645,o),
(272,726,o),
(202,726,cs),
(73,725,o),
(60,616,o),
(60,569,cs),
(60,194,ls),
(60,104,o),
(107,-10,o),
(341,-10,cs)
);
},
{
closed = 1;
nodes = (
(146,582,ls),
(146,603,o),
(157,647,o),
(198,647,cs),
(228,647,o),
(303,569,o),
(313,559,c),
(325,549,l),
(313,581,l),
(121,341,l),
(146,332,l)
);
},
{
closed = 1;
nodes = (
(462,491,o),
(394,580,o),
(394,576,c),
(384,556,l),
(416,581,o),
(450,654,o),
(508,654,cs),
(550,654,o),
(572,613,o),
(572,572,cs),
(572,532,o),
(546,491,o),
(502,491,cs)
);
}
);
width = 668;
},
{
layerId = "2158AEF6-410E-4D6B-A6DF-0BF8AE5F194A";
associatedMasterId = "DE23B2BA-64D1-45BF-8121-66FD42616F3E";
name = Layer5;
width = 600;
},
{
background = {
shapes = (
{
closed = 1;
nodes = (
(580,-10,o),
(620,160,o),
(621,202,c),
(528,202,l),
(524,143,o),
(481,65,o),
(341,65,cs),
(202,65,o),
(146,115,o),
(146,202,cs),
(146,295,l),
(122,224,l),
(373,548,l),
(335,534,l),
(369,492,o),
(435,420,o),
(502,420,cs),
(614,420,o),
(652,510,o),
(652,572,cs),
(652,633,o),
(627,725,o),
(509,725,cs),
(433,725,o),
(399,683,o),
(329,603,c),
(384,603,l),
(366,619,ls),
(336,645,o),
(272,726,o),
(202,726,cs),
(73,725,o),
(60,616,o),
(60,569,cs),
(60,194,ls),
(60,104,o),
(107,-10,o),
(341,-10,cs)
);
},
{
closed = 1;
nodes = (
(146,582,ls),
(146,603,o),
(157,647,o),
(198,647,cs),
(228,647,o),
(303,569,o),
(313,559,cs),
(324,548,l),
(313,581,l),
(121,341,l),
(146,332,l)
);
},
{
closed = 1;
nodes = (
(462,491,o),
(394,580,o),
(394,576,c),
(384,556,l),
(416,581,o),
(450,654,o),
(508,654,cs),
(550,654,o),
(572,613,o),
(572,572,cs),
(572,532,o),
(546,491,o),
(502,491,cs)
);
}
);
};
layerId = "DE23B2BA-64D1-45BF-8121-66FD42616F3E";
name = Regular;
shapes = (
{
closed = 1;
nodes = (
(580,-10,o),
(620,160,o),
(621,202,c),
(528,202,l),
(524,143,o),
(481,65,o),
(341,65,cs),
(202,65,o),
(146,115,o),
(146,202,cs),
(146,295,l),
(122,224,l),
(373,548,l),
(335,534,l),
(369,492,o),
(435,420,o),
(502,420,cs),
(614,420,o),
(652,510,o),
(652,572,cs),
(652,633,o),
(627,725,o),
(509,725,cs),
(433,725,o),
(399,683,o),
(329,603,c),
(384,603,l),
(366,619,ls),
(336,645,o),
(272,726,o),
(202,726,cs),
(73,725,o),
(60,616,o),
(60,569,cs),
(60,194,ls),
(60,104,o),
(107,-10,o),
(341,-10,cs)
);
},
{
closed = 1;
nodes = (
(146,582,ls),
(146,603,o),
(157,647,o),
(198,647,cs),
(228,647,o),
(303,569,o),
(313,559,cs),
(324,548,l),
(313,581,l),
(121,341,l),
(146,332,l)
);
},
{
closed = 1;
nodes = (
(462,491,o),
(394,580,o),
(394,576,c),
(384,556,l),
(416,581,o),
(450,654,o),
(508,654,cs),
(550,654,o),
(572,613,o),
(572,572,cs),
(572,532,o),
(546,491,o),
(502,491,cs)
);
}
);
width = 668;
}
);
unicode = 7256;
},
{
color = 10;
glyphname = uni1C59;
layers = (
{
layerId = "A2F8418F-339B-4F91-B830-CE586139F48E";
name = "#instance";
shapes = (
{
closed = 1;
nodes = (
(512,204,l),
(406,204,o),
(346,250,o),
(346,314,cs),
(346,352,o),
(370,401,o),
(425,401,cs),
(503,401,o),
(518,317,o),
(518,285,cs),
(518,169,o),
(459,65,o),
(333,65,cs),
(218,65,o),
(138,174,o),
(138,334,cs),
(138,513,o),
(262,625,o),
(373,646,c),
(354,725,l),
(280,708,o),
(49,613,o),
(49,334,cs),
(49,133,o),
(160,-10,o),
(333,-10,cs),
(525,-10,o),
(596,160,o),
(596,280,cs),
(596,389,o),
(528,469,o),
(425,469,cs),
(342,469,o),
(272,400,o),
(272,313,cs),
(272,178,o),
(398,143,o),
(485,143,c)
);
}
);
width = 632;
},
{
layerId = "B142495F-E341-49EC-94FB-15D38175E9C1";
shapes = (
{
closed = 1;
nodes = (
(500,239,l),
(428,244,o),
(379,267,o),
(379,308,cs),
(379,335,o),
(394,357,o),
(428,357,cs),
(459,357,o),
(491,332,o),
(491,272,cs),
(491,168,o),
(427,111,o),
(351,111,cs),
(268,111,o),
(195,183,o),
(195,319,cs),
(195,459,o),
(274,545,o),
(395,598,c),
(343,729,l),
(141,653,o),
(36,497,o),
(36,309,cs),
(36,131,o),
(149,-15,o),
(351,-15,cs),
(500,-15,o),
(623,99,o),
(623,250,cs),
(623,392,o),
(542,471,o),
(428,471,cs),
(335,471,o),
(250,410,o),
(250,308,cs),
(250,217,o),
(331,151,o),
(459,143,c)
);
}
);
width = 646;
},
{
layerId = "B4679C4A-7B1E-46C8-BD55-32AE88BDC1C0";
name = Semibold;
shapes = (
{
closed = 1;
nodes = (
(504,226,l),
(419,229,o),
(367,261,o),
(367,310,cs),
(367,341,o),
(385,374,o),
(427,374,cs),
(476,374,o),
(501,326,o),
(501,277,cs),
(501,169,o),
(439,94,o),
(344,94,cs),
(249,94,o),
(174,180,o),
(174,325,cs),
(174,479,o),
(270,575,o),
(386,616,c),
(347,727,l),
(193,674,o),
(41,541,o),
(41,319,cs),
(41,132,o),
(153,-13,o),
(344,-13,cs),
(510,-13,o),
(613,122,o),
(613,261,cs),
(613,391,o),
(537,470,o),
(427,470,cs),
(338,470,o),
(259,406,o),
(259,310,cs),
(259,203,o),
(356,148,o),
(469,143,c)
);
}
);
width = 641;
},
{
layerId = "F6727EBE-EF21-4659-9B68-88D73F70C0AC";
name = Medium;
shapes = (
{
closed = 1;
nodes = (
(508,214,l),
(412,216,o),
(356,255,o),
(356,312,cs),
(356,347,o),
(377,388,o),
(426,388,cs),
(490,388,o),
(510,321,o),
(510,281,cs),
(510,169,o),
(450,79,o),
(338,79,cs),
(233,79,o),
(155,177,o),
(155,330,cs),
(155,497,o),
(266,601,o),
(379,632,c),
(351,726,l),
(239,692,o),
(45,579,o),
(45,327,cs),
(45,132,o),
(157,-11,o),
(338,-11,cs),
(518,-11,o),
(604,142,o),
(604,271,cs),
(604,390,o),
(532,470,o),
(426,470,cs),
(340,470,o),
(266,403,o),
(266,312,cs),
(266,190,o),
(378,145,o),
(477,143,c)
);
}
);
width = 636;
},
{
layerId = "7BD4264A-ECB5-4DE2-9087-598F466789B1";
associatedMasterId = "DE23B2BA-64D1-45BF-8121-66FD42616F3E";
name = "Oct 8 19, 15:58";
shapes = (
{
closed = 1;
nodes = (
(525,-10,o),
(596,160,o),
(596,280,cs),
(596,389,o),
(528,469,o),
(425,469,cs),
(342,469,o),
(272,400,o),
(272,313,cs),
(272,169,o),
(417,143,o),
(477,143,c),
(468,122,o),
(427,65,o),
(333,65,cs),
(218,65,o),
(138,174,o),
(138,334,cs),
(138,513,o),
(262,625,o),
(373,646,c),
(354,725,l),
(280,708,o),
(49,613,o),
(49,334,cs),
(49,133,o),
(160,-10,o),
(333,-10,cs)
);
},
{
closed = 1;
nodes = (
(411,204,o),
(346,248,o),
(346,314,cs),
(346,352,o),
(370,401,o),
(425,401,cs),
(503,401,o),
(518,317,o),
(518,285,cs),
(518,239,o),
(509,213,o),
(506,204,c)
);
}
);
width = 632;
},
{
layerId = "E4FE3E4B-A1D2-4027-8FE1-69C95666C91A";
associatedMasterId = "DE23B2BA-64D1-45BF-8121-66FD42616F3E";
name = Layer4;
width = 600;
},
{
background = {
shapes = (
{
closed = 1;
nodes = (
(512,204,l),
(406,204,o),
(346,250,o),
(346,314,cs),
(346,352,o),
(370,401,o),
(425,401,cs),
(503,401,o),
(518,317,o),
(518,285,cs),
(518,169,o),
(459,65,o),
(333,65,cs),
(218,65,o),
(138,174,o),
(138,334,cs),
(138,513,o),
(262,625,o),
(373,646,c),
(354,725,l),
(280,708,o),
(49,613,o),
(49,334,cs),
(49,133,o),
(160,-10,o),
(333,-10,cs),
(525,-10,o),
(596,160,o),
(596,280,cs),
(596,389,o),
(528,469,o),
(425,469,cs),
(342,469,o),
(272,400,o),
(272,313,cs),
(272,178,o),
(398,143,o),
(485,143,c)
);
}
);
};
layerId = "DE23B2BA-64D1-45BF-8121-66FD42616F3E";
name = Regular;
shapes = (
{
closed = 1;
nodes = (
(512,204,l),
(406,204,o),
(346,250,o),
(346,314,cs),
(346,352,o),
(370,401,o),
(425,401,cs),
(503,401,o),
(518,317,o),
(518,285,cs),
(518,169,o),
(459,65,o),
(333,65,cs),
(218,65,o),
(138,174,o),
(138,334,cs),
(138,513,o),
(262,625,o),
(373,646,c),
(354,725,l),
(280,708,o),
(49,613,o),
(49,334,cs),
(49,133,o),
(160,-10,o),
(333,-10,cs),
(525,-10,o),
(596,160,o),
(596,280,cs),
(596,389,o),
(528,469,o),
(425,469,cs),
(342,469,o),
(272,400,o),
(272,313,cs),
(272,178,o),
(398,143,o),
(485,143,c)
);
}
);
width = 632;
}
);
unicode = 7257;
},
{
color = 10;
glyphname = uni1C5A;
layers = (
{
layerId = "A2F8418F-339B-4F91-B830-CE586139F48E";
name = "#instance";
shapes = (
{
closed = 1;
nodes = (
(518,-10,o),
(601,158,o),
(601,325,cs),
(601,570,o),
(478,725,o),
(258,725,cs),
(118,725,o),
(53,679,o),
(53,640,cs),
(53,619,o),
(64,599,o),
(82,572,cs),
(155,462,l),
(173,495,l),
(47,495,l),
(47,419,l),
(161,419,ls),
(204,419,o),
(223,442,o),
(223,473,cs),
(223,490,o),
(217,512,o),
(205,531,cs),
(119,662,l),
(120,619,l),
(160,640,o),
(193,650,o),
(258,650,cs),
(323,650,o),
(380,628,o),
(408,599,c),
(417,643,l),
(69,196,l),
(69,98,o),
(165,-10,o),
(319,-10,cs)
);
},
{
closed = 1;
nodes = (
(233,65,o),
(174,114,o),
(141,183,c),
(129,143,l),
(471,584,l),
(443,555,l),
(450,558,o),
(513,457,o),
(513,325,cs),
(513,224,o),
(462,65,o),
(316,65,cs)
);
}
);
width = 649;
},
{
layerId = "009796B8-5C57-4BA9-B4FB-786750BA0C2D";
associatedMasterId = "B142495F-E341-49EC-94FB-15D38175E9C1";
name = "Oct 5 19, 15:54";
shapes = (
{
closed = 1;
nodes = (
(311,-15,l),
(538,-15,o),
(658,129,o),
(658,320,cs),
(658,590,o),
(495,729,o),
(236,729,c),
(236,611,l),
(371,611,o),
(524,505,o),
(524,320,cs),
(524,209,o),
(454,111,o),
(311,111,c)
);
},
{
closed = 1;
nodes = (
(236,729,l),
(154,729,o),
(111,708,o),
(76,686,c),
(128,502,l),
(161,534,l),
(50,534,l),
(70,424,l),
(178,424,ls),
(218,424,o),
(248,440,o),
(248,484,cs),
(248,496,o),
(247,509,o),
(242,524,cs),
(202,654,l),
(170,588,l),
(193,604,o),
(218,611,o),
(236,611,c)
);
},
{
closed = 1;
nodes = (
(397,596,l),
(72,192,l),
(72,67,o),
(175,-15,o),
(311,-15,c),
(311,111,l),
(255,111,o),
(206,159,o),
(198,192,c),
(188,137,l),
(480,516,l)
);
}
);
width = 600;
},
{
layerId = "B142495F-E341-49EC-94FB-15D38175E9C1";
shapes = (
{
closed = 1;
nodes = (
(505,-15,o),
(629,120,o),
(629,320,cs),
(629,572,o),
(479,729,o),
(238,729,cs),
(117,729,o),
(44,692,o),
(44,641,cs),
(44,625,o),
(48,609,o),
(58,589,cs),
(112,481,l),
(145,524,l),
(35,524,l),
(35,414,l),
(169,414,ls),
(215,414,o),
(237,440,o),
(237,474,cs),
(237,487,o),
(234,503,o),
(221,530,cs),
(164,652,l),
(169,593,l),
(181,598,o),
(206,603,o),
(237,603,cs),
(287,603,o),
(339,586,o),
(382,554,c),
(395,608,l),
(53,192,l),
(53,66,o),
(187,-15,o),
(316,-15,cs)
);
},
{
closed = 1;
nodes = (
(245,111,o),
(196,144,o),
(184,186,c),
(171,130,l),
(488,528,l),
(420,520,l),
(452,476,o),
(469,421,o),
(469,320,cs),
(469,186,o),
(405,111,o),
(316,111,cs)
);
}
);
width = 664;
},
{
layerId = "B4679C4A-7B1E-46C8-BD55-32AE88BDC1C0";
name = Semibold;
shapes = (
{
closed = 1;
nodes = (
(510,-13,o),
(618,134,o),
(618,322,cs),
(618,571,o),
(478,727,o),
(245,727,cs),
(118,727,o),
(47,687,o),
(47,640,cs),
(47,623,o),
(54,605,o),
(67,583,cs),
(128,474,l),
(156,513,l),
(39,513,l),
(39,416,l),
(166,416,ls),
(211,416,o),
(232,441,o),
(232,473,cs),
(232,488,o),
(228,506,o),
(215,531,cs),
(147,656,l),
(150,603,l),
(173,614,o),
(201,621,o),
(245,621,cs),
(300,621,o),
(355,602,o),
(392,571,c),
(404,621,l),
(59,194,l),
(59,78,o),
(178,-13,o),
(317,-13,cs)
);
},
{
closed = 1;
nodes = (
(241,94,o),
(187,133,o),
(168,185,c),
(155,135,l),
(482,549,l),
(429,533,l),
(451,507,o),
(486,434,o),
(486,322,cs),
(486,200,o),
(426,94,o),
(316,94,cs)
);
}
);
width = 658;
},
{
layerId = "F6727EBE-EF21-4659-9B68-88D73F70C0AC";
name = Medium;
shapes = (
{
closed = 1;
nodes = (
(514,-11,o),
(609,147,o),
(609,324,cs),
(609,571,o),
(478,726,o),
(252,726,cs),
(118,726,o),
(50,683,o),
(50,640,cs),
(50,621,o),
(59,602,o),
(75,577,cs),
(142,468,l),
(165,504,l),
(43,504,l),
(43,418,l),
(163,418,ls),
(207,418,o),
(227,441,o),
(227,473,cs),
(227,489,o),
(222,509,o),
(210,531,c),
(132,659,l),
(134,611,l),
(166,628,o),
(197,636,o),
(252,636,cs),
(312,636,o),
(368,616,o),
(400,586,c),
(411,633,l),
(64,195,l),
(64,89,o),
(171,-11,o),
(318,-11,cs)
);
},
{
closed = 1;
nodes = (
(237,79,o),
(180,123,o),
(154,184,c),
(141,139,l),
(476,567,l),
(436,545,l),
(451,534,o),
(500,446,o),
(500,324,cs),
(500,213,o),
(445,79,o),
(316,79,cs)
);
}
);
width = 653;
},
{
layerId = "2B56B4E7-4E88-4CEA-9DAD-A71D3AB9C503";
associatedMasterId = "DE23B2BA-64D1-45BF-8121-66FD42616F3E";
name = "Oct 5 19, 15:55";
shapes = (
{
closed = 1;
nodes = (
(518,-10,o),
(601,158,o),
(601,325,cs),
(601,570,o),
(478,725,o),
(258,725,cs),
(118,725,o),
(53,679,o),
(53,640,cs),
(53,619,o),
(64,599,o),
(82,572,cs),
(133,495,l),
(47,495,l),
(47,419,l),
(161,419,ls),
(204,419,o),
(223,442,o),
(223,473,cs),
(223,490,o),
(217,512,o),
(205,531,cs),
(141,629,l),
(144,631,o),
(182,650,o),
(258,650,cs),
(334,650,o),
(386,619,o),
(393,612,c),
(69,196,l),
(69,98,o),
(165,-10,o),
(319,-10,cs)
);
},
{
closed = 1;
nodes = (
(213,65,o),
(155,144,o),
(153,174,c),
(447,553,l),
(462,538,o),
(513,444,o),
(513,325,cs),
(513,224,o),
(462,65,o),
(316,65,cs)
);
}
);
width = 649;
},
{
layerId = "2158AEF6-410E-4D6B-A6DF-0BF8AE5F194A";
associatedMasterId = "DE23B2BA-64D1-45BF-8121-66FD42616F3E";
name = Layer5;
width = 600;
},
{
background = {
shapes = (
{
closed = 1;
nodes = (
(518,-10,o),
(601,158,o),
(601,325,cs),
(601,570,o),
(478,725,o),
(258,725,cs),
(118,725,o),
(53,679,o),
(53,640,cs),
(53,619,o),
(64,599,o),
(82,572,cs),
(155,462,l),
(173,495,l),
(47,495,l),
(47,419,l),
(161,419,ls),
(204,419,o),
(223,442,o),
(223,473,cs),
(223,490,o),
(217,512,o),
(205,531,cs),
(119,662,l),
(120,619,l),
(160,640,o),
(193,650,o),
(258,650,cs),
(323,650,o),
(380,628,o),
(408,599,c),
(417,643,l),
(69,196,l),
(69,98,o),
(165,-10,o),
(319,-10,cs)
);
},
{
closed = 1;
nodes = (
(233,65,o),
(174,114,o),
(141,183,c),
(129,143,l),
(471,584,l),
(443,555,l),
(450,558,o),
(513,457,o),
(513,325,cs),
(513,224,o),
(462,65,o),
(316,65,cs)
);
}
);
};
layerId = "DE23B2BA-64D1-45BF-8121-66FD42616F3E";
name = Regular;
shapes = (
{
closed = 1;
nodes = (
(518,-10,o),
(601,158,o),
(601,325,cs),
(601,570,o),
(478,725,o),
(258,725,cs),
(118,725,o),
(53,679,o),
(53,640,cs),
(53,619,o),
(64,599,o),
(82,572,cs),
(155,462,l),
(173,495,l),
(47,495,l),
(47,419,l),
(161,419,ls),
(204,419,o),
(223,442,o),
(223,473,cs),
(223,490,o),
(217,512,o),
(205,531,cs),
(119,662,l),
(120,619,l),
(160,640,o),
(193,650,o),
(258,650,cs),
(323,650,o),
(380,628,o),
(408,599,c),
(417,643,l),
(69,196,l),
(69,98,o),
(165,-10,o),
(319,-10,cs)
);
},
{
closed = 1;
nodes = (
(233,65,o),
(174,114,o),
(141,183,c),
(129,143,l),
(471,584,l),
(443,555,l),
(450,558,o),
(513,457,o),
(513,325,cs),
(513,224,o),
(462,65,o),
(316,65,cs)
);
}
);
width = 649;
}
);
unicode = 7258;
},
{
glyphname = uni1C5B;
layers = (
{
layerId = "A2F8418F-339B-4F91-B830-CE586139F48E";
name = "#instance";
shapes = (
{
closed = 1;
nodes = (
(606,-10,o),
(720,137,o),
(720,358,cs),
(720,580,o),
(606,725,o),
(392,725,cs),
(168,725,o),
(61,578,o),
(61,359,cs),
(61,138,o),
(168,-10,o),
(391,-10,cs)
);
},
{
closed = 1;
nodes = (
(230,68,o),
(156,178,o),
(156,358,cs),
(156,538,o),
(230,646,o),
(392,646,cs),
(553,646,o),
(625,538,o),
(625,358,cs),
(625,178,o),
(553,68,o),
(391,68,cs)
);
}
);
width = 781;
},
{
layerId = "B142495F-E341-49EC-94FB-15D38175E9C1";
shapes = (
{
closed = 1;
nodes = (
(621,-10,o),
(728,137,o),
(728,358,cs),
(728,580,o),
(621,725,o),
(389,725,cs),
(155,725,o),
(48,580,o),
(48,359,cs),
(48,137,o),
(155,-10,o),
(388,-10,cs)
);
},
{
closed = 1;
nodes = (
(261,117,o),
(207,208,o),
(207,358,cs),
(207,508,o),
(261,599,o),
(389,599,cs),
(517,599,o),
(569,508,o),
(569,358,cs),
(569,208,o),
(517,117,o),
(388,117,cs)
);
}
);
width = 776;
},
{
layerId = "B4679C4A-7B1E-46C8-BD55-32AE88BDC1C0";
name = Semibold;
shapes = (
{
closed = 1;
nodes = (
(615,-10,o),
(725,137,o),
(725,358,cs),
(725,580,o),
(615,725,o),
(390,725,cs),
(160,725,o),
(53,579,o),
(53,359,cs),
(53,138,o),
(160,-10,o),
(389,-10,cs)
);
},
{
closed = 1;
nodes = (
(249,98,o),
(188,197,o),
(188,358,cs),
(188,519,o),
(249,617,o),
(390,617,cs),
(530,617,o),
(590,519,o),
(590,358,cs),
(590,197,o),
(530,98,o),
(389,98,cs)
);
}
);
width = 778;
},
{
layerId = "F6727EBE-EF21-4659-9B68-88D73F70C0AC";
name = Medium;
shapes = (
{
closed = 1;
nodes = (
(610,-10,o),
(722,137,o),
(722,358,cs),
(722,580,o),
(610,725,o),
(391,725,cs),
(164,725,o),
(57,579,o),
(57,359,cs),
(57,138,o),
(164,-10,o),
(390,-10,cs)
);
},
{
closed = 1;
nodes = (
(239,82,o),
(171,187,o),
(171,358,cs),
(171,529,o),
(239,632,o),
(391,632,cs),
(542,632,o),
(608,529,o),
(608,358,cs),
(608,187,o),
(542,82,o),
(390,82,cs)
);
}
);
width = 780;
},
{
layerId = "817F4B86-DD93-4C28-949A-BA0EB0B6E07F";
associatedMasterId = "DE23B2BA-64D1-45BF-8121-66FD42616F3E";
name = Layer3;
width = 600;
},
{
background = {
shapes = (
{
closed = 1;
nodes = (
(606,-10,o),
(720,137,o),
(720,358,cs),
(720,580,o),
(606,725,o),
(392,725,cs),
(168,725,o),
(61,578,o),
(61,359,cs),
(61,138,o),
(168,-10,o),
(391,-10,cs)
);
},
{
closed = 1;
nodes = (
(230,68,o),
(156,178,o),
(156,358,cs),
(156,538,o),
(230,646,o),
(392,646,cs),
(553,646,o),
(625,538,o),
(625,358,cs),
(625,178,o),
(553,68,o),
(391,68,cs)
);
}
);
};
layerId = "DE23B2BA-64D1-45BF-8121-66FD42616F3E";
name = Regular;
shapes = (
{
closed = 1;
nodes = (
(606,-10,o),
(720,137,o),
(720,358,cs),
(720,580,o),
(606,725,o),
(392,725,cs),
(168,725,o),
(61,578,o),
(61,359,cs),
(61,138,o),
(168,-10,o),
(391,-10,cs)
);
},
{
closed = 1;
nodes = (
(230,68,o),
(156,178,o),
(156,358,cs),
(156,538,o),
(230,646,o),
(392,646,cs),
(553,646,o),
(625,538,o),
(625,358,cs),
(625,178,o),
(553,68,o),
(391,68,cs)
);
}
);
width = 781;
}
);
unicode = 7259;
},
{
glyphname = uni1C5C;
layers = (
{
layerId = "A2F8418F-339B-4F91-B830-CE586139F48E";
name = "#instance";
shapes = (
{
closed = 1;
nodes = (
(535,-10,o),
(614,148,o),
(631,304,c),
(585,328,l),
(564,318,o),
(477,281,o),
(424,281,cs),
(379,281,o),
(341,307,o),
(341,362,cs),
(341,407,o),
(368,436,o),
(423,436,cs),
(609,436,l),
(609,512,l),
(436,512,ls),
(357,512,o),
(262,476,o),
(262,362,cs),
(262,285,o),
(323,210,o),
(412,210,cs),
(457,210,o),
(512,230,o),
(550,246,c),
(525,256,l),
(542,189,o),
(457,65,o),
(348,65,cs),
(193,65,o),
(137,214,o),
(137,357,cs),
(137,485,o),
(181,650,o),
(336,650,cs),
(428,650,o),
(472,568,o),
(475,556,c),
(564,577,l),
(549,635,o),
(465,725,o),
(333,725,cs),
(139,725,o),
(49,556,o),
(49,357,cs),
(49,148,o),
(154,-10,o),
(348,-10,cs)
);
}
);
width = 676;
},
{
layerId = "B142495F-E341-49EC-94FB-15D38175E9C1";
shapes = (
{
closed = 1;
nodes = (
(527,-15,o),
(662,85,o),
(681,314,c),
(623,348,l),
(569,316,o),
(522,293,o),
(470,293,cs),
(438,293,o),
(417,310,o),
(417,337,cs),
(417,368,o),
(438,381,o),
(463,381,cs),
(653,381,l),
(651,501,l),
(433,501,ls),
(349,501,o),
(267,453,o),
(267,339,cs),
(267,235,o),
(349,179,o),
(435,179,cs),
(485,179,o),
(513,196,o),
(536,219,c),
(531,243,l),
(511,152,o),
(453,111,o),
(373,111,cs),
(248,111,o),
(196,213,o),
(196,355,cs),
(196,501,o),
(257,603,o),
(355,603,cs),
(412,603,o),
(440,573,o),
(461,537,c),
(604,583,l),
(561,674,o),
(485,729,o),
(355,729,cs),
(186,729,o),
(36,584,o),
(36,355,cs),
(36,135,o),
(178,-15,o),
(369,-15,cs)
);
}
);
width = 698;
},
{
layerId = "B4679C4A-7B1E-46C8-BD55-32AE88BDC1C0";
name = Semibold;
shapes = (
{
closed = 1;
nodes = (
(530,-13,o),
(644,109,o),
(662,310,c),
(609,341,l),
(567,317,o),
(505,289,o),
(453,289,cs),
(416,289,o),
(388,309,o),
(388,347,cs),
(388,382,o),
(412,402,o),
(448,402,cs),
(636,402,l),
(635,505,l),
(434,505,ls),
(352,505,o),
(265,462,o),
(265,348,cs),
(265,254,o),
(339,191,o),
(426,191,cs),
(474,191,o),
(512,209,o),
(541,229,c),
(529,248,l),
(523,166,o),
(455,94,o),
(363,94,cs),
(227,94,o),
(174,214,o),
(174,356,cs),
(174,495,o),
(228,621,o),
(348,621,cs),
(418,621,o),
(452,571,o),
(466,544,c),
(589,581,l),
(557,660,o),
(478,727,o),
(346,727,cs),
(168,727,o),
(41,573,o),
(41,356,cs),
(41,140,o),
(169,-13,o),
(361,-13,cs)
);
}
);
width = 690;
},
{
layerId = "F6727EBE-EF21-4659-9B68-88D73F70C0AC";
name = Medium;
shapes = (
{
closed = 1;
nodes = (
(533,-11,o),
(628,129,o),
(646,307,c),
(596,334,l),
(565,317,o),
(490,285,o),
(438,285,cs),
(396,285,o),
(363,308,o),
(363,355,cs),
(363,395,o),
(389,420,o),
(435,420,cs),
(622,420,l),
(621,509,l),
(435,509,ls),
(355,509,o),
(263,469,o),
(263,355,cs),
(263,270,o),
(331,201,o),
(419,201,cs),
(465,201,o),
(512,220,o),
(546,238,c),
(527,252,l),
(533,178,o),
(456,79,o),
(355,79,cs),
(209,79,o),
(154,214,o),
(154,356,cs),
(154,490,o),
(203,636,o),
(342,636,cs),
(423,636,o),
(463,569,o),
(471,550,c),
(576,579,l),
(553,647,o),
(471,726,o),
(339,726,cs),
(153,726,o),
(45,564,o),
(45,356,cs),
(45,144,o),
(161,-11,o),
(354,-11,cs)
);
}
);
width = 682;
},
{
layerId = "179514F4-3214-4142-A777-C06B62C0DBB4";
associatedMasterId = "DE23B2BA-64D1-45BF-8121-66FD42616F3E";
name = "Oct 5 19, 18:41";
shapes = (
{
closed = 1;
nodes = (
(535,-10,o),
(614,148,o),
(631,304,c),
(585,328,l),
(564,318,o),
(477,281,o),
(424,281,cs),
(379,281,o),
(341,307,o),
(341,362,cs),
(341,407,o),
(368,436,o),
(423,436,cs),
(609,436,l),
(609,512,l),
(436,512,ls),
(357,512,o),
(262,476,o),
(262,362,cs),
(262,285,o),
(323,210,o),
(412,210,cs),
(455,210,o),
(511,230,o),
(527,237,c),
(527,168,o),
(447,65,o),
(348,65,cs),
(193,65,o),
(137,214,o),
(137,357,cs),
(137,485,o),
(181,650,o),
(336,650,cs),
(428,650,o),
(472,568,o),
(475,556,c),
(564,577,l),
(549,635,o),
(465,725,o),
(333,725,cs),
(139,725,o),
(49,556,o),
(49,357,cs),
(49,148,o),
(154,-10,o),
(348,-10,cs)
);
}
);
width = 676;
},
{
layerId = "E4FE3E4B-A1D2-4027-8FE1-69C95666C91A";
associatedMasterId = "DE23B2BA-64D1-45BF-8121-66FD42616F3E";
name = Layer4;
width = 600;
},
{
background = {
shapes = (
{
closed = 1;
nodes = (
(535,-10,o),
(614,148,o),
(631,304,c),
(585,328,l),
(564,318,o),
(477,281,o),
(424,281,cs),
(379,281,o),
(341,307,o),
(341,362,cs),
(341,407,o),
(368,436,o),
(423,436,cs),
(609,436,l),
(609,512,l),
(436,512,ls),
(357,512,o),
(262,476,o),
(262,362,cs),
(262,285,o),
(323,210,o),
(412,210,cs),
(457,210,o),
(512,230,o),
(550,246,c),
(525,256,l),
(542,189,o),
(457,65,o),
(348,65,cs),
(193,65,o),
(137,214,o),
(137,357,cs),
(137,485,o),
(181,650,o),
(336,650,cs),
(428,650,o),
(472,568,o),
(475,556,c),
(564,577,l),
(549,635,o),
(465,725,o),
(333,725,cs),
(139,725,o),
(49,556,o),
(49,357,cs),
(49,148,o),
(154,-10,o),
(348,-10,cs)
);
}
);
};
layerId = "DE23B2BA-64D1-45BF-8121-66FD42616F3E";
name = Regular;
shapes = (
{
closed = 1;
nodes = (
(535,-10,o),
(614,148,o),
(631,304,c),
(585,328,l),
(564,318,o),
(477,281,o),
(424,281,cs),
(379,281,o),
(341,307,o),
(341,362,cs),
(341,407,o),
(368,436,o),
(423,436,cs),
(609,436,l),
(609,512,l),
(436,512,ls),
(357,512,o),
(262,476,o),
(262,362,cs),
(262,285,o),
(323,210,o),
(412,210,cs),
(457,210,o),
(512,230,o),
(550,246,c),
(525,256,l),
(542,189,o),
(457,65,o),
(348,65,cs),
(193,65,o),
(137,214,o),
(137,357,cs),
(137,485,o),
(181,650,o),
(336,650,cs),
(428,650,o),
(472,568,o),
(475,556,c),
(564,577,l),
(549,635,o),
(465,725,o),
(333,725,cs),
(139,725,o),
(49,556,o),
(49,357,cs),
(49,148,o),
(154,-10,o),
(348,-10,cs)
);
}
);
width = 676;
}
);
unicode = 7260;
},
{
glyphname = uni1C5D;
layers = (
{
layerId = "A2F8418F-339B-4F91-B830-CE586139F48E";
name = "#instance";
shapes = (
{
closed = 1;
nodes = (
(463,-10,o),
(541,51,o),
(581,140,c),
(335,385,l),
(335,329,l),
(581,575,l),
(541,664,o),
(463,725,o),
(344,725,cs),
(173,725,o),
(70,603,o),
(49,430,c),
(138,430,l),
(155,547,o),
(215,650,o),
(344,650,cs),
(432,650,o),
(472,605,o),
(496,571,c),
(513,614,l),
(257,357,l),
(513,101,l),
(496,144,l),
(472,110,o),
(432,65,o),
(344,65,cs),
(215,65,o),
(155,168,o),
(138,285,c),
(49,285,l),
(70,112,o),
(173,-10,o),
(344,-10,cs)
);
},
{
closed = 1;
nodes = (
(632,318,l),
(632,387,l),
(446,387,l),
(446,318,l)
);
}
);
width = 672;
},
{
layerId = "77917D39-342A-4400-B51C-EEFE476B9638";
associatedMasterId = "B142495F-E341-49EC-94FB-15D38175E9C1";
name = "Oct 3 19, 16:49";
shapes = (
{
closed = 1;
nodes = (
(511,-13,o),
(602,64,o),
(647,185,c),
(458,391,l),
(458,325,l),
(647,531,l),
(602,652,o),
(511,729,o),
(370,729,cs),
(229,729,o),
(105,652,o),
(65,428,c),
(210,428,l),
(227,554,o),
(294,603,o),
(370,603,cs),
(437,603,o),
(477,562,o),
(494,509,c),
(514,569,l),
(314,358,l),
(514,147,l),
(494,207,l),
(477,154,o),
(437,113,o),
(370,113,cs),
(294,113,o),
(227,162,o),
(210,288,c),
(65,288,l),
(105,64,o),
(229,-13,o),
(370,-13,cs)
);
},
{
closed = 1;
nodes = (
(754,298,l),
(754,408,l),
(588,408,l),
(588,298,l)
);
}
);
width = 814;
},
{
layerId = "B142495F-E341-49EC-94FB-15D38175E9C1";
shapes = (
{
closed = 1;
nodes = (
(457,-13,o),
(542,58,o),
(600,172,c),
(373,391,l),
(372,325,l),
(595,544,l),
(537,658,o),
(452,729,o),
(331,729,cs),
(185,729,o),
(63,627,o),
(36,428,c),
(175,428,l),
(191,534,o),
(250,603,o),
(331,603,cs),
(389,603,o),
(427,577,o),
(453,523,c),
(455,569,l),
(238,358,l),
(460,147,l),
(458,193,l),
(432,139,o),
(394,113,o),
(336,113,cs),
(250,113,o),
(196,182,o),
(180,288,c),
(41,288,l),
(68,89,o),
(190,-13,o),
(336,-13,cs)
);
},
{
closed = 1;
nodes = (
(679,303,l),
(679,413,l),
(513,413,l),
(513,303,l)
);
}
);
width = 706;
},
{
layerId = "B4679C4A-7B1E-46C8-BD55-32AE88BDC1C0";
name = Semibold;
shapes = (
{
closed = 1;
nodes = (
(459,-12,o),
(541,55,o),
(593,160,c),
(359,389,l),
(358,327,l),
(590,556,l),
(539,660,o),
(456,727,o),
(336,727,cs),
(181,727,o),
(66,618,o),
(41,429,c),
(161,429,l),
(178,539,o),
(237,621,o),
(336,621,cs),
(405,621,o),
(444,588,o),
(469,541,c),
(477,586,l),
(245,357,l),
(480,130,l),
(472,174,l),
(447,128,o),
(408,95,o),
(339,95,cs),
(237,95,o),
(180,177,o),
(164,287,c),
(44,287,l),
(69,98,o),
(184,-12,o),
(339,-12,cs)
);
},
{
closed = 1;
nodes = (
(661,309,l),
(661,403,l),
(488,403,l),
(488,309,l)
);
}
);
width = 693;
},
{
layerId = "F6727EBE-EF21-4659-9B68-88D73F70C0AC";
name = Medium;
shapes = (
{
closed = 1;
nodes = (
(461,-11,o),
(541,53,o),
(587,149,c),
(346,387,l),
(346,328,l),
(585,566,l),
(540,662,o),
(460,726,o),
(340,726,cs),
(177,726,o),
(68,610,o),
(45,429,c),
(149,429,l),
(166,543,o),
(225,636,o),
(340,636,cs),
(419,636,o),
(459,597,o),
(483,557,c),
(496,601,l),
(251,357,l),
(497,115,l),
(485,158,l),
(460,119,o),
(421,79,o),
(342,79,cs),
(225,79,o),
(167,172,o),
(150,286,c),
(47,286,l),
(69,105,o),
(178,-11,o),
(342,-11,cs)
);
},
{
closed = 1;
nodes = (
(646,314,l),
(646,395,l),
(466,395,l),
(466,314,l)
);
}
);
width = 682;
},
{
layerId = "E4FE3E4B-A1D2-4027-8FE1-69C95666C91A";
associatedMasterId = "DE23B2BA-64D1-45BF-8121-66FD42616F3E";
name = Layer4;
width = 600;
},
{
background = {
shapes = (
{
closed = 1;
nodes = (
(463,-10,o),
(541,51,o),
(581,140,c),
(335,385,l),
(335,329,l),
(581,575,l),
(541,664,o),
(463,725,o),
(344,725,cs),
(173,725,o),
(70,603,o),
(49,430,c),
(138,430,l),
(155,547,o),
(215,650,o),
(344,650,cs),
(432,650,o),
(472,605,o),
(496,571,c),
(513,614,l),
(257,357,l),
(513,101,l),
(496,144,l),
(472,110,o),
(432,65,o),
(344,65,cs),
(215,65,o),
(155,168,o),
(138,285,c),
(49,285,l),
(70,112,o),
(173,-10,o),
(344,-10,cs)
);
},
{
closed = 1;
nodes = (
(632,318,l),
(632,387,l),
(446,387,l),
(446,318,l)
);
}
);
};
layerId = "DE23B2BA-64D1-45BF-8121-66FD42616F3E";
name = Regular;
shapes = (
{
closed = 1;
nodes = (
(463,-10,o),
(541,51,o),
(581,140,c),
(335,385,l),
(335,329,l),
(581,575,l),
(541,664,o),
(463,725,o),
(344,725,cs),
(173,725,o),
(70,603,o),
(49,430,c),
(138,430,l),
(155,547,o),
(215,650,o),
(344,650,cs),
(432,650,o),
(472,605,o),
(496,571,c),
(513,614,l),
(257,357,l),
(513,101,l),
(496,144,l),
(472,110,o),
(432,65,o),
(344,65,cs),
(215,65,o),
(155,168,o),
(138,285,c),
(49,285,l),
(70,112,o),
(173,-10,o),
(344,-10,cs)
);
},
{
closed = 1;
nodes = (
(632,318,l),
(632,387,l),
(446,387,l),
(446,318,l)
);
}
);
width = 672;
}
);
unicode = 7261;
},
{
glyphname = uni1C5E;
layers = (
{
layerId = "A2F8418F-339B-4F91-B830-CE586139F48E";
name = "#instance";
shapes = (
{
closed = 1;
nodes = (
(171,0,l),
(171,273,l),
(142,260,l),
(291,123,l),
(407,161,o),
(544,265,o),
(544,424,cs),
(544,583,o),
(407,687,o),
(291,725,c),
(142,587,l),
(171,574,l),
(171,714,l),
(85,714,l),
(85,0,l)
);
},
{
closed = 1;
nodes = (
(171,564,l),
(143,496,l),
(319,668,l),
(272,644,l),
(344,632,o),
(455,556,o),
(455,424,cs),
(455,292,o),
(344,217,o),
(272,203,c),
(320,181,l),
(142,350,l),
(171,283,l)
);
}
);
width = 584;
},
{
layerId = "1742BF37-D3AE-497C-BF63-591731E92AF7";
associatedMasterId = "B142495F-E341-49EC-94FB-15D38175E9C1";
name = "Oct 3 19, 15:04";
shapes = (
{
closed = 1;
nodes = (
(241,0,l),
(241,282,l),
(213,252,l),
(385,119,l),
(505,166,o),
(605,270,o),
(605,424,cs),
(605,578,o),
(505,682,o),
(385,729,c),
(213,596,l),
(241,566,l),
(241,714,l),
(90,714,l),
(90,0,l)
);
},
{
closed = 1;
nodes = (
(241,498,l),
(235,474,l),
(396,597,l),
(362,582,l),
(422,547,o),
(451,491,o),
(451,424,cs),
(451,357,o),
(422,301,o),
(362,266,c),
(396,251,l),
(235,374,l),
(241,350,l)
);
}
);
width = 650;
},
{
layerId = "B142495F-E341-49EC-94FB-15D38175E9C1";
shapes = (
{
closed = 1;
nodes = (
(226,0,l),
(226,282,l),
(198,252,l),
(335,119,l),
(480,166,o),
(590,270,o),
(590,424,cs),
(590,578,o),
(480,682,o),
(335,729,c),
(198,596,l),
(226,566,l),
(226,714,l),
(75,714,l),
(75,0,l)
);
},
{
closed = 1;
nodes = (
(226,498,l),
(220,474,l),
(350,597,l),
(312,582,l),
(397,547,o),
(436,491,o),
(436,424,cs),
(436,357,o),
(397,301,o),
(312,266,c),
(350,251,l),
(220,374,l),
(226,350,l)
);
}
);
width = 617;
},
{
layerId = "B4679C4A-7B1E-46C8-BD55-32AE88BDC1C0";
name = Semibold;
shapes = (
{
closed = 1;
nodes = (
(205,0,l),
(205,279,l),
(177,255,l),
(318,121,l),
(453,164,o),
(573,268,o),
(573,424,cs),
(573,580,o),
(453,684,o),
(318,727,c),
(177,593,l),
(205,569,l),
(205,714,l),
(79,714,l),
(79,0,l)
);
},
{
closed = 1;
nodes = (
(205,523,l),
(191,483,l),
(338,624,l),
(297,606,l),
(377,579,o),
(443,516,o),
(443,424,cs),
(443,332,o),
(377,269,o),
(297,242,c),
(339,225,l),
(191,365,l),
(205,325,l)
);
}
);
width = 605;
},
{
layerId = "F6727EBE-EF21-4659-9B68-88D73F70C0AC";
name = Medium;
shapes = (
{
closed = 1;
nodes = (
(187,0,l),
(187,276,l),
(159,258,l),
(304,122,l),
(429,162,o),
(558,266,o),
(558,424,cs),
(558,582,o),
(429,686,o),
(304,726,c),
(159,590,l),
(187,572,l),
(187,714,l),
(82,714,l),
(82,0,l)
);
},
{
closed = 1;
nodes = (
(187,545,l),
(166,490,l),
(328,647,l),
(284,626,l),
(360,607,o),
(449,537,o),
(449,424,cs),
(449,311,o),
(360,242,o),
(284,222,c),
(329,202,l),
(165,357,l),
(187,303,l)
);
}
);
width = 594;
},
{
layerId = "C6625657-2272-4A88-8D72-7A3CEEFF01B8";
associatedMasterId = "DE23B2BA-64D1-45BF-8121-66FD42616F3E";
name = "Oct 3 19, 14:37";
shapes = (
{
closed = 1;
nodes = (
(171,0,l),
(171,233,l),
(291,123,l),
(407,161,o),
(544,265,o),
(544,424,cs),
(544,583,o),
(407,687,o),
(291,725,c),
(171,614,l),
(171,714,l),
(85,714,l),
(85,0,l)
);
},
{
closed = 1;
nodes = (
(171,323,l),
(171,524,l),
(291,640,l),
(362,619,o),
(455,545,o),
(455,424,cs),
(455,303,o),
(362,230,o),
(291,208,c)
);
}
);
width = 584;
},
{
layerId = "2158AEF6-410E-4D6B-A6DF-0BF8AE5F194A";
associatedMasterId = "DE23B2BA-64D1-45BF-8121-66FD42616F3E";
name = Layer5;
width = 600;
},
{
background = {
shapes = (
{
closed = 1;
nodes = (
(171,0,l),
(171,273,l),
(142,260,l),
(291,123,l),
(407,161,o),
(544,265,o),
(544,424,cs),
(544,583,o),
(407,687,o),
(291,725,c),
(142,587,l),
(171,574,l),
(171,714,l),
(85,714,l),
(85,0,l)
);
},
{
closed = 1;
nodes = (
(171,564,l),
(143,496,l),
(319,668,l),
(272,644,l),
(344,632,o),
(455,556,o),
(455,424,cs),
(455,292,o),
(344,217,o),
(272,203,c),
(320,181,l),
(142,350,l),
(171,283,l)
);
}
);
};
layerId = "DE23B2BA-64D1-45BF-8121-66FD42616F3E";
name = Regular;
shapes = (
{
closed = 1;
nodes = (
(171,0,l),
(171,273,l),
(142,260,l),
(291,123,l),
(407,161,o),
(544,265,o),
(544,424,cs),
(544,583,o),
(407,687,o),
(291,725,c),
(142,587,l),
(171,574,l),
(171,714,l),
(85,714,l),
(85,0,l)
);
},
{
closed = 1;
nodes = (
(171,564,l),
(143,496,l),
(319,668,l),
(272,644,l),
(344,632,o),
(455,556,o),
(455,424,cs),
(455,292,o),
(344,217,o),
(272,203,c),
(320,181,l),
(142,350,l),
(171,283,l)
);
}
);
width = 584;
}
);
unicode = 7262;
},
{
glyphname = uni1C5F;
layers = (
{
layerId = "A2F8418F-339B-4F91-B830-CE586139F48E";
name = "#instance";
shapes = (
{
closed = 1;
nodes = (
(336,-10,o),
(475,73,o),
(475,350,cs),
(475,457,o),
(429,543,o),
(422,555,c),
(401,520,l),
(483,643,l),
(448,622,l),
(499,582,o),
(554,465,o),
(554,350,cs),
(554,157,o),
(459,24,o),
(439,0,c),
(536,0,l),
(552,17,o),
(642,144,o),
(642,350,cs),
(642,487,o),
(583,656,o),
(442,725,c),
(355,594,l),
(394,604,l),
(346,674,o),
(281,725,o),
(206,725,cs),
(124,725,o),
(72,675,o),
(63,668,c),
(145,456,l),
(171,493,l),
(47,493,l),
(63,416,l),
(135,416,ls),
(185,416,o),
(208,447,o),
(208,485,cs),
(208,499,o),
(205,513,o),
(199,528,cs),
(144,671,l),
(150,629,l),
(168,641,o),
(179,650,o),
(205,650,cs),
(258,650,o),
(312,599,o),
(347,529,c),
(353,590,l),
(51,136,l),
(51,62,o),
(133,-10,o),
(229,-10,cs)
);
},
{
closed = 1;
nodes = (
(177,65,o),
(138,108,o),
(129,132,c),
(113,89,l),
(392,506,l),
(368,476,l),
(377,457,o),
(391,411,o),
(391,350,cs),
(391,258,o),
(365,65,o),
(229,65,cs)
);
}
);
width = 692;
},
{
layerId = "F66CCEDF-5A58-4290-A5D0-73D45F8C004A";
associatedMasterId = "B142495F-E341-49EC-94FB-15D38175E9C1";
name = "Oct 5 19, 16:04";
shapes = (
{
closed = 1;
nodes = (
(413,-11,o),
(518,136,o),
(518,333,cs),
(518,411,o),
(506,473,o),
(480,529,c),
(451,473,l),
(531,567,l),
(502,572,l),
(546,532,o),
(582,436,o),
(582,333,cs),
(582,194,o),
(528,86,o),
(459,0,c),
(619,0,l),
(677,81,o),
(712,196,o),
(712,333,cs),
(712,500,o),
(638,656,o),
(515,727,c),
(400,588,l),
(435,598,l),
(374,689,o),
(308,729,o),
(216,729,cs),
(167,729,o),
(123,716,o),
(76,686,c),
(128,492,l),
(161,524,l),
(50,524,l),
(70,414,l),
(178,414,ls),
(224,414,o),
(248,435,o),
(248,477,cs),
(248,489,o),
(245,502,o),
(242,514,cs),
(202,654,l),
(170,588,l),
(191,602,o),
(209,611,o),
(231,611,cs),
(279,611,o),
(329,567,o),
(358,485,c),
(374,555,l),
(57,171,l),
(58,67,o),
(149,-11,o),
(266,-11,cs)
);
},
{
closed = 1;
nodes = (
(230,111,o),
(192,138,o),
(175,182,c),
(173,130,l),
(405,410,l),
(382,440,l),
(389,395,o),
(393,364,o),
(393,333,cs),
(393,211,o),
(337,111,o),
(267,111,cs)
);
}
);
width = 777;
},
{
layerId = "E15D4793-0447-4D67-B5CB-8CC933A424B6";
associatedMasterId = "B142495F-E341-49EC-94FB-15D38175E9C1";
name = "Oct 4 19, 17:17";
shapes = (
{
closed = 1;
nodes = (
(137,172,l),
(493,601,l),
(412,557,l),
(460,496,o),
(486,425,o),
(486,341,cs),
(486,200,o),
(444,89,o),
(369,0,c),
(538,0,l),
(582,60,o),
(632,210,o),
(632,341,cs),
(632,505,o),
(532,651,o),
(428,729,c),
(-8,192,l)
);
},
{
closed = 1;
nodes = (
(-8,192,l),
(-8,67,o),
(78,-11,o),
(188,-11,cs),
(323,-11,o),
(438,122,o),
(438,351,cs),
(438,546,o),
(305,729,o),
(108,729,c),
(93,601,l),
(103,604,o),
(126,611,o),
(142,611,cs),
(196,611,o),
(307,516,o),
(307,351,cs),
(307,169,o),
(233,124,o),
(188,124,cs),
(158,124,o),
(145,146,o),
(137,172,c)
);
},
{
closed = 1;
nodes = (
(108,729,l),
(74,729,o),
(30,718,o),
(-6,696,c),
(38,542,l),
(-28,542,l),
(-8,416,l),
(100,416,ls),
(150,416,o),
(185,450,o),
(163,521,cs),
(129,629,l)
);
}
);
width = 600;
},
{
layerId = "0EBC052F-F688-4300-8C36-D0AFFA5E088C";
associatedMasterId = "B142495F-E341-49EC-94FB-15D38175E9C1";
name = "Oct 4 19, 17:16";
shapes = (
{
closed = 1;
nodes = (
(137,172,l),
(493,601,l),
(412,547,l),
(458,501,o),
(486,443,o),
(486,341,cs),
(486,200,o),
(440,96,o),
(369,0,c),
(538,0,l),
(582,60,o),
(632,210,o),
(632,341,cs),
(632,505,o),
(532,651,o),
(428,729,c),
(-8,192,l)
);
},
{
closed = 1;
nodes = (
(-8,192,l),
(-8,67,o),
(78,-11,o),
(188,-11,cs),
(323,-11,o),
(428,112,o),
(428,341,cs),
(428,536,o),
(315,729,o),
(108,729,c),
(93,601,l),
(103,604,o),
(126,611,o),
(142,611,cs),
(206,611,o),
(297,506,o),
(297,341,cs),
(297,159,o),
(233,124,o),
(188,124,cs),
(158,124,o),
(145,146,o),
(137,172,c)
);
},
{
closed = 1;
nodes = (
(108,729,l),
(74,729,o),
(30,718,o),
(-6,696,c),
(38,542,l),
(-28,542,l),
(-8,416,l),
(100,416,ls),
(150,416,o),
(185,450,o),
(163,521,cs),
(129,629,l)
);
}
);
width = 600;
},
{
layerId = "B142495F-E341-49EC-94FB-15D38175E9C1";
shapes = (
{
closed = 1;
nodes = (
(369,-15,o),
(502,115,o),
(502,333,cs),
(502,411,o),
(487,473,o),
(454,543,c),
(461,492,l),
(516,562,l),
(477,562,l),
(529,524,o),
(571,436,o),
(571,333,cs),
(571,204,o),
(519,86,o),
(450,0,c),
(613,0,l),
(661,59,o),
(716,196,o),
(716,333,cs),
(716,504,o),
(618,656,o),
(495,729,c),
(384,588,l),
(422,599,l),
(354,702,o),
(277,729,o),
(191,729,cs),
(140,729,o),
(81,710,o),
(39,680,c),
(97,492,l),
(128,524,l),
(34,524,l),
(54,414,l),
(145,414,ls),
(191,414,o),
(215,435,o),
(215,477,cs),
(215,489,o),
(213,502,o),
(209,514,cs),
(164,654,l),
(137,581,l),
(158,595,o),
(176,602,o),
(195,602,cs),
(246,602,o),
(311,574,o),
(333,491,c),
(349,547,l),
(34,144,l),
(35,67,o),
(105,-15,o),
(232,-15,cs)
);
},
{
closed = 1;
nodes = (
(197,113,o),
(167,138,o),
(152,175,c),
(171,120,l),
(403,424,l),
(359,450,l),
(366,405,o),
(370,374,o),
(370,343,cs),
(370,199,o),
(304,113,o),
(232,113,cs)
);
}
);
width = 763;
},
{
layerId = "B4679C4A-7B1E-46C8-BD55-32AE88BDC1C0";
name = Semibold;
shapes = (
{
closed = 1;
nodes = (
(357,-13,o),
(492,99,o),
(492,339,cs),
(492,428,o),
(465,499,o),
(442,547,c),
(439,503,l),
(504,592,l),
(466,584,l),
(518,546,o),
(565,447,o),
(565,339,cs),
(565,186,o),
(497,62,o),
(446,0,c),
(584,0,l),
(620,43,o),
(688,176,o),
(688,339,cs),
(688,498,o),
(605,656,o),
(475,727,c),
(373,590,l),
(411,601,l),
(351,691,o),
(279,727,o),
(197,727,cs),
(134,727,o),
(78,697,o),
(48,676,c),
(115,479,l),
(144,512,l),
(39,512,l),
(57,415,l),
(141,415,ls),
(189,415,o),
(212,439,o),
(212,480,cs),
(212,493,o),
(210,506,o),
(205,519,c),
(157,660,l),
(142,599,l),
(162,612,o),
(177,620,o),
(199,620,cs),
(250,620,o),
(312,584,o),
(338,505,c),
(351,563,l),
(40,141,l),
(41,65,o),
(116,-13,o),
(231,-13,cs)
);
},
{
closed = 1;
nodes = (
(190,95,o),
(156,127,o),
(143,159,c),
(149,108,l),
(399,455,l),
(362,460,l),
(370,425,o),
(378,388,o),
(378,346,cs),
(378,221,o),
(327,95,o),
(231,95,cs)
);
}
);
width = 736;
},
{
layerId = "F6727EBE-EF21-4659-9B68-88D73F70C0AC";
name = Medium;
shapes = (
{
closed = 1;
nodes = (
(346,-11,o),
(483,85,o),
(483,345,cs),
(483,443,o),
(446,522,o),
(431,551,c),
(419,512,l),
(493,619,l),
(457,604,l),
(508,565,o),
(559,456,o),
(559,345,cs),
(559,171,o),
(477,42,o),
(442,0,c),
(559,0,l),
(584,29,o),
(664,159,o),
(664,345,cs),
(664,492,o),
(593,656,o),
(458,726,c),
(364,592,l),
(402,603,l),
(348,682,o),
(280,726,o),
(202,726,cs),
(129,726,o),
(75,685,o),
(56,672,c),
(131,467,l),
(158,502,l),
(43,502,l),
(60,415,l),
(138,415,ls),
(187,415,o),
(210,443,o),
(210,483,cs),
(210,496,o),
(207,510,o),
(202,524,cs),
(150,666,l),
(146,615,l),
(165,627,o),
(178,636,o),
(202,636,cs),
(254,636,o),
(312,592,o),
(343,518,c),
(352,577,l),
(46,138,l),
(46,63,o),
(125,-11,o),
(230,-11,cs)
);
},
{
closed = 1;
nodes = (
(183,79,o),
(147,117,o),
(136,145,c),
(130,98,l),
(395,482,l),
(365,468,l),
(374,442,o),
(385,400,o),
(385,348,cs),
(385,241,o),
(347,79,o),
(230,79,cs)
);
}
);
width = 713;
},
{
layerId = "4DCE4D0E-113B-4C29-B662-6DBDE41ECEE0";
associatedMasterId = "DE23B2BA-64D1-45BF-8121-66FD42616F3E";
name = "Oct 4 19, 17:17";
shapes = (
{
closed = 1;
nodes = (
(336,-10,o),
(475,73,o),
(475,350,cs),
(475,466,o),
(419,560,o),
(422,555,c),
(401,520,l),
(483,643,l),
(448,622,l),
(499,582,o),
(554,465,o),
(554,350,cs),
(554,157,o),
(459,24,o),
(439,0,c),
(536,0,l),
(552,17,o),
(642,144,o),
(642,350,cs),
(642,487,o),
(583,656,o),
(442,725,c),
(355,594,l),
(394,604,l),
(346,674,o),
(281,725,o),
(206,725,cs),
(124,725,o),
(72,675,o),
(63,668,c),
(145,456,l),
(171,493,l),
(47,493,l),
(63,416,l),
(135,416,ls),
(185,416,o),
(208,447,o),
(208,485,cs),
(208,499,o),
(205,513,o),
(199,528,cs),
(144,671,l),
(164,644,l),
(148,618,o),
(162,650,o),
(205,650,cs),
(258,650,o),
(312,599,o),
(347,529,c),
(353,590,l),
(51,136,l),
(51,62,o),
(133,-10,o),
(229,-10,cs)
);
},
{
closed = 1;
nodes = (
(172,65,o),
(122,124,o),
(137,130,c),
(113,89,l),
(392,506,l),
(370,473,l),
(365,483,o),
(391,431,o),
(391,350,cs),
(391,258,o),
(365,65,o),
(229,65,cs)
);
}
);
width = 692;
},
{
layerId = "492B34F5-7659-4CC9-9D23-F90D6D11AD51";
associatedMasterId = "DE23B2BA-64D1-45BF-8121-66FD42616F3E";
name = Layer7;
width = 600;
},
{
background = {
shapes = (
{
closed = 1;
nodes = (
(336,-10,o),
(475,73,o),
(475,350,cs),
(475,457,o),
(429,543,o),
(422,555,c),
(401,520,l),
(483,643,l),
(448,622,l),
(499,582,o),
(554,465,o),
(554,350,cs),
(554,157,o),
(459,24,o),
(439,0,c),
(536,0,l),
(552,17,o),
(642,144,o),
(642,350,cs),
(642,487,o),
(583,656,o),
(442,725,c),
(355,594,l),
(394,604,l),
(346,674,o),
(281,725,o),
(206,725,cs),
(124,725,o),
(72,675,o),
(63,668,c),
(145,456,l),
(171,493,l),
(47,493,l),
(63,416,l),
(135,416,ls),
(185,416,o),
(208,447,o),
(208,485,cs),
(208,499,o),
(205,513,o),
(199,528,cs),
(144,671,l),
(150,629,l),
(168,641,o),
(179,650,o),
(205,650,cs),
(258,650,o),
(312,599,o),
(347,529,c),
(353,590,l),
(51,136,l),
(51,62,o),
(133,-10,o),
(229,-10,cs)
);
},
{
closed = 1;
nodes = (
(177,65,o),
(138,108,o),
(129,132,c),
(113,89,l),
(392,506,l),
(368,476,l),
(377,457,o),
(391,411,o),
(391,350,cs),
(391,258,o),
(365,65,o),
(229,65,cs)
);
}
);
};
layerId = "DE23B2BA-64D1-45BF-8121-66FD42616F3E";
name = Regular;
shapes = (
{
closed = 1;
nodes = (
(336,-10,o),
(475,73,o),
(475,350,cs),
(475,457,o),
(429,543,o),
(422,555,c),
(401,520,l),
(483,643,l),
(448,622,l),
(499,582,o),
(554,465,o),
(554,350,cs),
(554,157,o),
(459,24,o),
(439,0,c),
(536,0,l),
(552,17,o),
(642,144,o),
(642,350,cs),
(642,487,o),
(583,656,o),
(442,725,c),
(355,594,l),
(394,604,l),
(346,674,o),
(281,725,o),
(206,725,cs),
(124,725,o),
(72,675,o),
(63,668,c),
(145,456,l),
(171,493,l),
(47,493,l),
(63,416,l),
(135,416,ls),
(185,416,o),
(208,447,o),
(208,485,cs),
(208,499,o),
(205,513,o),
(199,528,cs),
(144,671,l),
(150,629,l),
(168,641,o),
(179,650,o),
(205,650,cs),
(258,650,o),
(312,599,o),
(347,529,c),
(353,590,l),
(51,136,l),
(51,62,o),
(133,-10,o),
(229,-10,cs)
);
},
{
closed = 1;
nodes = (
(177,65,o),
(138,108,o),
(129,132,c),
(113,89,l),
(392,506,l),
(368,476,l),
(377,457,o),
(391,411,o),
(391,350,cs),
(391,258,o),
(365,65,o),
(229,65,cs)
);
}
);
width = 692;
}
);
unicode = 7263;
},
{
glyphname = uni1C60;
layers = (
{
layerId = "A2F8418F-339B-4F91-B830-CE586139F48E";
name = "#instance";
shapes = (
{
closed = 1;
nodes = (
(286,-10,l),
(402,28,o),
(539,132,o),
(539,291,cs),
(539,450,o),
(402,554,o),
(286,592,c),
(137,455,l),
(166,442,l),
(166,715,l),
(80,715,l),
(80,176,l)
);
},
{
closed = 1;
nodes = (
(137,370,l),
(315,534,l),
(267,511,l),
(339,499,o),
(450,423,o),
(450,291,cs),
(450,159,o),
(342,86,o),
(274,75,c),
(321,53,l),
(137,218,l),
(166,152,l),
(166,437,l)
);
}
);
width = 579;
},
{
layerId = "B142495F-E341-49EC-94FB-15D38175E9C1";
shapes = (
{
closed = 1;
nodes = (
(305,-15,l),
(470,32,o),
(580,136,o),
(580,290,cs),
(580,444,o),
(470,548,o),
(325,595,c),
(188,462,l),
(216,432,l),
(216,714,l),
(65,714,l),
(65,200,l)
);
},
{
closed = 1;
nodes = (
(210,340,l),
(340,463,l),
(302,448,l),
(387,413,o),
(426,357,o),
(426,290,cs),
(426,223,o),
(387,167,o),
(302,132,c),
(340,125,l),
(210,248,l),
(216,216,l),
(216,364,l)
);
}
);
width = 607;
},
{
layerId = "B4679C4A-7B1E-46C8-BD55-32AE88BDC1C0";
name = Semibold;
shapes = (
{
closed = 1;
nodes = (
(298,-13,l),
(444,30,o),
(564,134,o),
(564,291,cs),
(564,446,o),
(444,550,o),
(311,594,c),
(169,459,l),
(197,436,l),
(197,715,l),
(71,715,l),
(71,191,l)
);
},
{
closed = 1;
nodes = (
(183,351,l),
(330,490,l),
(289,472,l),
(369,446,o),
(435,382,o),
(435,291,cs),
(435,199,o),
(370,137,o),
(291,111,c),
(333,98,l),
(183,237,l),
(197,192,l),
(197,391,l)
);
}
);
width = 596;
},
{
layerId = "F6727EBE-EF21-4659-9B68-88D73F70C0AC";
name = Medium;
shapes = (
{
closed = 1;
nodes = (
(292,-11,l),
(422,29,o),
(551,133,o),
(551,291,cs),
(551,448,o),
(422,552,o),
(298,593,c),
(152,457,l),
(181,439,l),
(181,715,l),
(76,715,l),
(76,183,l)
);
},
{
closed = 1;
nodes = (
(159,361,l),
(322,513,l),
(277,492,l),
(353,474,o),
(443,404,o),
(443,291,cs),
(443,178,o),
(355,110,o),
(282,92,c),
(327,74,l),
(159,227,l),
(181,171,l),
(181,415,l)
);
}
);
width = 587;
},
{
layerId = "817F4B86-DD93-4C28-949A-BA0EB0B6E07F";
associatedMasterId = "DE23B2BA-64D1-45BF-8121-66FD42616F3E";
name = Layer3;
width = 600;
},
{
background = {
shapes = (
{
closed = 1;
nodes = (
(286,-10,l),
(402,28,o),
(539,132,o),
(539,291,cs),
(539,450,o),
(402,554,o),
(286,592,c),
(137,455,l),
(166,442,l),
(166,715,l),
(80,715,l),
(80,176,l)
);
},
{
closed = 1;
nodes = (
(137,370,l),
(315,534,l),
(267,511,l),
(339,499,o),
(450,423,o),
(450,291,cs),
(450,159,o),
(342,86,o),
(274,75,c),
(321,53,l),
(137,218,l),
(166,152,l),
(166,437,l)
);
}
);
};
layerId = "DE23B2BA-64D1-45BF-8121-66FD42616F3E";
name = Regular;
shapes = (
{
closed = 1;
nodes = (
(286,-10,l),
(402,28,o),
(539,132,o),
(539,291,cs),
(539,450,o),
(402,554,o),
(286,592,c),
(137,455,l),
(166,442,l),
(166,715,l),
(80,715,l),
(80,176,l)
);
},
{
closed = 1;
nodes = (
(137,370,l),
(315,534,l),
(267,511,l),
(339,499,o),
(450,423,o),
(450,291,cs),
(450,159,o),
(342,86,o),
(274,75,c),
(321,53,l),
(137,218,l),
(166,152,l),
(166,437,l)
);
}
);
width = 579;
}
);
unicode = 7264;
},
{
glyphname = uni1C64;
layers = (
{
layerId = "A2F8418F-339B-4F91-B830-CE586139F48E";
name = "#instance";
shapes = (
{
closed = 1;
nodes = (
(420,458,l),
(397,466,l),
(397,0,l),
(473,0,l),
(473,573,l),
(450,501,l),
(523,604,l),
(506,625,o),
(429,725,o),
(295,725,cs),
(212,725,o),
(133,681,o),
(68,597,c),
(124,543,l),
(174,610,o),
(238,650,o),
(295,650,cs),
(375,650,o),
(422,601,o),
(440,575,c),
(444,630,l),
(30,47,l),
(95,0,l)
);
}
);
width = 561;
},
{
layerId = "B142495F-E341-49EC-94FB-15D38175E9C1";
shapes = (
{
closed = 1;
nodes = (
(392,361,l),
(374,369,l),
(374,0,l),
(509,0,l),
(509,542,l),
(481,462,l),
(571,581,l),
(507,659,o),
(430,729,o),
(305,729,cs),
(205,729,o),
(113,687,o),
(44,581,c),
(138,499,l),
(185,573,o),
(238,603,o),
(305,603,cs),
(360,603,o),
(390,575,o),
(426,536,c),
(426,601,l),
(17,82,l),
(124,-3,l)
);
}
);
width = 596;
},
{
layerId = "B4679C4A-7B1E-46C8-BD55-32AE88BDC1C0";
name = Semibold;
shapes = (
{
closed = 1;
nodes = (
(403,397,l),
(383,405,l),
(383,0,l),
(496,0,l),
(496,554,l),
(469,476,l),
(553,590,l),
(506,646,o),
(429,727,o),
(301,727,cs),
(208,727,o),
(120,685,o),
(53,587,c),
(133,516,l),
(181,587,o),
(238,621,o),
(301,621,cs),
(366,621,o),
(402,585,o),
(431,550,c),
(433,612,l),
(22,69,l),
(113,-2,l)
);
}
);
width = 583;
},
{
layerId = "F6727EBE-EF21-4659-9B68-88D73F70C0AC";
name = Medium;
shapes = (
{
closed = 1;
nodes = (
(412,429,l),
(390,437,l),
(390,0,l),
(484,0,l),
(484,564,l),
(459,489,l),
(537,597,l),
(506,635,o),
(429,726,o),
(298,726,cs),
(210,726,o),
(127,683,o),
(61,592,c),
(128,530,l),
(177,599,o),
(238,636,o),
(298,636,cs),
(371,636,o),
(413,593,o),
(436,563,c),
(439,621,l),
(26,57,l),
(104,-1,l)
);
}
);
width = 571;
},
{
layerId = "9E7D8EE5-6EF6-4EA3-B004-D7AD4D82BB94";
associatedMasterId = "DE23B2BA-64D1-45BF-8121-66FD42616F3E";
name = "Oct 15 19, 20:31";
shapes = (
{
closed = 1;
nodes = (
(420,458,l),
(397,466,l),
(397,0,l),
(473,0,l),
(473,573,l),
(450,501,l),
(523,604,l),
(506,625,o),
(429,725,o),
(295,725,cs),
(167,725,o),
(89,622,o),
(68,597,c),
(124,543,l),
(128,548,o),
(200,650,o),
(295,650,cs),
(383,650,o),
(430,586,o),
(421,599,c),
(444,630,l),
(30,47,l),
(95,0,l)
);
}
);
width = 561;
},
{
layerId = "817F4B86-DD93-4C28-949A-BA0EB0B6E07F";
associatedMasterId = "DE23B2BA-64D1-45BF-8121-66FD42616F3E";
name = Layer3;
width = 600;
},
{
background = {
shapes = (
{
closed = 1;
nodes = (
(420,458,l),
(397,466,l),
(397,0,l),
(473,0,l),
(473,573,l),
(450,501,l),
(523,604,l),
(506,625,o),
(429,725,o),
(295,725,cs),
(212,725,o),
(133,681,o),
(68,597,c),
(124,543,l),
(174,610,o),
(238,650,o),
(295,650,cs),
(375,650,o),
(422,601,o),
(440,575,c),
(444,630,l),
(30,47,l),
(95,0,l)
);
}
);
};
layerId = "DE23B2BA-64D1-45BF-8121-66FD42616F3E";
name = Regular;
shapes = (
{
closed = 1;
nodes = (
(420,458,l),
(397,466,l),
(397,0,l),
(473,0,l),
(473,573,l),
(450,501,l),
(523,604,l),
(506,625,o),
(429,725,o),
(295,725,cs),
(212,725,o),
(133,681,o),
(68,597,c),
(124,543,l),
(174,610,o),
(238,650,o),
(295,650,cs),
(375,650,o),
(422,601,o),
(440,575,c),
(444,630,l),
(30,47,l),
(95,0,l)
);
}
);
width = 561;
}
);
unicode = 7268;
},
{
glyphname = uni1C66;
layers = (
{
layerId = "A2F8418F-339B-4F91-B830-CE586139F48E";
name = "#instance";
shapes = (
{
closed = 1;
nodes = (
(406,192,l),
(356,192,l),
(518,-10,l),
(532,3,o),
(713,154,o),
(713,371,cs),
(713,584,o),
(570,707,o),
(551,725,c),
(495,659,l),
(514,644,o),
(624,536,o),
(624,371,cs),
(624,208,o),
(518,117,o),
(511,107,c),
(540,80,l),
(381,281,l),
(222,80,l),
(251,107,l),
(244,117,o),
(138,208,o),
(138,371,cs),
(138,536,o),
(248,644,o),
(267,659,c),
(211,725,l),
(192,707,o),
(49,584,o),
(49,371,cs),
(49,154,o),
(230,3,o),
(244,-10,c)
);
}
);
width = 762;
},
{
layerId = "B142495F-E341-49EC-94FB-15D38175E9C1";
shapes = (
{
closed = 1;
nodes = (
(434,189,l),
(380,189,l),
(546,-15,l),
(688,77,o),
(778,219,o),
(778,378,cs),
(778,514,o),
(738,618,o),
(649,729,c),
(526,630,l),
(578,573,o),
(623,485,o),
(623,388,cs),
(623,276,o),
(578,201,o),
(510,163,c),
(581,140,l),
(407,339,l),
(232,140,l),
(308,163,l),
(235,201,o),
(191,276,o),
(191,388,cs),
(191,485,o),
(235,573,o),
(287,630,c),
(165,729,l),
(75,618,o),
(36,514,o),
(36,378,cs),
(36,219,o),
(126,77,o),
(268,-15,c)
);
}
);
width = 814;
},
{
layerId = "B4679C4A-7B1E-46C8-BD55-32AE88BDC1C0";
name = Semibold;
shapes = (
{
closed = 1;
nodes = (
(423,190,l),
(371,190,l),
(535,-13,l),
(629,49,o),
(753,194,o),
(753,375,cs),
(753,540,o),
(675,652,o),
(612,727,c),
(514,641,l),
(554,600,o),
(624,504,o),
(624,382,cs),
(624,250,o),
(556,169,o),
(511,142,c),
(565,118,l),
(397,317,l),
(228,118,l),
(287,142,l),
(238,169,o),
(171,250,o),
(171,382,cs),
(171,504,o),
(240,600,o),
(280,641,c),
(182,727,l),
(119,652,o),
(41,540,o),
(41,375,cs),
(41,194,o),
(165,49,o),
(259,-13,c)
);
}
);
width = 794;
},
{
layerId = "F6727EBE-EF21-4659-9B68-88D73F70C0AC";
name = Medium;
shapes = (
{
closed = 1;
nodes = (
(414,191,l),
(363,191,l),
(526,-11,l),
(578,25,o),
(732,173,o),
(732,373,cs),
(732,563,o),
(620,681,o),
(580,726,c),
(504,650,l),
(533,623,o),
(624,521,o),
(624,376,cs),
(624,228,o),
(536,142,o),
(511,124,c),
(552,98,l),
(389,298,l),
(225,98,l),
(268,124,l),
(241,142,o),
(154,228,o),
(154,376,cs),
(154,521,o),
(244,623,o),
(273,650,c),
(197,726,l),
(157,681,o),
(45,563,o),
(45,373,cs),
(45,173,o),
(199,25,o),
(251,-11,c)
);
}
);
width = 777;
},
{
layerId = "817F4B86-DD93-4C28-949A-BA0EB0B6E07F";
associatedMasterId = "DE23B2BA-64D1-45BF-8121-66FD42616F3E";
name = Layer3;
width = 600;
},
{
background = {
shapes = (
{
closed = 1;
nodes = (
(406,192,l),
(356,192,l),
(518,-10,l),
(532,3,o),
(713,154,o),
(713,371,cs),
(713,584,o),
(570,707,o),
(551,725,c),
(495,659,l),
(514,644,o),
(624,536,o),
(624,371,cs),
(624,208,o),
(518,117,o),
(511,107,c),
(540,80,l),
(381,281,l),
(222,80,l),
(251,107,l),
(244,117,o),
(138,208,o),
(138,371,cs),
(138,536,o),
(248,644,o),
(267,659,c),
(211,725,l),
(192,707,o),
(49,584,o),
(49,371,cs),
(49,154,o),
(230,3,o),
(244,-10,c)
);
}
);
};
layerId = "DE23B2BA-64D1-45BF-8121-66FD42616F3E";
name = Regular;
shapes = (
{
closed = 1;
nodes = (
(406,192,l),
(356,192,l),
(518,-10,l),
(532,3,o),
(713,154,o),
(713,371,cs),
(713,584,o),
(570,707,o),
(551,725,c),
(495,659,l),
(514,644,o),
(624,536,o),
(624,371,cs),
(624,208,o),
(518,117,o),
(511,107,c),
(540,80,l),
(381,281,l),
(222,80,l),
(251,107,l),
(244,117,o),
(138,208,o),
(138,371,cs),
(138,536,o),
(248,644,o),
(267,659,c),
(211,725,l),
(192,707,o),
(49,584,o),
(49,371,cs),
(49,154,o),
(230,3,o),
(244,-10,c)
);
}
);
width = 762;
}
);
unicode = 7270;
},
{
glyphname = uni1C68;
layers = (
{
layerId = "A2F8418F-339B-4F91-B830-CE586139F48E";
name = "#instance";
shapes = (
{
closed = 1;
nodes = (
(183,169,l),
(133,169,l),
(276,-10,l),
(399,33,o),
(493,148,o),
(493,308,cs),
(493,617,o),
(203,712,o),
(46,725,c),
(46,641,l),
(246,615,o),
(404,513,o),
(404,303,cs),
(404,225,o),
(381,198,o),
(377,188,c),
(406,165,l),
(91,560,l),
(40,515,l),
(370,101,l),
(361,159,l),
(340,103,o),
(278,78,o),
(298,85,c),
(320,54,l),
(158,257,l),
(40,109,l),
(40,-10,l)
);
}
);
width = 542;
},
{
layerId = "B142495F-E341-49EC-94FB-15D38175E9C1";
shapes = (
{
closed = 1;
nodes = (
(168,147,l),
(110,147,l),
(253,-15,l),
(390,35,o),
(508,149,o),
(508,324,cs),
(508,549,o),
(323,722,o),
(35,729,c),
(35,597,l),
(226,591,o),
(365,475,o),
(365,316,cs),
(365,286,o),
(360,263,o),
(354,244,c),
(393,234,l),
(113,542,l),
(29,466,l),
(344,125,l),
(324,184,l),
(303,160,o),
(281,133,o),
(242,120,c),
(306,107,l),
(140,286,l),
(27,170,l),
(27,-12,l)
);
}
);
width = 544;
},
{
layerId = "B4679C4A-7B1E-46C8-BD55-32AE88BDC1C0";
name = Semibold;
shapes = (
{
closed = 1;
nodes = (
(174,156,l),
(119,156,l),
(262,-13,l),
(393,34,o),
(502,148,o),
(502,318,cs),
(502,575,o),
(278,718,o),
(39,727,c),
(39,614,l),
(233,600,o),
(379,489,o),
(379,311,cs),
(379,263,o),
(368,238,o),
(363,223,c),
(398,208,l),
(104,549,l),
(33,485,l),
(354,116,l),
(338,174,l),
(317,139,o),
(280,112,o),
(263,107,c),
(311,87,l),
(147,275,l),
(32,147,l),
(32,-11,l)
);
}
);
width = 543;
},
{
layerId = "F6727EBE-EF21-4659-9B68-88D73F70C0AC";
name = Medium;
shapes = (
{
closed = 1;
nodes = (
(179,163,l),
(126,163,l),
(269,-11,l),
(396,34,o),
(497,148,o),
(497,313,cs),
(497,597,o),
(238,715,o),
(43,726,c),
(43,628,l),
(240,608,o),
(392,502,o),
(392,307,cs),
(392,243,o),
(375,217,o),
(370,205,c),
(402,185,l),
(97,555,l),
(37,501,l),
(362,108,l),
(350,166,l),
(329,120,o),
(279,94,o),
(281,95,c),
(316,70,l),
(153,266,l),
(36,127,l),
(36,-11,l)
);
}
);
width = 543;
},
{
layerId = "817F4B86-DD93-4C28-949A-BA0EB0B6E07F";
associatedMasterId = "DE23B2BA-64D1-45BF-8121-66FD42616F3E";
name = Layer3;
width = 600;
},
{
background = {
shapes = (
{
closed = 1;
nodes = (
(183,169,l),
(133,169,l),
(276,-10,l),
(399,33,o),
(493,148,o),
(493,308,cs),
(493,617,o),
(203,712,o),
(46,725,c),
(46,641,l),
(246,615,o),
(404,513,o),
(404,303,cs),
(404,225,o),
(381,198,o),
(377,188,c),
(406,165,l),
(91,560,l),
(40,515,l),
(370,101,l),
(361,159,l),
(340,103,o),
(278,78,o),
(298,85,c),
(320,54,l),
(158,257,l),
(40,109,l),
(40,-10,l)
);
}
);
};
layerId = "DE23B2BA-64D1-45BF-8121-66FD42616F3E";
name = Regular;
shapes = (
{
closed = 1;
nodes = (
(183,169,l),
(133,169,l),
(276,-10,l),
(399,33,o),
(493,148,o),
(493,308,cs),
(493,617,o),
(203,712,o),
(46,725,c),
(46,641,l),
(246,615,o),
(404,513,o),
(404,303,cs),
(404,225,o),
(381,198,o),
(377,188,c),
(406,165,l),
(91,560,l),
(40,515,l),
(370,101,l),
(361,159,l),
(340,103,o),
(278,78,o),
(298,85,c),
(320,54,l),
(158,257,l),
(40,109,l),
(40,-10,l)
);
}
);
width = 542;
}
);
unicode = 7272;
},
{
glyphname = uni1C69;
layers = (
{
layerId = "A2F8418F-339B-4F91-B830-CE586139F48E";
name = "#instance";
shapes = (
{
closed = 1;
nodes = (
(294,-10,l),
(410,28,o),
(505,151,o),
(505,307,cs),
(505,466,o),
(410,568,o),
(294,606,c),
(256,596,o),
(174,523,o),
(158,460,c),
(174,456,l),
(174,715,l),
(88,715,l),
(88,355,l),
(174,355,l),
(206,452,o),
(258,519,o),
(316,527,c),
(263,531,l),
(318,522,o),
(416,460,o),
(416,307,cs),
(416,174,o),
(336,93,o),
(286,77,c),
(330,57,l),
(130,228,l),
(80,172,l)
);
}
);
width = 545;
},
{
layerId = "B142495F-E341-49EC-94FB-15D38175E9C1";
shapes = (
{
closed = 1;
nodes = (
(336,-15,l),
(438,37,o),
(547,145,o),
(547,290,cs),
(547,458,o),
(449,553,o),
(345,595,c),
(288,568,o),
(238,527,o),
(199,464,c),
(223,432,l),
(223,714,l),
(72,714,l),
(72,340,l),
(218,340,l),
(247,398,o),
(291,445,o),
(360,471,c),
(282,468,l),
(377,414,o),
(393,357,o),
(393,290,cs),
(393,223,o),
(357,167,o),
(290,133,c),
(361,130,l),
(158,286,l),
(72,185,l)
);
}
);
width = 574;
},
{
layerId = "B4679C4A-7B1E-46C8-BD55-32AE88BDC1C0";
name = Semibold;
shapes = (
{
closed = 1;
nodes = (
(320,-13,l),
(427,34,o),
(531,147,o),
(531,296,cs),
(531,461,o),
(435,559,o),
(326,599,c),
(276,579,o),
(214,525,o),
(183,462,c),
(204,441,l),
(204,715,l),
(78,715,l),
(78,346,l),
(201,346,l),
(231,418,o),
(279,473,o),
(343,492,c),
(275,492,l),
(355,455,o),
(402,396,o),
(402,296,cs),
(402,204,o),
(349,139,o),
(288,112,c),
(349,103,l),
(147,264,l),
(75,180,l)
);
}
);
width = 563;
},
{
layerId = "F6727EBE-EF21-4659-9B68-88D73F70C0AC";
name = Medium;
shapes = (
{
closed = 1;
nodes = (
(306,-11,l),
(418,31,o),
(517,149,o),
(517,302,cs),
(517,464,o),
(422,564,o),
(309,603,c),
(265,588,o),
(193,524,o),
(170,461,c),
(188,449,l),
(188,715,l),
(83,715,l),
(83,351,l),
(187,351,l),
(218,436,o),
(268,497,o),
(329,510,c),
(269,512,l),
(335,490,o),
(409,430,o),
(409,302,cs),
(409,188,o),
(342,115,o),
(287,94,c),
(339,79,l),
(138,245,l),
(78,176,l)
);
}
);
width = 554;
},
{
layerId = "8493A466-5DD9-4D4D-B499-7052266AA123";
associatedMasterId = "DE23B2BA-64D1-45BF-8121-66FD42616F3E";
name = "Oct 15 19, 20:32";
shapes = (
{
closed = 1;
nodes = (
(294,-10,l),
(410,28,o),
(505,151,o),
(505,307,cs),
(505,466,o),
(410,568,o),
(294,606,c),
(256,596,o),
(172,519,o),
(168,477,c),
(174,456,l),
(174,715,l),
(88,715,l),
(88,355,l),
(174,355,l),
(180,381,o),
(241,531,o),
(320,524,c),
(295,521,l),
(278,526,o),
(416,490,o),
(416,307,cs),
(416,174,o),
(336,93,o),
(286,77,c),
(330,57,l),
(130,228,l),
(80,172,l)
);
}
);
width = 545;
},
{
layerId = "817F4B86-DD93-4C28-949A-BA0EB0B6E07F";
associatedMasterId = "DE23B2BA-64D1-45BF-8121-66FD42616F3E";
name = Layer3;
width = 600;
},
{
background = {
shapes = (
{
closed = 1;
nodes = (
(294,-10,l),
(410,28,o),
(505,151,o),
(505,307,cs),
(505,466,o),
(410,568,o),
(294,606,c),
(256,596,o),
(174,523,o),
(158,460,c),
(174,456,l),
(174,715,l),
(88,715,l),
(88,355,l),
(174,355,l),
(206,452,o),
(258,519,o),
(316,527,c),
(263,531,l),
(318,522,o),
(416,460,o),
(416,307,cs),
(416,174,o),
(336,93,o),
(286,77,c),
(330,57,l),
(130,228,l),
(80,172,l)
);
}
);
};
layerId = "DE23B2BA-64D1-45BF-8121-66FD42616F3E";
name = Regular;
shapes = (
{
closed = 1;
nodes = (
(294,-10,l),
(410,28,o),
(505,151,o),
(505,307,cs),
(505,466,o),
(410,568,o),
(294,606,c),
(256,596,o),
(174,523,o),
(158,460,c),
(174,456,l),
(174,715,l),
(88,715,l),
(88,355,l),
(174,355,l),
(206,452,o),
(258,519,o),
(316,527,c),
(263,531,l),
(318,522,o),
(416,460,o),
(416,307,cs),
(416,174,o),
(336,93,o),
(286,77,c),
(330,57,l),
(130,228,l),
(80,172,l)
);
}
);
width = 545;
}
);
unicode = 7273;
},
{
glyphname = uni1C6A;
layers = (
{
layerId = "A2F8418F-339B-4F91-B830-CE586139F48E";
name = "#instance";
shapes = (
{
closed = 1;
nodes = (
(447,-10,o),
(561,51,o),
(633,161,c),
(512,285,l),
(512,540,ls),
(512,616,o),
(488,729,o),
(327,729,cs),
(166,729,o),
(142,616,o),
(142,540,cs),
(142,285,l),
(21,161,l),
(93,51,o),
(207,-10,o),
(327,-10,cs)
);
},
{
closed = 1;
nodes = (
(216,57,o),
(135,134,o),
(113,160,c),
(90,125,l),
(209,244,l),
(162,234,l),
(202,189,o),
(273,166,o),
(327,166,cs),
(381,166,o),
(452,189,o),
(492,234,c),
(445,244,l),
(556,133,l),
(549,170,l),
(523,131,o),
(432,57,o),
(327,57,cs)
);
},
{
closed = 1;
nodes = (
(284,243,o),
(240,268,o),
(222,282,c),
(228,237,l),
(228,536,ls),
(228,580,o),
(230,654,o),
(327,654,cs),
(424,654,o),
(426,580,o),
(426,536,cs),
(426,237,l),
(432,282,l),
(415,267,o),
(370,243,o),
(327,243,cs)
);
}
);
width = 654;
},
{
layerId = "D603BF31-3441-41D7-B774-CA732020342A";
associatedMasterId = "B142495F-E341-49EC-94FB-15D38175E9C1";
name = "Oct 5 19, 18:28";
shapes = (
{
closed = 1;
nodes = (
(-36,181,l),
(9,65,o),
(157,-10,o),
(297,-10,c),
(297,109,l),
(212,109,o),
(136,148,o),
(97,206,c),
(93,137,l),
(191,269,l),
(127,262,l),
(175,215,o),
(225,189,o),
(297,189,c),
(297,314,l),
(264,314,o),
(224,324,o),
(202,347,c),
(202,488,ls),
(202,546,o),
(233,599,o),
(297,599,c),
(297,725,l),
(147,725,o),
(57,601,o),
(59,488,cs),
(62,310,l)
);
},
{
closed = 1;
nodes = (
(532,310,l),
(535,488,ls),
(537,601,o),
(447,725,o),
(297,725,c),
(297,599,l),
(361,599,o),
(392,546,o),
(392,488,cs),
(392,347,l),
(370,324,o),
(330,314,o),
(297,314,c),
(297,189,l),
(369,189,o),
(419,215,o),
(467,262,c),
(403,269,l),
(501,137,l),
(497,206,l),
(458,148,o),
(382,109,o),
(297,109,c),
(297,-10,l),
(437,-10,o),
(585,65,o),
(630,181,c)
);
}
);
width = 600;
},
{
layerId = "B142495F-E341-49EC-94FB-15D38175E9C1";
shapes = (
{
closed = 1;
nodes = (
(478,-10,o),
(626,65,o),
(671,181,c),
(573,310,l),
(576,488,ls),
(578,601,o),
(488,725,o),
(338,725,cs),
(188,725,o),
(98,601,o),
(100,488,cs),
(103,310,l),
(5,181,l),
(50,65,o),
(198,-10,o),
(338,-10,cs)
);
},
{
closed = 1;
nodes = (
(258,109,o),
(185,144,o),
(145,200,c),
(136,140,l),
(231,267,l),
(181,250,l),
(225,211,o),
(277,189,o),
(338,189,cs),
(399,189,o),
(451,211,o),
(495,250,c),
(445,267,l),
(540,140,l),
(531,200,l),
(491,144,o),
(418,109,o),
(338,109,cs)
);
},
{
closed = 1;
nodes = (
(295,314,o),
(241,331,o),
(229,370,c),
(243,302,l),
(243,488,ls),
(243,546,o),
(274,599,o),
(338,599,cs),
(402,599,o),
(433,546,o),
(433,488,cs),
(433,302,l),
(447,370,l),
(435,331,o),
(381,314,o),
(338,314,cs)
);
}
);
width = 676;
},
{
layerId = "B4679C4A-7B1E-46C8-BD55-32AE88BDC1C0";
name = Semibold;
shapes = (
{
closed = 1;
nodes = (
(466,-10,o),
(601,60,o),
(657,174,c),
(550,300,l),
(552,508,ls),
(553,607,o),
(488,727,o),
(334,727,cs),
(179,727,o),
(115,607,o),
(116,508,cs),
(117,300,l),
(11,174,l),
(66,60,o),
(201,-10,o),
(334,-10,cs)
);
},
{
closed = 1;
nodes = (
(242,89,o),
(166,140,o),
(133,185,c),
(119,134,l),
(222,258,l),
(174,244,l),
(216,202,o),
(275,180,o),
(334,180,cs),
(392,180,o),
(452,202,o),
(494,244,c),
(445,258,l),
(546,137,l),
(538,189,l),
(503,139,o),
(423,89,o),
(334,89,cs)
);
},
{
closed = 1;
nodes = (
(291,287,o),
(240,307,o),
(226,337,c),
(237,277,l),
(237,506,ls),
(237,559,o),
(257,620,o),
(334,620,cs),
(411,620,o),
(430,559,o),
(430,506,cs),
(430,277,l),
(441,337,l),
(428,307,o),
(377,287,o),
(334,287,cs)
);
}
);
width = 668;
},
{
layerId = "F6727EBE-EF21-4659-9B68-88D73F70C0AC";
name = Medium;
shapes = (
{
closed = 1;
nodes = (
(456,-10,o),
(580,55,o),
(644,167,c),
(530,292,l),
(531,525,ls),
(531,612,o),
(488,728,o),
(330,728,cs),
(172,728,o),
(129,612,o),
(130,525,c),
(130,292,l),
(16,167,l),
(80,55,o),
(204,-10,o),
(330,-10,cs)
);
},
{
closed = 1;
nodes = (
(228,72,o),
(150,137,o),
(122,172,c),
(104,129,l),
(215,251,l),
(168,239,l),
(209,195,o),
(274,173,o),
(330,173,cs),
(386,173,o),
(452,195,o),
(493,239,c),
(445,251,l),
(551,135,l),
(544,179,l),
(514,135,o),
(428,72,o),
(330,72,cs)
);
},
{
closed = 1;
nodes = (
(287,264,o),
(240,287,o),
(224,308,c),
(232,256,l),
(232,522,ls),
(232,570,o),
(243,638,o),
(330,638,cs),
(418,638,o),
(428,570,o),
(428,522,cs),
(428,256,l),
(436,308,l),
(421,286,o),
(373,264,o),
(330,264,cs)
);
}
);
width = 660;
},
{
layerId = "3D90C11D-D813-46A1-9691-79021F4B0D9C";
associatedMasterId = "DE23B2BA-64D1-45BF-8121-66FD42616F3E";
name = "Oct 5 19, 18:29";
shapes = (
{
closed = 1;
nodes = (
(447,-10,o),
(561,51,o),
(633,161,c),
(512,285,l),
(512,540,ls),
(512,616,o),
(488,729,o),
(327,729,cs),
(166,729,o),
(142,616,o),
(142,540,cs),
(142,285,l),
(21,161,l),
(93,51,o),
(207,-10,o),
(327,-10,cs)
);
},
{
closed = 1;
nodes = (
(200,57,o),
(112,160,o),
(117,155,c),
(90,125,l),
(209,244,l),
(162,234,l),
(202,189,o),
(273,166,o),
(327,166,cs),
(381,166,o),
(452,189,o),
(492,234,c),
(445,244,l),
(564,125,l),
(537,155,l),
(542,160,o),
(454,57,o),
(327,57,cs)
);
},
{
closed = 1;
nodes = (
(275,243,o),
(222,279,o),
(222,282,c),
(228,237,l),
(228,536,ls),
(228,580,o),
(230,654,o),
(327,654,cs),
(424,654,o),
(426,580,o),
(426,536,cs),
(426,237,l),
(432,282,l),
(432,279,o),
(379,243,o),
(327,243,cs)
);
}
);
width = 654;
},
{
layerId = "2158AEF6-410E-4D6B-A6DF-0BF8AE5F194A";
associatedMasterId = "DE23B2BA-64D1-45BF-8121-66FD42616F3E";
name = Layer5;
width = 600;
},
{
background = {
shapes = (
{
closed = 1;
nodes = (
(447,-10,o),
(561,51,o),
(633,161,c),
(512,285,l),
(512,540,ls),
(512,616,o),
(488,729,o),
(327,729,cs),
(166,729,o),
(142,616,o),
(142,540,cs),
(142,285,l),
(21,161,l),
(93,51,o),
(207,-10,o),
(327,-10,cs)
);
},
{
closed = 1;
nodes = (
(216,57,o),
(135,134,o),
(113,160,c),
(90,125,l),
(209,244,l),
(162,234,l),
(202,189,o),
(273,166,o),
(327,166,cs),
(381,166,o),
(452,189,o),
(492,234,c),
(445,244,l),
(556,133,l),
(549,170,l),
(523,131,o),
(432,57,o),
(327,57,cs)
);
},
{
closed = 1;
nodes = (
(284,243,o),
(240,268,o),
(222,282,c),
(228,237,l),
(228,536,ls),
(228,580,o),
(230,654,o),
(327,654,cs),
(424,654,o),
(426,580,o),
(426,536,cs),
(426,237,l),
(432,282,l),
(415,267,o),
(370,243,o),
(327,243,cs)
);
}
);
};
layerId = "DE23B2BA-64D1-45BF-8121-66FD42616F3E";
name = Regular;
shapes = (
{
closed = 1;
nodes = (
(447,-10,o),
(561,51,o),
(633,161,c),
(512,285,l),
(512,540,ls),
(512,616,o),
(488,729,o),
(327,729,cs),
(166,729,o),
(142,616,o),
(142,540,cs),
(142,285,l),
(21,161,l),
(93,51,o),
(207,-10,o),
(327,-10,cs)
);
},
{
closed = 1;
nodes = (
(216,57,o),
(135,134,o),
(113,160,c),
(90,125,l),
(209,244,l),
(162,234,l),
(202,189,o),
(273,166,o),
(327,166,cs),
(381,166,o),
(452,189,o),
(492,234,c),
(445,244,l),
(556,133,l),
(549,170,l),
(523,131,o),
(432,57,o),
(327,57,cs)
);
},
{
closed = 1;
nodes = (
(284,243,o),
(240,268,o),
(222,282,c),
(228,237,l),
(228,536,ls),
(228,580,o),
(230,654,o),
(327,654,cs),
(424,654,o),
(426,580,o),
(426,536,cs),
(426,237,l),
(432,282,l),
(415,267,o),
(370,243,o),
(327,243,cs)
);
}
);
width = 654;
}
);
unicode = 7274;
},
{
glyphname = uni1C6B;
layers = (
{
layerId = "A2F8418F-339B-4F91-B830-CE586139F48E";
name = "#instance";
shapes = (
{
closed = 1;
nodes = (
(256,293,l),
(256,368,l),
(216,368,ls),
(172,368,o),
(128,398,o),
(128,450,cs),
(128,530,o),
(291,631,o),
(339,647,c),
(387,631,o),
(550,530,o),
(550,450,cs),
(550,398,o),
(506,368,o),
(462,368,cs),
(422,368,l),
(422,293,l),
(462,293,ls),
(552,293,o),
(638,340,o),
(638,450,cs),
(638,585,o),
(407,706,o),
(339,725,c),
(271,706,o),
(40,585,o),
(40,450,cs),
(40,340,o),
(126,293,o),
(216,293,cs)
);
},
{
closed = 1;
nodes = (
(509,-10,o),
(523,184,o),
(526,248,c),
(446,248,l),
(446,172,o),
(426,58,o),
(339,58,cs),
(270,58,o),
(233,113,o),
(224,155,c),
(342,120,l),
(379,163,l),
(379,517,l),
(299,517,l),
(299,196,l),
(134,245,l),
(134,186,o),
(154,-10,o),
(339,-10,cs)
);
}
);
width = 678;
},
{
layerId = "B142495F-E341-49EC-94FB-15D38175E9C1";
shapes = (
{
closed = 1;
nodes = (
(238,292,l),
(238,418,l),
(218,418,ls),
(199,418,o),
(179,428,o),
(179,453,cs),
(179,520,o),
(303,577,o),
(351,600,c),
(399,577,o),
(523,520,o),
(523,453,cs),
(523,428,o),
(503,418,o),
(484,418,cs),
(464,418,l),
(464,292,l),
(484,292,ls),
(579,292,o),
(675,343,o),
(675,453,cs),
(675,581,o),
(419,710,o),
(351,729,c),
(283,710,o),
(27,581,o),
(27,453,cs),
(27,343,o),
(123,292,o),
(218,292,cs)
);
},
{
closed = 1;
nodes = (
(491,-15,o),
(583,98,o),
(588,241,c),
(475,241,l),
(475,167,o),
(432,98,o),
(351,98,cs),
(298,98,o),
(260,122,o),
(245,163,c),
(346,133,l),
(415,192,l),
(415,516,l),
(288,516,l),
(288,231,l),
(101,282,l),
(101,107,o),
(197,-15,o),
(351,-15,cs)
);
}
);
width = 702;
},
{
layerId = "B4679C4A-7B1E-46C8-BD55-32AE88BDC1C0";
name = Semibold;
shapes = (
{
closed = 1;
nodes = (
(245,293,l),
(245,399,l),
(217,399,ls),
(189,399,o),
(160,417,o),
(160,452,cs),
(160,524,o),
(299,597,o),
(347,618,c),
(395,597,o),
(533,524,o),
(533,452,cs),
(533,417,o),
(504,399,o),
(475,399,cs),
(448,399,l),
(448,293,l),
(475,293,ls),
(569,293,o),
(661,342,o),
(661,452,cs),
(661,583,o),
(415,708,o),
(347,727,c),
(279,708,o),
(32,583,o),
(32,452,cs),
(32,342,o),
(124,293,o),
(217,293,cs)
);
},
{
closed = 1;
nodes = (
(498,-13,o),
(561,131,o),
(564,244,c),
(464,244,l),
(464,169,o),
(430,83,o),
(347,83,cs),
(287,83,o),
(250,119,o),
(237,160,c),
(344,128,l),
(402,181,l),
(402,517,l),
(292,517,l),
(292,218,l),
(113,268,l),
(113,137,o),
(181,-13,o),
(347,-13,cs)
);
}
);
width = 693;
},
{
layerId = "F6727EBE-EF21-4659-9B68-88D73F70C0AC";
name = Medium;
shapes = (
{
closed = 1;
nodes = (
(251,293,l),
(251,383,l),
(217,383,ls),
(180,383,o),
(143,407,o),
(143,451,cs),
(143,527,o),
(295,615,o),
(343,633,c),
(391,615,o),
(542,527,o),
(542,451,cs),
(542,407,o),
(505,383,o),
(468,383,cs),
(434,383,l),
(434,293,l),
(468,293,ls),
(560,293,o),
(649,341,o),
(649,451,cs),
(649,584,o),
(411,707,o),
(343,726,c),
(275,707,o),
(36,584,o),
(36,451,cs),
(36,341,o),
(125,293,o),
(217,293,cs)
);
},
{
closed = 1;
nodes = (
(504,-11,o),
(541,159,o),
(544,246,c),
(455,246,l),
(455,171,o),
(428,70,o),
(343,70,cs),
(278,70,o),
(241,116,o),
(230,157,c),
(343,124,l),
(390,172,l),
(390,517,l),
(296,517,l),
(296,206,l),
(124,256,l),
(124,163,o),
(167,-11,o),
(343,-11,cs)
);
}
);
width = 685;
},
{
layerId = "817F4B86-DD93-4C28-949A-BA0EB0B6E07F";
associatedMasterId = "DE23B2BA-64D1-45BF-8121-66FD42616F3E";
name = Layer3;
width = 600;
},
{
background = {
shapes = (
{
closed = 1;
nodes = (
(256,293,l),
(256,368,l),
(216,368,ls),
(172,368,o),
(128,398,o),
(128,450,cs),
(128,530,o),
(291,631,o),
(339,647,c),
(387,631,o),
(550,530,o),
(550,450,cs),
(550,398,o),
(506,368,o),
(462,368,cs),
(422,368,l),
(422,293,l),
(462,293,ls),
(552,293,o),
(638,340,o),
(638,450,cs),
(638,585,o),
(407,706,o),
(339,725,c),
(271,706,o),
(40,585,o),
(40,450,cs),
(40,340,o),
(126,293,o),
(216,293,cs)
);
},
{
closed = 1;
nodes = (
(509,-10,o),
(523,184,o),
(526,248,c),
(446,248,l),
(446,172,o),
(426,58,o),
(339,58,cs),
(270,58,o),
(233,113,o),
(224,155,c),
(342,120,l),
(379,163,l),
(379,517,l),
(299,517,l),
(299,196,l),
(134,245,l),
(134,186,o),
(154,-10,o),
(339,-10,cs)
);
}
);
};
layerId = "DE23B2BA-64D1-45BF-8121-66FD42616F3E";
name = Regular;
shapes = (
{
closed = 1;
nodes = (
(256,293,l),
(256,368,l),
(216,368,ls),
(172,368,o),
(128,398,o),
(128,450,cs),
(128,530,o),
(291,631,o),
(339,647,c),
(387,631,o),
(550,530,o),
(550,450,cs),
(550,398,o),
(506,368,o),
(462,368,cs),
(422,368,l),
(422,293,l),
(462,293,ls),
(552,293,o),
(638,340,o),
(638,450,cs),
(638,585,o),
(407,706,o),
(339,725,c),
(271,706,o),
(40,585,o),
(40,450,cs),
(40,340,o),
(126,293,o),
(216,293,cs)
);
},
{
closed = 1;
nodes = (
(509,-10,o),
(523,184,o),
(526,248,c),
(446,248,l),
(446,172,o),
(426,58,o),
(339,58,cs),
(270,58,o),
(233,113,o),
(224,155,c),
(342,120,l),
(379,163,l),
(379,517,l),
(299,517,l),
(299,196,l),
(134,245,l),
(134,186,o),
(154,-10,o),
(339,-10,cs)
);
}
);
width = 678;
}
);
unicode = 7275;
},
{
glyphname = uni1C6D;
layers = (
{
layerId = "A2F8418F-339B-4F91-B830-CE586139F48E";
name = "#instance";
shapes = (
{
closed = 1;
nodes = (
(549,-10,o),
(601,99,o),
(606,193,c),
(529,193,l),
(529,121,o),
(487,65,o),
(432,65,cs),
(369,65,o),
(330,137,o),
(330,249,cs),
(330,387,o),
(367,419,o),
(434,419,cs),
(497,419,o),
(579,343,o),
(605,317,c),
(605,590,o),
(476,725,o),
(319,725,cs),
(152,725,o),
(49,559,o),
(49,362,cs),
(49,177,o),
(115,61,o),
(140,0,c),
(237,0,l),
(213,49,o),
(137,182,o),
(137,362,cs),
(137,525,o),
(214,650,o),
(319,650,cs),
(399,650,o),
(515,556,o),
(508,426,c),
(519,450,l),
(502,461,o),
(455,494,o),
(392,494,cs),
(316,494,o),
(249,421,o),
(249,249,cs),
(249,145,o),
(287,-10,o),
(432,-10,cs)
);
}
);
width = 655;
},
{
layerId = "B142495F-E341-49EC-94FB-15D38175E9C1";
shapes = (
{
closed = 1;
nodes = (
(570,-15,o),
(637,72,o),
(637,193,c),
(510,193,l),
(510,143,o),
(490,111,o),
(459,111,cs),
(419,111,o),
(397,165,o),
(397,266,cs),
(397,357,o),
(422,399,o),
(465,399,cs),
(510,399,o),
(589,346,o),
(637,306,c),
(637,583,o),
(511,729,o),
(339,729,cs),
(172,729,o),
(36,578,o),
(36,363,cs),
(36,218,o),
(72,85,o),
(105,0,c),
(270,0,l),
(224,85,o),
(181,209,o),
(181,363,cs),
(181,499,o),
(246,603,o),
(339,603,cs),
(409,603,o),
(459,554,o),
(475,471,c),
(498,498,l),
(481,510,o),
(442,520,o),
(411,520,cs),
(308,520,o),
(242,420,o),
(242,266,cs),
(242,94,o),
(327,-15,o),
(459,-15,cs)
);
}
);
width = 673;
},
{
layerId = "B4679C4A-7B1E-46C8-BD55-32AE88BDC1C0";
name = Semibold;
shapes = (
{
closed = 1;
nodes = (
(562,-13,o),
(624,82,o),
(625,193,c),
(517,193,l),
(517,134,o),
(489,94,o),
(449,94,cs),
(400,94,o),
(372,154,o),
(372,260,cs),
(372,368,o),
(401,406,o),
(453,406,cs),
(505,406,o),
(585,345,o),
(625,310,c),
(625,586,o),
(498,727,o),
(332,727,cs),
(165,727,o),
(41,571,o),
(41,362,cs),
(41,202,o),
(88,76,o),
(118,0,c),
(258,0,l),
(220,72,o),
(164,199,o),
(164,362,cs),
(164,509,o),
(234,621,o),
(332,621,cs),
(405,621,o),
(480,555,o),
(487,454,c),
(506,480,l),
(489,491,o),
(447,510,o),
(404,510,cs),
(311,510,o),
(245,421,o),
(245,260,cs),
(245,113,o),
(312,-13,o),
(449,-13,cs)
);
}
);
width = 666;
},
{
layerId = "F6727EBE-EF21-4659-9B68-88D73F70C0AC";
name = Medium;
shapes = (
{
closed = 1;
nodes = (
(555,-11,o),
(612,91,o),
(615,193,c),
(523,193,l),
(523,127,o),
(488,79,o),
(440,79,cs),
(384,79,o),
(350,145,o),
(350,254,cs),
(350,378,o),
(383,413,o),
(443,413,cs),
(501,413,o),
(582,344,o),
(614,314,c),
(614,588,o),
(486,726,o),
(325,726,cs),
(158,726,o),
(45,565,o),
(45,362,cs),
(45,189,o),
(102,68,o),
(130,0,c),
(247,0,l),
(216,60,o),
(150,190,o),
(150,362,cs),
(150,517,o),
(223,636,o),
(325,636,cs),
(402,636,o),
(498,555,o),
(498,439,c),
(513,464,l),
(496,475,o),
(451,502,o),
(398,502,cs),
(314,502,o),
(247,421,o),
(247,254,cs),
(247,130,o),
(299,-11,o),
(440,-11,cs)
);
}
);
width = 660;
},
{
layerId = "817F4B86-DD93-4C28-949A-BA0EB0B6E07F";
associatedMasterId = "DE23B2BA-64D1-45BF-8121-66FD42616F3E";
name = Layer3;
width = 600;
},
{
background = {
shapes = (
{
closed = 1;
nodes = (
(549,-10,o),
(601,99,o),
(606,193,c),
(529,193,l),
(529,121,o),
(487,65,o),
(432,65,cs),
(369,65,o),
(330,137,o),
(330,249,cs),
(330,387,o),
(367,419,o),
(434,419,cs),
(497,419,o),
(579,343,o),
(605,317,c),
(605,590,o),
(476,725,o),
(319,725,cs),
(152,725,o),
(49,559,o),
(49,362,cs),
(49,177,o),
(115,61,o),
(140,0,c),
(237,0,l),
(213,49,o),
(137,182,o),
(137,362,cs),
(137,525,o),
(214,650,o),
(319,650,cs),
(399,650,o),
(515,556,o),
(508,426,c),
(519,450,l),
(502,461,o),
(455,494,o),
(392,494,cs),
(316,494,o),
(249,421,o),
(249,249,cs),
(249,145,o),
(287,-10,o),
(432,-10,cs)
);
}
);
};
layerId = "DE23B2BA-64D1-45BF-8121-66FD42616F3E";
name = Regular;
shapes = (
{
closed = 1;
nodes = (
(549,-10,o),
(601,99,o),
(606,193,c),
(529,193,l),
(529,121,o),
(487,65,o),
(432,65,cs),
(369,65,o),
(330,137,o),
(330,249,cs),
(330,387,o),
(367,419,o),
(434,419,cs),
(497,419,o),
(579,343,o),
(605,317,c),
(605,590,o),
(476,725,o),
(319,725,cs),
(152,725,o),
(49,559,o),
(49,362,cs),
(49,177,o),
(115,61,o),
(140,0,c),
(237,0,l),
(213,49,o),
(137,182,o),
(137,362,cs),
(137,525,o),
(214,650,o),
(319,650,cs),
(399,650,o),
(515,556,o),
(508,426,c),
(519,450,l),
(502,461,o),
(455,494,o),
(392,494,cs),
(316,494,o),
(249,421,o),
(249,249,cs),
(249,145,o),
(287,-10,o),
(432,-10,cs)
);
}
);
width = 655;
}
);
unicode = 7277;
},
{
glyphname = uni1C6E;
layers = (
{
layerId = "A2F8418F-339B-4F91-B830-CE586139F48E";
name = "#instance";
shapes = (
{
closed = 1;
nodes = (
(412,-10,o),
(500,73,o),
(538,173,c),
(446,173,l),
(430,142,o),
(379,65,o),
(287,65,cs),
(182,65,o),
(142,155,o),
(133,174,c),
(109,137,l),
(538,542,l),
(500,642,o),
(412,725,o),
(287,725,cs),
(162,725,o),
(74,642,o),
(36,542,c),
(128,542,l),
(144,573,o),
(195,650,o),
(287,650,cs),
(392,650,o),
(430,563,o),
(440,540,c),
(464,578,l),
(36,173,l),
(74,73,o),
(162,-10,o),
(287,-10,cs)
);
}
);
width = 574;
},
{
layerId = "B142495F-E341-49EC-94FB-15D38175E9C1";
shapes = (
{
closed = 1;
nodes = (
(436,-15,o),
(538,80,o),
(568,198,c),
(417,198,l),
(396,147,o),
(361,111,o),
(295,111,cs),
(230,111,o),
(193,152,o),
(175,205,c),
(169,143,l),
(568,531,l),
(523,652,o),
(437,729,o),
(296,729,cs),
(155,729,o),
(53,634,o),
(23,516,c),
(174,516,l),
(195,567,o),
(230,603,o),
(296,603,cs),
(363,603,o),
(398,562,o),
(415,509,c),
(432,581,l),
(23,183,l),
(68,62,o),
(155,-15,o),
(295,-15,cs)
);
}
);
width = 591;
},
{
layerId = "B4679C4A-7B1E-46C8-BD55-32AE88BDC1C0";
name = Semibold;
shapes = (
{
closed = 1;
nodes = (
(427,-13,o),
(524,77,o),
(557,188,c),
(428,188,l),
(409,145,o),
(368,94,o),
(292,94,cs),
(212,94,o),
(174,153,o),
(159,193,c),
(147,141,l),
(557,535,l),
(514,648,o),
(427,727,o),
(293,727,cs),
(158,727,o),
(61,637,o),
(28,526,c),
(157,526,l),
(176,569,o),
(217,621,o),
(293,621,cs),
(374,621,o),
(410,563,o),
(425,521,c),
(444,580,l),
(28,179,l),
(70,66,o),
(158,-13,o),
(292,-13,cs)
);
}
);
width = 585;
},
{
layerId = "F6727EBE-EF21-4659-9B68-88D73F70C0AC";
name = Medium;
shapes = (
{
closed = 1;
nodes = (
(419,-11,o),
(511,75,o),
(547,180,c),
(437,180,l),
(420,143,o),
(374,79,o),
(289,79,cs),
(196,79,o),
(157,154,o),
(145,183,c),
(127,139,l),
(547,539,l),
(507,645,o),
(419,726,o),
(290,726,cs),
(160,726,o),
(68,640,o),
(32,534,c),
(142,534,l),
(159,571,o),
(205,636,o),
(290,636,cs),
(383,636,o),
(421,563,o),
(433,531,c),
(455,579,l),
(32,176,l),
(72,70,o),
(160,-11,o),
(289,-11,cs)
);
}
);
width = 579;
},
{
layerId = "817F4B86-DD93-4C28-949A-BA0EB0B6E07F";
associatedMasterId = "DE23B2BA-64D1-45BF-8121-66FD42616F3E";
name = Layer3;
width = 600;
},
{
background = {
shapes = (
{
closed = 1;
nodes = (
(412,-10,o),
(500,73,o),
(538,173,c),
(446,173,l),
(430,142,o),
(379,65,o),
(287,65,cs),
(182,65,o),
(142,155,o),
(133,174,c),
(109,137,l),
(538,542,l),
(500,642,o),
(412,725,o),
(287,725,cs),
(162,725,o),
(74,642,o),
(36,542,c),
(128,542,l),
(144,573,o),
(195,650,o),
(287,650,cs),
(392,650,o),
(430,563,o),
(440,540,c),
(464,578,l),
(36,173,l),
(74,73,o),
(162,-10,o),
(287,-10,cs)
);
}
);
};
layerId = "DE23B2BA-64D1-45BF-8121-66FD42616F3E";
name = Regular;
shapes = (
{
closed = 1;
nodes = (
(412,-10,o),
(500,73,o),
(538,173,c),
(446,173,l),
(430,142,o),
(379,65,o),
(287,65,cs),
(182,65,o),
(142,155,o),
(133,174,c),
(109,137,l),
(538,542,l),
(500,642,o),
(412,725,o),
(287,725,cs),
(162,725,o),
(74,642,o),
(36,542,c),
(128,542,l),
(144,573,o),
(195,650,o),
(287,650,cs),
(392,650,o),
(430,563,o),
(440,540,c),
(464,578,l),
(36,173,l),
(74,73,o),
(162,-10,o),
(287,-10,cs)
);
}
);
width = 574;
}
);
unicode = 7278;
},
{
glyphname = uni1C6F;
layers = (
{
layerId = "A2F8418F-339B-4F91-B830-CE586139F48E";
name = "#instance";
shapes = (
{
closed = 1;
nodes = (
(506,-10,o),
(612,36,o),
(698,159,c),
(649,219,l),
(616,173,o),
(581,138,o),
(539,112,c),
(560,86,l),
(560,455,l),
(647,625,l),
(574,693,o),
(487,725,o),
(373,725,cs),
(222,725,o),
(116,679,o),
(30,556,c),
(79,496,l),
(110,542,o),
(147,576,o),
(189,602,c),
(168,628,l),
(168,260,l),
(81,90,l),
(154,22,o),
(241,-10,o),
(355,-10,cs)
);
},
{
closed = 1;
nodes = (
(280,65,o),
(220,86,o),
(167,124,c),
(170,75,l),
(254,240,l),
(254,672,l),
(231,623,l),
(273,641,o),
(321,650,o),
(373,650,cs),
(448,650,o),
(508,629,o),
(561,591,c),
(558,640,l),
(474,475,l),
(474,42,l),
(498,91,l),
(454,72,o),
(407,65,o),
(355,65,cs)
);
}
);
width = 728;
},
{
layerId = "B142495F-E341-49EC-94FB-15D38175E9C1";
shapes = (
{
closed = 1;
nodes = (
(534,-15,o),
(654,36,o),
(757,143,c),
(682,256,l),
(654,224,o),
(622,195,o),
(597,178,c),
(611,151,l),
(611,403,l),
(729,564,l),
(659,650,o),
(553,729,o),
(375,729,cs),
(240,729,o),
(120,680,o),
(17,571,c),
(92,458,l),
(120,490,o),
(152,519,o),
(177,536,c),
(162,563,l),
(162,311,l),
(45,150,l),
(115,64,o),
(221,-15,o),
(399,-15,cs)
);
},
{
closed = 1;
nodes = (
(310,110,o),
(250,142,o),
(201,188,c),
(196,133,l),
(310,296,l),
(310,642,l),
(278,591,l),
(307,599,o),
(341,603,o),
(375,603,cs),
(463,603,o),
(524,572,o),
(573,528,c),
(577,572,l),
(463,428,l),
(463,72,l),
(496,121,l),
(467,113,o),
(433,110,o),
(399,110,cs)
);
}
);
width = 774;
},
{
layerId = "B4679C4A-7B1E-46C8-BD55-32AE88BDC1C0";
name = Semibold;
shapes = (
{
closed = 1;
nodes = (
(523,-13,o),
(638,36,o),
(735,149,c),
(670,242,l),
(640,205,o),
(606,174,o),
(575,153,c),
(592,126,l),
(592,423,l),
(698,587,l),
(627,666,o),
(528,727,o),
(374,727,cs),
(233,727,o),
(118,679,o),
(22,565,c),
(87,472,l),
(116,510,o),
(150,540,o),
(181,561,c),
(164,588,l),
(164,292,l),
(58,128,l),
(129,48,o),
(228,-13,o),
(382,-13,cs)
);
},
{
closed = 1;
nodes = (
(299,93,o),
(239,121,o),
(188,164,c),
(186,111,l),
(289,275,l),
(289,653,l),
(260,603,l),
(294,615,o),
(334,621,o),
(374,621,cs),
(457,621,o),
(518,593,o),
(569,552,c),
(570,598,l),
(467,446,l),
(467,61,l),
(497,110,l),
(462,97,o),
(423,93,o),
(382,93,cs)
);
}
);
width = 757;
},
{
layerId = "F6727EBE-EF21-4659-9B68-88D73F70C0AC";
name = Medium;
shapes = (
{
closed = 1;
nodes = (
(514,-11,o),
(624,36,o),
(715,154,c),
(659,230,l),
(627,188,o),
(593,155,o),
(556,131,c),
(575,105,l),
(575,440,l),
(671,607,l),
(599,680,o),
(506,726,o),
(374,726,cs),
(227,726,o),
(117,679,o),
(26,560,c),
(83,485,l),
(113,527,o),
(148,559,o),
(185,583,c),
(166,609,l),
(166,275,l),
(70,108,l),
(142,34,o),
(235,-11,o),
(368,-11,cs)
);
},
{
closed = 1;
nodes = (
(289,78,o),
(229,103,o),
(177,143,c),
(178,92,l),
(271,257,l),
(271,663,l),
(245,614,l),
(283,629,o),
(327,636,o),
(374,636,cs),
(452,636,o),
(513,612,o),
(565,572,c),
(564,620,l),
(471,461,l),
(471,51,l),
(497,100,l),
(458,84,o),
(415,78,o),
(368,78,cs)
);
}
);
width = 742;
},
{
layerId = "817F4B86-DD93-4C28-949A-BA0EB0B6E07F";
associatedMasterId = "DE23B2BA-64D1-45BF-8121-66FD42616F3E";
name = Layer3;
width = 600;
},
{
background = {
shapes = (
{
closed = 1;
nodes = (
(506,-10,o),
(612,36,o),
(698,159,c),
(649,219,l),
(616,173,o),
(581,138,o),
(539,112,c),
(560,86,l),
(560,455,l),
(647,625,l),
(574,693,o),
(487,725,o),
(373,725,cs),
(222,725,o),
(116,679,o),
(30,556,c),
(79,496,l),
(110,542,o),
(147,576,o),
(189,602,c),
(168,628,l),
(168,260,l),
(81,90,l),
(154,22,o),
(241,-10,o),
(355,-10,cs)
);
},
{
closed = 1;
nodes = (
(280,65,o),
(220,86,o),
(167,124,c),
(170,75,l),
(254,240,l),
(254,672,l),
(231,623,l),
(273,641,o),
(321,650,o),
(373,650,cs),
(448,650,o),
(508,629,o),
(561,591,c),
(558,640,l),
(474,475,l),
(474,42,l),
(498,91,l),
(454,72,o),
(407,65,o),
(355,65,cs)
);
}
);
};
layerId = "DE23B2BA-64D1-45BF-8121-66FD42616F3E";
name = Regular;
shapes = (
{
closed = 1;
nodes = (
(506,-10,o),
(612,36,o),
(698,159,c),
(649,219,l),
(616,173,o),
(581,138,o),
(539,112,c),
(560,86,l),
(560,455,l),
(647,625,l),
(574,693,o),
(487,725,o),
(373,725,cs),
(222,725,o),
(116,679,o),
(30,556,c),
(79,496,l),
(110,542,o),
(147,576,o),
(189,602,c),
(168,628,l),
(168,260,l),
(81,90,l),
(154,22,o),
(241,-10,o),
(355,-10,cs)
);
},
{
closed = 1;
nodes = (
(280,65,o),
(220,86,o),
(167,124,c),
(170,75,l),
(254,240,l),
(254,672,l),
(231,623,l),
(273,641,o),
(321,650,o),
(373,650,cs),
(448,650,o),
(508,629,o),
(561,591,c),
(558,640,l),
(474,475,l),
(474,42,l),
(498,91,l),
(454,72,o),
(407,65,o),
(355,65,cs)
);
}
);
width = 728;
}
);
unicode = 7279;
},
{
glyphname = uni1C70;
layers = (
{
layerId = "A2F8418F-339B-4F91-B830-CE586139F48E";
name = "#instance";
shapes = (
{
closed = 1;
nodes = (
(402,0,l),
(402,667,l),
(387,633,l),
(455,611,o),
(581,520,o),
(581,355,cs),
(581,203,o),
(470,112,o),
(447,100,c),
(486,26,l),
(517,42,o),
(669,158,o),
(669,355,cs),
(669,575,o),
(491,689,o),
(402,714,c),
(316,714,l),
(316,46,l),
(332,80,l),
(262,103,o),
(137,193,o),
(137,359,cs),
(137,511,o),
(248,602,o),
(271,614,c),
(232,688,l),
(201,672,o),
(49,556,o),
(49,359,cs),
(49,139,o),
(227,25,o),
(316,0,c)
);
}
);
width = 718;
},
{
layerId = "B142495F-E341-49EC-94FB-15D38175E9C1";
shapes = (
{
closed = 1;
nodes = (
(470,0,l),
(470,619,l),
(441,590,l),
(529,572,o),
(609,474,o),
(609,363,cs),
(609,264,o),
(572,205,o),
(506,151,c),
(607,41,l),
(702,114,o),
(765,225,o),
(765,363,cs),
(765,526,o),
(650,657,o),
(521,714,c),
(331,714,l),
(331,95,l),
(360,124,l),
(272,141,o),
(192,240,o),
(192,353,cs),
(192,445,o),
(229,509,o),
(295,563,c),
(194,673,l),
(99,600,o),
(36,489,o),
(36,351,cs),
(36,188,o),
(151,57,o),
(280,0,c)
);
}
);
width = 801;
},
{
layerId = "B4679C4A-7B1E-46C8-BD55-32AE88BDC1C0";
name = Semibold;
shapes = (
{
closed = 1;
nodes = (
(444,0,l),
(444,637,l),
(421,606,l),
(501,586,o),
(598,491,o),
(598,360,cs),
(598,241,o),
(533,170,o),
(484,132,c),
(562,35,l),
(632,87,o),
(729,200,o),
(729,360,cs),
(729,545,o),
(590,669,o),
(476,714,c),
(325,714,l),
(325,76,l),
(349,107,l),
(268,127,o),
(171,222,o),
(171,355,cs),
(171,470,o),
(236,544,o),
(286,582,c),
(208,679,l),
(138,627,o),
(41,514,o),
(41,354,cs),
(41,169,o),
(180,45,o),
(293,0,c)
);
}
);
width = 770;
},
{
layerId = "F6727EBE-EF21-4659-9B68-88D73F70C0AC";
name = Medium;
shapes = (
{
closed = 1;
nodes = (
(422,0,l),
(422,653,l),
(403,620,l),
(477,599,o),
(589,506,o),
(589,357,cs),
(589,221,o),
(500,139,o),
(464,115,c),
(522,30,l),
(572,63,o),
(697,178,o),
(697,357,cs),
(697,561,o),
(538,680,o),
(437,714,c),
(320,714,l),
(320,60,l),
(340,93,l),
(265,114,o),
(153,207,o),
(153,357,cs),
(153,492,o),
(242,575,o),
(278,599,c),
(221,684,l),
(171,651,o),
(45,536,o),
(45,357,cs),
(45,153,o),
(205,34,o),
(305,0,c)
);
}
);
width = 742;
},
{
layerId = "817F4B86-DD93-4C28-949A-BA0EB0B6E07F";
associatedMasterId = "DE23B2BA-64D1-45BF-8121-66FD42616F3E";
name = Layer3;
width = 600;
},
{
background = {
shapes = (
{
closed = 1;
nodes = (
(402,0,l),
(402,667,l),
(387,633,l),
(455,611,o),
(581,520,o),
(581,355,cs),
(581,203,o),
(470,112,o),
(447,100,c),
(486,26,l),
(517,42,o),
(669,158,o),
(669,355,cs),
(669,575,o),
(491,689,o),
(402,714,c),
(316,714,l),
(316,46,l),
(332,80,l),
(262,103,o),
(137,193,o),
(137,359,cs),
(137,511,o),
(248,602,o),
(271,614,c),
(232,688,l),
(201,672,o),
(49,556,o),
(49,359,cs),
(49,139,o),
(227,25,o),
(316,0,c)
);
}
);
};
layerId = "DE23B2BA-64D1-45BF-8121-66FD42616F3E";
name = Regular;
shapes = (
{
closed = 1;
nodes = (
(402,0,l),
(402,667,l),
(387,633,l),
(455,611,o),
(581,520,o),
(581,355,cs),
(581,203,o),
(470,112,o),
(447,100,c),
(486,26,l),
(517,42,o),
(669,158,o),
(669,355,cs),
(669,575,o),
(491,689,o),
(402,714,c),
(316,714,l),
(316,46,l),
(332,80,l),
(262,103,o),
(137,193,o),
(137,359,cs),
(137,511,o),
(248,602,o),
(271,614,c),
(232,688,l),
(201,672,o),
(49,556,o),
(49,359,cs),
(49,139,o),
(227,25,o),
(316,0,c)
);
}
);
width = 718;
}
);
unicode = 7280;
},
{
glyphname = uni1C71;
layers = (
{
layerId = "A2F8418F-339B-4F91-B830-CE586139F48E";
name = "#instance";
shapes = (
{
closed = 1;
nodes = (
(139,725,o),
(71,658,o),
(58,647,c),
(153,580,l),
(121,643,l),
(121,177,l),
(143,250,l),
(66,136,l),
(90,97,o),
(147,-10,o),
(281,-10,cs),
(415,-10,o),
(484,129,o),
(496,152,c),
(401,152,l),
(395,139,o),
(355,65,o),
(281,65,cs),
(217,65,o),
(167,121,o),
(156,154,c),
(142,104,l),
(470,596,l),
(416,593,l),
(474,551,o),
(491,482,o),
(494,479,c),
(532,574,l),
(485,653,o),
(394,725,o),
(273,725,cs)
);
},
{
closed = 1;
nodes = (
(334,650,o),
(383,620,o),
(398,608,c),
(409,649,l),
(175,297,l),
(197,290,l),
(197,680,l),
(200,642,l),
(185,634,o),
(214,650,o),
(273,650,cs)
);
}
);
width = 568;
},
{
layerId = "B142495F-E341-49EC-94FB-15D38175E9C1";
shapes = (
{
closed = 1;
nodes = (
(225,729,o),
(147,686,o),
(68,605,c),
(182,508,l),
(147,572,l),
(147,202,l),
(176,281,l),
(73,160,l),
(141,45,o),
(211,-15,o),
(318,-15,cs),
(413,-15,o),
(498,32,o),
(568,178,c),
(416,178,l),
(390,134,o),
(356,111,o),
(319,111,cs),
(271,111,o),
(240,148,o),
(209,200,c),
(200,135,l),
(533,520,l),
(488,512,l),
(506,491,o),
(520,471,o),
(543,433,c),
(605,570,l),
(540,675,o),
(454,729,o),
(331,729,cs)
);
},
{
closed = 1;
nodes = (
(373,603,o),
(414,591,o),
(443,557,c),
(454,606,l),
(253,370,l),
(282,359,l),
(282,646,l),
(252,585,l),
(273,599,o),
(297,603,o),
(324,603,cs)
);
}
);
width = 606;
},
{
layerId = "B4679C4A-7B1E-46C8-BD55-32AE88BDC1C0";
name = Semibold;
shapes = (
{
closed = 1;
nodes = (
(192,727,o),
(118,675,o),
(64,621,c),
(171,535,l),
(137,599,l),
(137,192,l),
(164,269,l),
(70,151,l),
(122,65,o),
(187,-13,o),
(304,-13,cs),
(414,-13,o),
(493,68,o),
(541,168,c),
(410,168,l),
(392,136,o),
(355,94,o),
(305,94,cs),
(251,94,o),
(213,138,o),
(189,183,c),
(178,123,l),
(509,549,l),
(461,542,l),
(494,513,o),
(509,475,o),
(524,450,c),
(578,572,l),
(519,666,o),
(432,727,o),
(309,727,cs)
);
},
{
closed = 1;
nodes = (
(359,621,o),
(402,602,o),
(426,576,c),
(437,622,l),
(224,343,l),
(250,333,l),
(250,659,l),
(232,606,l),
(240,612,o),
(265,621,o),
(305,621,cs)
);
}
);
width = 592;
},
{
layerId = "F6727EBE-EF21-4659-9B68-88D73F70C0AC";
name = Medium;
shapes = (
{
closed = 1;
nodes = (
(164,726,o),
(93,666,o),
(61,635,c),
(162,559,l),
(129,622,l),
(129,184,l),
(153,259,l),
(68,143,l),
(105,82,o),
(166,-11,o),
(292,-11,cs),
(414,-11,o),
(488,100,o),
(517,160,c),
(405,160,l),
(394,138,o),
(355,79,o),
(292,79,cs),
(233,79,o),
(189,129,o),
(172,168,c),
(159,113,l),
(489,574,l),
(437,569,l),
(483,533,o),
(500,479,o),
(508,465,c),
(554,573,l),
(501,659,o),
(412,726,o),
(290,726,cs)
);
},
{
closed = 1;
nodes = (
(346,636,o),
(392,611,o),
(411,593,c),
(422,636,l),
(198,319,l),
(222,310,l),
(222,670,l),
(215,625,l),
(211,624,o),
(238,636,o),
(288,636,cs)
);
}
);
width = 579;
},
{
layerId = "817F4B86-DD93-4C28-949A-BA0EB0B6E07F";
associatedMasterId = "DE23B2BA-64D1-45BF-8121-66FD42616F3E";
name = Layer3;
width = 600;
},
{
background = {
shapes = (
{
closed = 1;
nodes = (
(139,725,o),
(71,658,o),
(58,647,c),
(153,580,l),
(121,643,l),
(121,177,l),
(143,250,l),
(66,136,l),
(90,97,o),
(147,-10,o),
(281,-10,cs),
(415,-10,o),
(484,129,o),
(496,152,c),
(401,152,l),
(395,139,o),
(355,65,o),
(281,65,cs),
(217,65,o),
(167,121,o),
(156,154,c),
(142,104,l),
(470,596,l),
(416,593,l),
(474,551,o),
(491,482,o),
(494,479,c),
(532,574,l),
(485,653,o),
(394,725,o),
(273,725,cs)
);
},
{
closed = 1;
nodes = (
(334,650,o),
(383,620,o),
(398,608,c),
(409,649,l),
(175,297,l),
(197,290,l),
(197,680,l),
(200,642,l),
(185,634,o),
(214,650,o),
(273,650,cs)
);
}
);
};
layerId = "DE23B2BA-64D1-45BF-8121-66FD42616F3E";
name = Regular;
shapes = (
{
closed = 1;
nodes = (
(139,725,o),
(71,658,o),
(58,647,c),
(153,580,l),
(121,643,l),
(121,177,l),
(143,250,l),
(66,136,l),
(90,97,o),
(147,-10,o),
(281,-10,cs),
(415,-10,o),
(484,129,o),
(496,152,c),
(401,152,l),
(395,139,o),
(355,65,o),
(281,65,cs),
(217,65,o),
(167,121,o),
(156,154,c),
(142,104,l),
(470,596,l),
(416,593,l),
(474,551,o),
(491,482,o),
(494,479,c),
(532,574,l),
(485,653,o),
(394,725,o),
(273,725,cs)
);
},
{
closed = 1;
nodes = (
(334,650,o),
(383,620,o),
(398,608,c),
(409,649,l),
(175,297,l),
(197,290,l),
(197,680,l),
(200,642,l),
(185,634,o),
(214,650,o),
(273,650,cs)
);
}
);
width = 568;
}
);
unicode = 7281;
},
{
glyphname = uni1C72;
layers = (
{
layerId = "A2F8418F-339B-4F91-B830-CE586139F48E";
name = "#instance";
shapes = (
{
closed = 1;
nodes = (
(417,-10,o),
(485,57,o),
(498,68,c),
(403,135,l),
(435,72,l),
(435,538,l),
(413,465,l),
(490,579,l),
(466,618,o),
(409,725,o),
(275,725,cs),
(141,725,o),
(72,586,o),
(60,563,c),
(155,563,l),
(161,576,o),
(201,650,o),
(275,650,cs),
(339,650,o),
(389,594,o),
(400,561,c),
(414,611,l),
(86,119,l),
(140,122,l),
(82,164,o),
(65,233,o),
(62,236,c),
(24,141,l),
(71,62,o),
(162,-10,o),
(283,-10,cs)
);
},
{
closed = 1;
nodes = (
(222,65,o),
(173,95,o),
(158,107,c),
(147,66,l),
(381,418,l),
(359,425,l),
(359,35,l),
(394,91,l),
(377,79,o),
(342,65,o),
(283,65,cs)
);
}
);
width = 568;
},
{
layerId = "1F4244A3-4DFA-4228-8004-70EA8A314689";
associatedMasterId = "B142495F-E341-49EC-94FB-15D38175E9C1";
name = "Oct 3 19, 17:51";
shapes = (
{
closed = 1;
nodes = (
(202,536,l),
(228,580,o),
(262,603,o),
(300,603,cs),
(345,603,o),
(375,570,o),
(404,522,c),
(424,585,l),
(59,165,l),
(131,70,l),
(545,554,l),
(477,669,o),
(407,729,o),
(300,729,cs),
(205,729,o),
(120,682,o),
(50,536,c)
);
},
{
closed = 1;
nodes = (
(336,369,l),
(336,0,l),
(471,98,l),
(471,542,l)
);
},
{
closed = 1;
nodes = (
(471,187,l),
(417,134,o),
(368,111,o),
(303,111,cs),
(217,111,o),
(150,151,o),
(82,283,c),
(18,144,l),
(85,35,o),
(171,-15,o),
(302,-15,cs),
(392,-15,o),
(481,37,o),
(550,121,c)
);
}
);
width = 600;
},
{
layerId = "B142495F-E341-49EC-94FB-15D38175E9C1";
shapes = (
{
closed = 1;
nodes = (
(392,-15,o),
(470,28,o),
(549,109,c),
(435,206,l),
(470,142,l),
(470,512,l),
(441,433,l),
(544,554,l),
(476,669,o),
(406,729,o),
(299,729,cs),
(204,729,o),
(119,682,o),
(49,536,c),
(201,536,l),
(227,580,o),
(261,603,o),
(298,603,cs),
(346,603,o),
(377,566,o),
(408,514,c),
(417,579,l),
(84,194,l),
(129,202,l),
(111,223,o),
(97,243,o),
(74,281,c),
(12,144,l),
(77,39,o),
(163,-15,o),
(286,-15,cs)
);
},
{
closed = 1;
nodes = (
(244,111,o),
(203,123,o),
(174,157,c),
(163,108,l),
(364,344,l),
(335,355,l),
(335,68,l),
(365,129,l),
(344,115,o),
(320,111,o),
(293,111,cs)
);
}
);
width = 606;
},
{
layerId = "B4679C4A-7B1E-46C8-BD55-32AE88BDC1C0";
name = Semibold;
shapes = (
{
closed = 1;
nodes = (
(402,-13,o),
(476,39,o),
(530,93,c),
(423,179,l),
(457,116,l),
(457,522,l),
(430,445,l),
(524,564,l),
(472,650,o),
(407,727,o),
(290,727,cs),
(180,727,o),
(101,646,o),
(53,546,c),
(184,546,l),
(202,578,o),
(239,621,o),
(289,621,cs),
(343,621,o),
(381,577,o),
(405,532,c),
(416,591,l),
(85,166,l),
(133,172,l),
(100,201,o),
(85,239,o),
(70,264,c),
(16,143,l),
(75,48,o),
(162,-13,o),
(285,-13,cs)
);
},
{
closed = 1;
nodes = (
(235,94,o),
(192,112,o),
(168,138,c),
(157,92,l),
(370,372,l),
(344,381,l),
(344,56,l),
(376,115,l),
(356,102,o),
(329,94,o),
(289,94,cs)
);
}
);
width = 592;
},
{
layerId = "F6727EBE-EF21-4659-9B68-88D73F70C0AC";
name = Medium;
shapes = (
{
closed = 1;
nodes = (
(410,-11,o),
(481,48,o),
(513,80,c),
(412,156,l),
(445,93,l),
(445,530,l),
(421,456,l),
(506,572,l),
(469,633,o),
(408,726,o),
(282,726,cs),
(160,726,o),
(86,614,o),
(57,555,c),
(169,555,l),
(180,577,o),
(219,636,o),
(282,636,cs),
(341,636,o),
(385,586,o),
(402,547,c),
(415,602,l),
(85,141,l),
(137,146,l),
(91,181,o),
(74,236,o),
(66,249,c),
(20,142,l),
(73,55,o),
(162,-11,o),
(284,-11,cs)
);
},
{
closed = 1;
nodes = (
(228,79,o),
(182,103,o),
(163,122,c),
(152,78,l),
(376,396,l),
(352,404,l),
(352,45,l),
(385,102,l),
(367,90,o),
(336,79,o),
(286,79,cs)
);
}
);
width = 579;
},
{
layerId = "BBD1202F-DEF1-41B5-AED9-65404823A49B";
associatedMasterId = "DE23B2BA-64D1-45BF-8121-66FD42616F3E";
name = "Oct 15 19, 20:33";
shapes = (
{
closed = 1;
nodes = (
(417,-10,o),
(485,57,o),
(498,68,c),
(403,135,l),
(435,72,l),
(435,538,l),
(413,465,l),
(490,579,l),
(466,618,o),
(409,725,o),
(275,725,cs),
(141,725,o),
(72,586,o),
(60,563,c),
(155,563,l),
(161,576,o),
(201,650,o),
(275,650,cs),
(339,650,o),
(389,594,o),
(400,561,c),
(414,611,l),
(86,119,l),
(140,122,l),
(82,164,o),
(65,233,o),
(62,236,c),
(24,141,l),
(71,62,o),
(162,-10,o),
(283,-10,cs)
);
},
{
closed = 1;
nodes = (
(222,65,o),
(173,95,o),
(158,107,c),
(147,66,l),
(381,418,l),
(359,425,l),
(359,35,l),
(356,73,l),
(371,81,o),
(342,65,o),
(283,65,cs)
);
}
);
width = 568;
},
{
layerId = "E4FE3E4B-A1D2-4027-8FE1-69C95666C91A";
associatedMasterId = "DE23B2BA-64D1-45BF-8121-66FD42616F3E";
name = Layer4;
width = 600;
},
{
background = {
shapes = (
{
closed = 1;
nodes = (
(417,-10,o),
(485,57,o),
(498,68,c),
(403,135,l),
(435,72,l),
(435,538,l),
(413,465,l),
(490,579,l),
(466,618,o),
(409,725,o),
(275,725,cs),
(141,725,o),
(72,586,o),
(60,563,c),
(155,563,l),
(161,576,o),
(201,650,o),
(275,650,cs),
(339,650,o),
(389,594,o),
(400,561,c),
(414,611,l),
(86,119,l),
(140,122,l),
(82,164,o),
(65,233,o),
(62,236,c),
(24,141,l),
(71,62,o),
(162,-10,o),
(283,-10,cs)
);
},
{
closed = 1;
nodes = (
(222,65,o),
(173,95,o),
(158,107,c),
(147,66,l),
(381,418,l),
(359,425,l),
(359,35,l),
(394,91,l),
(377,79,o),
(342,65,o),
(283,65,cs)
);
}
);
};
layerId = "DE23B2BA-64D1-45BF-8121-66FD42616F3E";
name = Regular;
shapes = (
{
closed = 1;
nodes = (
(417,-10,o),
(485,57,o),
(498,68,c),
(403,135,l),
(435,72,l),
(435,538,l),
(413,465,l),
(490,579,l),
(466,618,o),
(409,725,o),
(275,725,cs),
(141,725,o),
(72,586,o),
(60,563,c),
(155,563,l),
(161,576,o),
(201,650,o),
(275,650,cs),
(339,650,o),
(389,594,o),
(400,561,c),
(414,611,l),
(86,119,l),
(140,122,l),
(82,164,o),
(65,233,o),
(62,236,c),
(24,141,l),
(71,62,o),
(162,-10,o),
(283,-10,cs)
);
},
{
closed = 1;
nodes = (
(222,65,o),
(173,95,o),
(158,107,c),
(147,66,l),
(381,418,l),
(359,425,l),
(359,35,l),
(394,91,l),
(377,79,o),
(342,65,o),
(283,65,cs)
);
}
);
width = 568;
}
);
unicode = 7282;
},
{
glyphname = uni1C73;
layers = (
{
layerId = "A2F8418F-339B-4F91-B830-CE586139F48E";
name = "#instance";
shapes = (
{
closed = 1;
nodes = (
(510,-10,o),
(620,148,o),
(620,357,cs),
(620,566,o),
(510,724,o),
(316,724,cs),
(156,724,o),
(76,608,o),
(45,477,c),
(137,477,l),
(144,543,o),
(217,649,o),
(316,649,cs),
(422,649,o),
(488,578,o),
(516,480,c),
(544,477,l),
(525,495,o),
(488,531,o),
(420,531,cs),
(318,531,o),
(254,453,o),
(254,357,cs),
(254,261,o),
(318,183,o),
(420,183,cs),
(488,183,o),
(525,217,o),
(542,236,c),
(516,232,l),
(488,143,o),
(422,65,o),
(316,65,cs),
(217,65,o),
(144,171,o),
(137,237,c),
(45,237,l),
(76,106,o),
(156,-10,o),
(316,-10,cs)
);
},
{
closed = 1;
nodes = (
(372,254,o),
(325,301,o),
(325,357,cs),
(325,413,o),
(372,460,o),
(428,460,cs),
(484,460,o),
(531,413,o),
(531,357,cs),
(531,301,o),
(484,254,o),
(428,254,cs)
);
}
);
width = 669;
},
{
layerId = "EB927ADE-3739-43CF-91AC-E574FAA7EF03";
associatedMasterId = "B142495F-E341-49EC-94FB-15D38175E9C1";
name = "Oct 3 19, 17:04";
shapes = (
{
closed = 1;
nodes = (
(571,180,o),
(650,259,o),
(650,357,cs),
(650,455,o),
(571,534,o),
(473,534,cs),
(374,534,o),
(295,455,o),
(295,357,cs),
(295,259,o),
(374,180,o),
(473,180,cs)
);
},
{
closed = 1;
nodes = (
(65,252,l),
(98,82,o),
(213,-15,o),
(379,-15,cs),
(568,-15,o),
(688,129,o),
(688,357,cs),
(688,590,o),
(572,729,o),
(379,729,cs),
(214,729,o),
(101,633,o),
(65,462,c),
(212,462,l),
(231,553,o),
(290,603,o),
(379,603,cs),
(484,603,o),
(554,505,o),
(554,357,cs),
(554,209,o),
(484,111,o),
(379,111,cs),
(290,111,o),
(231,161,o),
(212,252,c)
);
},
{
closed = 1;
nodes = (
(439,296,o),
(411,323,o),
(411,357,cs),
(411,391,o),
(439,418,o),
(473,418,cs),
(506,418,o),
(534,391,o),
(534,357,cs),
(534,323,o),
(506,296,o),
(473,296,cs)
);
}
);
width = 724;
},
{
layerId = "B142495F-E341-49EC-94FB-15D38175E9C1";
shapes = (
{
closed = 1;
nodes = (
(535,-15,o),
(655,129,o),
(655,357,cs),
(655,590,o),
(539,729,o),
(346,729,cs),
(181,729,o),
(68,633,o),
(32,462,c),
(179,462,l),
(198,553,o),
(257,603,o),
(346,603,cs),
(410,603,o),
(482,576,o),
(510,471,c),
(534,471,l),
(499,522,o),
(463,532,o),
(428,532,cs),
(338,532,o),
(265,455,o),
(265,357,cs),
(265,259,o),
(338,182,o),
(428,182,cs),
(460,182,o),
(499,192,o),
(536,243,c),
(510,243,l),
(482,138,o),
(410,111,o),
(346,111,cs),
(257,111,o),
(198,161,o),
(179,252,c),
(32,252,l),
(65,82,o),
(180,-15,o),
(346,-15,cs)
);
},
{
closed = 1;
nodes = (
(378,391,o),
(406,418,o),
(440,418,cs),
(474,418,o),
(502,391,o),
(502,357,cs),
(502,323,o),
(474,296,o),
(440,296,cs),
(406,296,o),
(378,323,o),
(378,357,cs)
);
}
);
width = 691;
},
{
layerId = "B4679C4A-7B1E-46C8-BD55-32AE88BDC1C0";
name = Semibold;
shapes = (
{
closed = 1;
nodes = (
(525,-13,o),
(642,136,o),
(642,357,cs),
(642,581,o),
(528,727,o),
(335,727,cs),
(171,727,o),
(71,623,o),
(37,468,c),
(163,468,l),
(178,549,o),
(242,620,o),
(335,620,cs),
(414,620,o),
(484,577,o),
(512,474,c),
(538,473,l),
(509,512,o),
(473,531,o),
(425,531,cs),
(331,531,o),
(261,454,o),
(261,357,cs),
(261,260,o),
(331,183,o),
(425,183,cs),
(471,183,o),
(509,202,o),
(538,240,c),
(512,239,l),
(484,140,o),
(414,94,o),
(335,94,cs),
(242,94,o),
(178,165,o),
(163,246,c),
(37,246,l),
(69,91,o),
(171,-13,o),
(335,-13,cs)
);
},
{
closed = 1;
nodes = (
(376,339,o),
(376,374,o),
(397,395,cs),
(418,416,o),
(453,417,o),
(474,396,cs),
(495,375,o),
(495,340,o),
(474,319,cs),
(453,298,o),
(418,297,o),
(397,318,cs)
);
}
);
width = 683;
},
{
layerId = "F6727EBE-EF21-4659-9B68-88D73F70C0AC";
name = Medium;
shapes = (
{
closed = 1;
nodes = (
(517,-11,o),
(630,142,o),
(630,357,cs),
(630,573,o),
(519,725,o),
(325,725,cs),
(163,725,o),
(74,615,o),
(41,473,c),
(149,473,l),
(160,546,o),
(229,635,o),
(325,635,cs),
(418,635,o),
(486,577,o),
(514,477,c),
(541,475,l),
(517,503,o),
(481,531,o),
(422,531,cs),
(324,531,o),
(257,454,o),
(257,357,cs),
(257,260,o),
(324,183,o),
(422,183,cs),
(480,183,o),
(517,210,o),
(540,238,c),
(514,235,l),
(486,142,o),
(418,79,o),
(325,79,cs),
(229,79,o),
(160,168,o),
(149,241,c),
(41,241,l),
(73,99,o),
(163,-11,o),
(325,-11,cs)
);
},
{
closed = 1;
nodes = (
(374,294,o),
(349,336,o),
(359,375,cs),
(369,414,o),
(410,440,o),
(450,430,cs),
(489,420,o),
(514,378,o),
(504,339,cs),
(494,300,o),
(453,274,o),
(413,284,cs)
);
}
);
width = 675;
},
{
layerId = "9A878D2B-7A3E-4031-9E72-4FBF3EF91930";
associatedMasterId = "DE23B2BA-64D1-45BF-8121-66FD42616F3E";
name = "Oct 15 19, 20:34";
shapes = (
{
closed = 1;
nodes = (
(510,-10,o),
(620,148,o),
(620,357,cs),
(620,566,o),
(510,724,o),
(316,724,cs),
(156,724,o),
(76,608,o),
(45,477,c),
(137,477,l),
(144,543,o),
(217,649,o),
(316,649,cs),
(422,649,o),
(488,578,o),
(516,480,c),
(504,510,l),
(518,496,o),
(488,531,o),
(420,531,cs),
(318,531,o),
(254,453,o),
(254,357,cs),
(254,261,o),
(318,183,o),
(420,183,cs),
(488,183,o),
(518,218,o),
(504,204,c),
(516,232,l),
(488,143,o),
(422,65,o),
(316,65,cs),
(217,65,o),
(144,171,o),
(137,237,c),
(45,237,l),
(76,106,o),
(156,-10,o),
(316,-10,cs)
);
},
{
closed = 1;
nodes = (
(372,254,o),
(325,301,o),
(325,357,cs),
(325,413,o),
(372,460,o),
(428,460,cs),
(484,460,o),
(531,413,o),
(531,357,cs),
(531,301,o),
(484,254,o),
(428,254,cs)
);
}
);
width = 669;
},
{
layerId = "E4FE3E4B-A1D2-4027-8FE1-69C95666C91A";
associatedMasterId = "DE23B2BA-64D1-45BF-8121-66FD42616F3E";
name = Layer4;
width = 600;
},
{
background = {
shapes = (
{
closed = 1;
nodes = (
(510,-10,o),
(620,148,o),
(620,357,cs),
(620,566,o),
(510,724,o),
(316,724,cs),
(156,724,o),
(76,608,o),
(45,477,c),
(137,477,l),
(144,543,o),
(217,649,o),
(316,649,cs),
(422,649,o),
(488,578,o),
(516,480,c),
(544,477,l),
(525,495,o),
(488,531,o),
(420,531,cs),
(318,531,o),
(254,453,o),
(254,357,cs),
(254,261,o),
(318,183,o),
(420,183,cs),
(488,183,o),
(525,217,o),
(542,236,c),
(516,232,l),
(488,143,o),
(422,65,o),
(316,65,cs),
(217,65,o),
(144,171,o),
(137,237,c),
(45,237,l),
(76,106,o),
(156,-10,o),
(316,-10,cs)
);
},
{
closed = 1;
nodes = (
(372,254,o),
(325,301,o),
(325,357,cs),
(325,413,o),
(372,460,o),
(428,460,cs),
(484,460,o),
(531,413,o),
(531,357,cs),
(531,301,o),
(484,254,o),
(428,254,cs)
);
}
);
};
layerId = "DE23B2BA-64D1-45BF-8121-66FD42616F3E";
name = Regular;
shapes = (
{
closed = 1;
nodes = (
(510,-10,o),
(620,148,o),
(620,357,cs),
(620,566,o),
(510,724,o),
(316,724,cs),
(156,724,o),
(76,608,o),
(45,477,c),
(137,477,l),
(144,543,o),
(217,649,o),
(316,649,cs),
(422,649,o),
(488,578,o),
(516,480,c),
(544,477,l),
(525,495,o),
(488,531,o),
(420,531,cs),
(318,531,o),
(254,453,o),
(254,357,cs),
(254,261,o),
(318,183,o),
(420,183,cs),
(488,183,o),
(525,217,o),
(542,236,c),
(516,232,l),
(488,143,o),
(422,65,o),
(316,65,cs),
(217,65,o),
(144,171,o),
(137,237,c),
(45,237,l),
(76,106,o),
(156,-10,o),
(316,-10,cs)
);
},
{
closed = 1;
nodes = (
(372,254,o),
(325,301,o),
(325,357,cs),
(325,413,o),
(372,460,o),
(428,460,cs),
(484,460,o),
(531,413,o),
(531,357,cs),
(531,301,o),
(484,254,o),
(428,254,cs)
);
}
);
width = 669;
}
);
unicode = 7283;
},
{
glyphname = uni1C74;
layers = (
{
layerId = "A2F8418F-339B-4F91-B830-CE586139F48E";
name = "#instance";
shapes = (
{
closed = 1;
nodes = (
(171,0,l),
(171,464,l),
(143,396,l),
(396,643,l),
(363,619,l),
(376,609,o),
(492,525,o),
(492,355,cs),
(492,169,o),
(351,43,o),
(309,0,c),
(426,0,l),
(465,41,o),
(580,179,o),
(580,355,cs),
(580,526,o),
(448,683,o),
(368,725,c),
(143,506,l),
(171,494,l),
(171,714,l),
(85,714,l),
(85,0,l)
);
}
);
width = 629;
},
{
layerId = "0A8C688E-1324-4550-9552-8FB1C3CB5F2D";
associatedMasterId = "B142495F-E341-49EC-94FB-15D38175E9C1";
name = "Oct 3 19, 14:40";
shapes = (
{
closed = 1;
nodes = (
(241,0,l),
(241,485,l),
(203,352,l),
(457,571,l),
(399,560,l),
(472,511,o),
(495,433,o),
(495,346,cs),
(495,237,o),
(439,112,o),
(332,0,c),
(521,0,l),
(593,83,o),
(650,200,o),
(650,356,cs),
(650,522,o),
(575,635,o),
(455,729,c),
(209,513,l),
(241,509,l),
(241,714,l),
(90,714,l),
(90,0,l)
);
}
);
width = 720;
},
{
layerId = "B142495F-E341-49EC-94FB-15D38175E9C1";
shapes = (
{
closed = 1;
nodes = (
(223,0,l),
(223,485,l),
(185,366,l),
(429,595,l),
(353,571,l),
(442,511,o),
(467,433,o),
(467,346,cs),
(467,237,o),
(411,112,o),
(324,0,c),
(503,0,l),
(555,83,o),
(622,210,o),
(622,356,cs),
(622,529,o),
(529,645,o),
(400,729,c),
(191,533,l),
(223,509,l),
(223,714,l),
(75,714,l),
(75,0,l)
);
}
);
width = 658;
},
{
layerId = "B4679C4A-7B1E-46C8-BD55-32AE88BDC1C0";
name = Semibold;
shapes = (
{
closed = 1;
nodes = (
(203,0,l),
(203,477,l),
(169,377,l),
(417,613,l),
(357,589,l),
(417,548,o),
(477,468,o),
(477,349,cs),
(477,211,o),
(389,86,o),
(318,0,c),
(474,0,l),
(521,67,o),
(606,198,o),
(606,355,cs),
(606,528,o),
(499,659,o),
(388,727,c),
(173,523,l),
(203,503,l),
(203,714,l),
(79,714,l),
(79,0,l)
);
}
);
width = 647;
},
{
layerId = "F6727EBE-EF21-4659-9B68-88D73F70C0AC";
name = Medium;
shapes = (
{
closed = 1;
nodes = (
(186,0,l),
(186,470,l),
(155,387,l),
(406,629,l),
(360,605,l),
(395,580,o),
(485,498,o),
(485,352,cs),
(485,189,o),
(369,63,o),
(313,0,c),
(449,0,l),
(492,53,o),
(592,188,o),
(592,355,cs),
(592,527,o),
(472,672,o),
(377,726,c),
(157,514,l),
(186,498,l),
(186,714,l),
(82,714,l),
(82,0,l)
);
}
);
width = 638;
},
{
layerId = "E4FE3E4B-A1D2-4027-8FE1-69C95666C91A";
associatedMasterId = "DE23B2BA-64D1-45BF-8121-66FD42616F3E";
name = Layer4;
width = 600;
},
{
background = {
shapes = (
{
closed = 1;
nodes = (
(171,0,l),
(171,464,l),
(143,396,l),
(396,643,l),
(363,619,l),
(376,609,o),
(492,525,o),
(492,355,cs),
(492,169,o),
(351,43,o),
(309,0,c),
(426,0,l),
(465,41,o),
(580,179,o),
(580,355,cs),
(580,526,o),
(448,683,o),
(368,725,c),
(143,506,l),
(171,494,l),
(171,714,l),
(85,714,l),
(85,0,l)
);
}
);
};
layerId = "DE23B2BA-64D1-45BF-8121-66FD42616F3E";
name = Regular;
shapes = (
{
closed = 1;
nodes = (
(171,0,l),
(171,464,l),
(143,396,l),
(396,643,l),
(363,619,l),
(376,609,o),
(492,525,o),
(492,355,cs),
(492,169,o),
(351,43,o),
(309,0,c),
(426,0,l),
(465,41,o),
(580,179,o),
(580,355,cs),
(580,526,o),
(448,683,o),
(368,725,c),
(143,506,l),
(171,494,l),
(171,714,l),
(85,714,l),
(85,0,l)
);
}
);
width = 629;
}
);
unicode = 7284;
},
{
glyphname = uni1C76;
layers = (
{
layerId = "A2F8418F-339B-4F91-B830-CE586139F48E";
name = "#instance";
shapes = (
{
closed = 1;
nodes = (
(503,-10,o),
(606,156,o),
(606,353,cs),
(606,386,o),
(604,417,o),
(600,446,c),
(511,446,l),
(515,417,o),
(518,386,o),
(518,353,cs),
(518,190,o),
(441,65,o),
(336,65,cs),
(256,65,o),
(140,159,o),
(147,289,c),
(136,265,l),
(153,254,o),
(200,221,o),
(263,221,cs),
(339,221,o),
(406,294,o),
(406,466,cs),
(406,570,o),
(368,725,o),
(223,725,cs),
(106,725,o),
(54,616,o),
(49,522,c),
(126,522,l),
(126,594,o),
(168,650,o),
(223,650,cs),
(286,650,o),
(325,578,o),
(325,466,cs),
(325,328,o),
(288,296,o),
(221,296,cs),
(158,296,o),
(76,372,o),
(50,398,c),
(50,125,o),
(179,-10,o),
(336,-10,cs)
);
},
{
closed = 1;
nodes = (
(582,510,o),
(610,538,o),
(610,572,cs),
(610,606,o),
(582,634,o),
(548,634,cs),
(514,634,o),
(486,606,o),
(486,572,cs),
(486,538,o),
(514,510,o),
(548,510,cs)
);
}
);
width = 655;
},
{
layerId = "B142495F-E341-49EC-94FB-15D38175E9C1";
shapes = (
{
closed = 1;
nodes = (
(501,-15,o),
(637,136,o),
(637,351,cs),
(637,384,o),
(635,416,o),
(632,447,c),
(486,447,l),
(490,416,o),
(492,384,o),
(492,351,cs),
(492,215,o),
(427,111,o),
(334,111,cs),
(264,111,o),
(214,160,o),
(198,243,c),
(175,216,l),
(192,204,o),
(231,194,o),
(262,194,cs),
(365,194,o),
(431,294,o),
(431,448,cs),
(431,620,o),
(346,729,o),
(214,729,cs),
(103,729,o),
(36,642,o),
(36,521,c),
(163,521,l),
(163,571,o),
(183,603,o),
(214,603,cs),
(254,603,o),
(276,549,o),
(276,448,cs),
(276,357,o),
(251,315,o),
(208,315,cs),
(163,315,o),
(84,368,o),
(36,408,c),
(36,131,o),
(162,-15,o),
(334,-15,cs)
);
},
{
closed = 1;
nodes = (
(604,509,o),
(645,550,o),
(645,598,cs),
(645,647,o),
(604,686,o),
(556,686,cs),
(507,686,o),
(467,647,o),
(467,598,cs),
(467,550,o),
(507,509,o),
(556,509,cs)
);
}
);
width = 677;
},
{
layerId = "B4679C4A-7B1E-46C8-BD55-32AE88BDC1C0";
name = Semibold;
shapes = (
{
closed = 1;
nodes = (
(502,-13,o),
(625,143,o),
(625,352,cs),
(625,385,o),
(623,417,o),
(620,446,c),
(496,446,l),
(500,417,o),
(502,385,o),
(502,352,cs),
(502,205,o),
(432,94,o),
(335,94,cs),
(261,94,o),
(186,159,o),
(179,260,c),
(161,235,l),
(178,223,o),
(219,204,o),
(263,204,cs),
(355,204,o),
(421,294,o),
(421,455,cs),
(421,601,o),
(355,727,o),
(217,727,cs),
(104,727,o),
(43,632,o),
(41,522,c),
(149,522,l),
(149,580,o),
(177,621,o),
(217,621,cs),
(266,621,o),
(295,560,o),
(295,455,cs),
(295,346,o),
(265,308,o),
(213,308,cs),
(161,308,o),
(81,370,o),
(41,404,c),
(41,129,o),
(168,-13,o),
(335,-13,cs)
);
},
{
closed = 1;
nodes = (
(595,510,o),
(632,546,o),
(632,588,cs),
(632,631,o),
(595,666,o),
(553,666,cs),
(510,666,o),
(474,631,o),
(474,588,cs),
(474,546,o),
(510,510,o),
(553,510,cs)
);
}
);
width = 669;
},
{
layerId = "F6727EBE-EF21-4659-9B68-88D73F70C0AC";
name = Medium;
shapes = (
{
closed = 1;
nodes = (
(502,-11,o),
(615,150,o),
(615,352,cs),
(615,385,o),
(613,417,o),
(609,446,c),
(504,446,l),
(508,417,o),
(510,385,o),
(510,352,cs),
(510,197,o),
(437,79,o),
(335,79,cs),
(258,79,o),
(162,159,o),
(162,275,c),
(148,251,l),
(165,239,o),
(209,213,o),
(263,213,cs),
(347,213,o),
(413,294,o),
(413,461,cs),
(413,585,o),
(362,726,o),
(220,726,cs),
(105,726,o),
(49,624,o),
(45,522,c),
(137,522,l),
(137,587,o),
(172,636,o),
(220,636,cs),
(277,636,o),
(311,569,o),
(311,461,cs),
(311,337,o),
(277,302,o),
(217,302,cs),
(159,302,o),
(78,371,o),
(46,401,c),
(46,127,o),
(174,-11,o),
(335,-11,cs)
);
},
{
closed = 1;
nodes = (
(588,510,o),
(620,542,o),
(620,580,cs),
(620,618,o),
(588,649,o),
(550,649,cs),
(512,649,o),
(480,618,o),
(480,580,cs),
(480,542,o),
(512,510,o),
(550,510,cs)
);
}
);
width = 661;
},
{
layerId = "817F4B86-DD93-4C28-949A-BA0EB0B6E07F";
associatedMasterId = "DE23B2BA-64D1-45BF-8121-66FD42616F3E";
name = Layer3;
width = 600;
},
{
background = {
shapes = (
{
closed = 1;
nodes = (
(503,-10,o),
(606,156,o),
(606,353,cs),
(606,386,o),
(604,417,o),
(600,446,c),
(511,446,l),
(515,417,o),
(518,386,o),
(518,353,cs),
(518,190,o),
(441,65,o),
(336,65,cs),
(256,65,o),
(140,159,o),
(147,289,c),
(136,265,l),
(153,254,o),
(200,221,o),
(263,221,cs),
(339,221,o),
(406,294,o),
(406,466,cs),
(406,570,o),
(368,725,o),
(223,725,cs),
(106,725,o),
(54,616,o),
(49,522,c),
(126,522,l),
(126,594,o),
(168,650,o),
(223,650,cs),
(286,650,o),
(325,578,o),
(325,466,cs),
(325,328,o),
(288,296,o),
(221,296,cs),
(158,296,o),
(76,372,o),
(50,398,c),
(50,125,o),
(179,-10,o),
(336,-10,cs)
);
},
{
closed = 1;
nodes = (
(582,510,o),
(610,538,o),
(610,572,cs),
(610,606,o),
(582,634,o),
(548,634,cs),
(514,634,o),
(486,606,o),
(486,572,cs),
(486,538,o),
(514,510,o),
(548,510,cs)
);
}
);
};
layerId = "DE23B2BA-64D1-45BF-8121-66FD42616F3E";
name = Regular;
shapes = (
{
closed = 1;
nodes = (
(503,-10,o),
(606,156,o),
(606,353,cs),
(606,386,o),
(604,417,o),
(600,446,c),
(511,446,l),
(515,417,o),
(518,386,o),
(518,353,cs),
(518,190,o),
(441,65,o),
(336,65,cs),
(256,65,o),
(140,159,o),
(147,289,c),
(136,265,l),
(153,254,o),
(200,221,o),
(263,221,cs),
(339,221,o),
(406,294,o),
(406,466,cs),
(406,570,o),
(368,725,o),
(223,725,cs),
(106,725,o),
(54,616,o),
(49,522,c),
(126,522,l),
(126,594,o),
(168,650,o),
(223,650,cs),
(286,650,o),
(325,578,o),
(325,466,cs),
(325,328,o),
(288,296,o),
(221,296,cs),
(158,296,o),
(76,372,o),
(50,398,c),
(50,125,o),
(179,-10,o),
(336,-10,cs)
);
},
{
closed = 1;
nodes = (
(582,510,o),
(610,538,o),
(610,572,cs),
(610,606,o),
(582,634,o),
(548,634,cs),
(514,634,o),
(486,606,o),
(486,572,cs),
(486,538,o),
(514,510,o),
(548,510,cs)
);
}
);
width = 655;
}
);
unicode = 7286;
},
{
glyphname = uni1C77;
layers = (
{
layerId = "A2F8418F-339B-4F91-B830-CE586139F48E";
name = "#instance";
shapes = (
{
closed = 1;
nodes = (
(374,158,l),
(318,158,l),
(487,-10,l),
(501,3,o),
(669,119,o),
(669,317,cs),
(669,519,o),
(539,725,o),
(332,725,cs),
(206,725,o),
(173,635,o),
(173,578,cs),
(173,422,o),
(359,295,o),
(617,308,c),
(581,308,l),
(581,180,o),
(496,105,o),
(482,97,c),
(516,73,l),
(346,246,l),
(176,73,l),
(207,97,l),
(205,103,o),
(138,158,o),
(138,286,cs),
(138,351,o),
(157,408,o),
(181,453,c),
(101,490,l),
(72,436,o),
(49,368,o),
(49,286,cs),
(49,86,o),
(191,3,o),
(205,-10,c)
);
},
{
closed = 1;
nodes = (
(260,614,o),
(285,650,o),
(343,650,cs),
(479,650,o),
(578,466,o),
(578,378,c),
(602,380,l),
(477,372,o),
(260,429,o),
(260,572,cs)
);
}
);
width = 718;
},
{
layerId = "B142495F-E341-49EC-94FB-15D38175E9C1";
shapes = (
{
closed = 1;
nodes = (
(417,175,l),
(353,175,l),
(542,-15,l),
(676,77,o),
(747,202,o),
(747,369,cs),
(747,566,o),
(597,729,o),
(427,729,cs),
(303,729,o),
(234,648,o),
(234,554,cs),
(234,407,o),
(414,302,o),
(623,302,c),
(595,334,l),
(589,254,o),
(549,188,o),
(499,158,c),
(553,139,l),
(385,305,l),
(224,146,l),
(275,159,l),
(223,193,o),
(191,257,o),
(191,333,cs),
(191,377,o),
(200,415,o),
(222,455,c),
(86,511,l),
(53,451,o),
(36,379,o),
(36,304,cs),
(36,178,o),
(97,77,o),
(229,-15,c)
);
},
{
closed = 1;
nodes = (
(391,583,o),
(410,603,o),
(442,603,cs),
(506,603,o),
(598,524,o),
(598,410,c),
(618,419,l),
(501,419,o),
(391,467,o),
(391,550,cs)
);
}
);
width = 783;
},
{
layerId = "B4679C4A-7B1E-46C8-BD55-32AE88BDC1C0";
name = Semibold;
shapes = (
{
closed = 1;
nodes = (
(401,169,l),
(340,169,l),
(521,-13,l),
(610,49,o),
(718,170,o),
(718,349,cs),
(718,548,o),
(575,727,o),
(391,727,cs),
(267,727,o),
(211,643,o),
(211,563,cs),
(211,413,o),
(393,299,o),
(621,304,c),
(590,324,l),
(586,226,o),
(529,156,o),
(493,135,c),
(539,114,l),
(371,283,l),
(206,119,l),
(249,135,l),
(216,159,o),
(171,220,o),
(171,315,cs),
(171,367,o),
(184,412,o),
(206,454,c),
(92,503,l),
(60,445,o),
(41,375,o),
(41,297,cs),
(41,143,o),
(132,49,o),
(220,-13,c)
);
},
{
closed = 1;
nodes = (
(342,595,o),
(363,621,o),
(405,621,cs),
(496,621,o),
(591,502,o),
(591,398,c),
(612,405,l),
(492,401,o),
(342,453,o),
(342,559,cs)
);
}
);
width = 758;
},
{
layerId = "F6727EBE-EF21-4659-9B68-88D73F70C0AC";
name = Medium;
shapes = (
{
closed = 1;
nodes = (
(387,163,l),
(328,163,l),
(503,-11,l),
(553,25,o),
(692,143,o),
(692,332,cs),
(692,533,o),
(556,726,o),
(360,726,cs),
(235,726,o),
(191,639,o),
(191,571,cs),
(191,418,o),
(375,297,o),
(619,306,c),
(585,316,l),
(583,202,o),
(512,129,o),
(487,115,c),
(527,92,l),
(358,263,l),
(190,95,l),
(227,115,l),
(210,130,o),
(154,187,o),
(154,300,cs),
(154,359,o),
(170,410,o),
(193,454,c),
(97,496,l),
(66,440,o),
(45,371,o),
(45,291,cs),
(45,113,o),
(163,25,o),
(212,-11,c)
);
},
{
closed = 1;
nodes = (
(299,605,o),
(322,636,o),
(372,636,cs),
(487,636,o),
(584,483,o),
(584,387,c),
(607,392,l),
(484,386,o),
(299,440,o),
(299,566,cs)
);
}
);
width = 737;
},
{
layerId = "817F4B86-DD93-4C28-949A-BA0EB0B6E07F";
associatedMasterId = "DE23B2BA-64D1-45BF-8121-66FD42616F3E";
name = Layer3;
width = 600;
},
{
background = {
shapes = (
{
closed = 1;
nodes = (
(374,158,l),
(318,158,l),
(487,-10,l),
(501,3,o),
(669,119,o),
(669,317,cs),
(669,519,o),
(539,725,o),
(332,725,cs),
(206,725,o),
(173,635,o),
(173,578,cs),
(173,422,o),
(359,295,o),
(617,308,c),
(581,308,l),
(581,180,o),
(496,105,o),
(482,97,c),
(516,73,l),
(346,246,l),
(176,73,l),
(207,97,l),
(205,103,o),
(138,158,o),
(138,286,cs),
(138,351,o),
(157,408,o),
(181,453,c),
(101,490,l),
(72,436,o),
(49,368,o),
(49,286,cs),
(49,86,o),
(191,3,o),
(205,-10,c)
);
},
{
closed = 1;
nodes = (
(260,614,o),
(285,650,o),
(343,650,cs),
(479,650,o),
(578,466,o),
(578,378,c),
(602,380,l),
(477,372,o),
(260,429,o),
(260,572,cs)
);
}
);
};
layerId = "DE23B2BA-64D1-45BF-8121-66FD42616F3E";
name = Regular;
shapes = (
{
closed = 1;
nodes = (
(374,158,l),
(318,158,l),
(487,-10,l),
(501,3,o),
(669,119,o),
(669,317,cs),
(669,519,o),
(539,725,o),
(332,725,cs),
(206,725,o),
(173,635,o),
(173,578,cs),
(173,422,o),
(359,295,o),
(617,308,c),
(581,308,l),
(581,180,o),
(496,105,o),
(482,97,c),
(516,73,l),
(346,246,l),
(176,73,l),
(207,97,l),
(205,103,o),
(138,158,o),
(138,286,cs),
(138,351,o),
(157,408,o),
(181,453,c),
(101,490,l),
(72,436,o),
(49,368,o),
(49,286,cs),
(49,86,o),
(191,3,o),
(205,-10,c)
);
},
{
closed = 1;
nodes = (
(260,614,o),
(285,650,o),
(343,650,cs),
(479,650,o),
(578,466,o),
(578,378,c),
(602,380,l),
(477,372,o),
(260,429,o),
(260,572,cs)
);
}
);
width = 718;
}
);
unicode = 7287;
},
{
glyphname = uni1C78;
layers = (
{
layerId = "A2F8418F-339B-4F91-B830-CE586139F48E";
name = "#instance";
shapes = (
{
closed = 1;
nodes = (
(167,590,o),
(196,610,o),
(196,658,cs),
(196,707,o),
(167,725,o),
(133,725,cs),
(99,725,o),
(72,707,o),
(72,658,cs),
(72,610,o),
(99,590,o),
(133,590,cs)
);
}
);
width = 268;
},
{
layerId = "B142495F-E341-49EC-94FB-15D38175E9C1";
shapes = (
{
closed = 1;
nodes = (
(189,563,o),
(228,587,o),
(228,646,cs),
(228,707,o),
(189,729,o),
(143,729,cs),
(95,729,o),
(57,707,o),
(57,646,cs),
(57,587,o),
(95,563,o),
(143,563,cs)
);
}
);
width = 285;
},
{
layerId = "B4679C4A-7B1E-46C8-BD55-32AE88BDC1C0";
name = Semibold;
shapes = (
{
closed = 1;
nodes = (
(180,573,o),
(216,596,o),
(216,650,cs),
(216,707,o),
(180,727,o),
(139,727,cs),
(97,727,o),
(63,707,o),
(63,650,cs),
(63,596,o),
(97,573,o),
(139,573,cs)
);
}
);
width = 279;
},
{
layerId = "F6727EBE-EF21-4659-9B68-88D73F70C0AC";
name = Medium;
shapes = (
{
closed = 1;
nodes = (
(173,582,o),
(205,603,o),
(205,654,cs),
(205,707,o),
(173,726,o),
(136,726,cs),
(98,726,o),
(68,707,o),
(68,654,cs),
(68,603,o),
(98,582,o),
(136,582,cs)
);
}
);
width = 273;
},
{
layerId = "817F4B86-DD93-4C28-949A-BA0EB0B6E07F";
associatedMasterId = "DE23B2BA-64D1-45BF-8121-66FD42616F3E";
name = Layer3;
width = 600;
},
{
background = {
shapes = (
{
closed = 1;
nodes = (
(167,590,o),
(196,610,o),
(196,658,cs),
(196,707,o),
(167,725,o),
(133,725,cs),
(99,725,o),
(72,707,o),
(72,658,cs),
(72,610,o),
(99,590,o),
(133,590,cs)
);
}
);
};
layerId = "DE23B2BA-64D1-45BF-8121-66FD42616F3E";
name = Regular;
shapes = (
{
closed = 1;
nodes = (
(167,590,o),
(196,610,o),
(196,658,cs),
(196,707,o),
(167,725,o),
(133,725,cs),
(99,725,o),
(72,707,o),
(72,658,cs),
(72,610,o),
(99,590,o),
(133,590,cs)
);
}
);
width = 268;
}
);
unicode = 7288;
},
{
glyphname = uni1C79;
layers = (
{
layerId = "A2F8418F-339B-4F91-B830-CE586139F48E";
name = "#instance";
shapes = (
{
closed = 1;
nodes = (
(167,-14,o),
(196,6,o),
(196,54,cs),
(196,103,o),
(167,121,o),
(133,121,cs),
(99,121,o),
(72,103,o),
(72,54,cs),
(72,6,o),
(99,-14,o),
(133,-14,cs)
);
}
);
width = 268;
},
{
layerId = "B142495F-E341-49EC-94FB-15D38175E9C1";
shapes = (
{
closed = 1;
nodes = (
(189,-13,o),
(228,11,o),
(228,70,cs),
(228,131,o),
(189,153,o),
(143,153,cs),
(95,153,o),
(57,131,o),
(57,70,cs),
(57,11,o),
(95,-13,o),
(143,-13,cs)
);
}
);
width = 285;
},
{
layerId = "B4679C4A-7B1E-46C8-BD55-32AE88BDC1C0";
name = Semibold;
shapes = (
{
closed = 1;
nodes = (
(180,-14,o),
(216,9,o),
(216,64,cs),
(216,120,o),
(180,141,o),
(139,141,cs),
(97,141,o),
(63,120,o),
(63,64,cs),
(63,9,o),
(97,-14,o),
(139,-14,cs)
);
}
);
width = 279;
},
{
layerId = "F6727EBE-EF21-4659-9B68-88D73F70C0AC";
name = Medium;
shapes = (
{
closed = 1;
nodes = (
(173,-14,o),
(205,7,o),
(205,59,cs),
(205,111,o),
(173,130,o),
(136,130,cs),
(98,130,o),
(68,111,o),
(68,59,cs),
(68,7,o),
(98,-14,o),
(136,-14,cs)
);
}
);
width = 273;
},
{
layerId = "817F4B86-DD93-4C28-949A-BA0EB0B6E07F";
associatedMasterId = "DE23B2BA-64D1-45BF-8121-66FD42616F3E";
name = Layer3;
width = 600;
},
{
background = {
shapes = (
{
closed = 1;
nodes = (
(167,-14,o),
(196,6,o),
(196,54,cs),
(196,103,o),
(167,121,o),
(133,121,cs),
(99,121,o),
(72,103,o),
(72,54,cs),
(72,6,o),
(99,-14,o),
(133,-14,cs)
);
}
);
};
layerId = "DE23B2BA-64D1-45BF-8121-66FD42616F3E";
name = Regular;
shapes = (
{
closed = 1;
nodes = (
(167,-14,o),
(196,6,o),
(196,54,cs),
(196,103,o),
(167,121,o),
(133,121,cs),
(99,121,o),
(72,103,o),
(72,54,cs),
(72,6,o),
(99,-14,o),
(133,-14,cs)
);
}
);
width = 268;
}
);
unicode = 7289;
},
{
glyphname = uni1C7A;
layers = (
{
layerId = "A2F8418F-339B-4F91-B830-CE586139F48E";
name = "#instance";
shapes = (
{
closed = 1;
nodes = (
(167,414,o),
(196,434,o),
(196,482,cs),
(196,532,o),
(167,550,o),
(133,550,cs),
(99,550,o),
(72,532,o),
(72,482,cs),
(72,434,o),
(99,414,o),
(133,414,cs)
);
},
{
closed = 1;
nodes = (
(167,-14,o),
(196,6,o),
(196,54,cs),
(196,103,o),
(167,121,o),
(133,121,cs),
(99,121,o),
(72,103,o),
(72,54,cs),
(72,6,o),
(99,-14,o),
(133,-14,cs)
);
}
);
width = 268;
},
{
layerId = "B142495F-E341-49EC-94FB-15D38175E9C1";
shapes = (
{
closed = 1;
nodes = (
(189,385,o),
(228,409,o),
(228,468,cs),
(228,529,o),
(189,551,o),
(143,551,cs),
(95,551,o),
(57,529,o),
(57,468,cs),
(57,409,o),
(95,385,o),
(143,385,cs)
);
},
{
closed = 1;
nodes = (
(189,-13,o),
(228,11,o),
(228,70,cs),
(228,131,o),
(189,153,o),
(143,153,cs),
(95,153,o),
(57,131,o),
(57,70,c),
(57,11,o),
(95,-13,o),
(143,-13,cs)
);
}
);
width = 285;
},
{
layerId = "B4679C4A-7B1E-46C8-BD55-32AE88BDC1C0";
name = Semibold;
shapes = (
{
closed = 1;
nodes = (
(180,396,o),
(216,419,o),
(216,473,cs),
(216,530,o),
(180,550,o),
(139,550,cs),
(97,550,o),
(63,530,o),
(63,473,cs),
(63,419,o),
(97,396,o),
(139,396,cs)
);
},
{
closed = 1;
nodes = (
(180,-14,o),
(216,9,o),
(216,64,cs),
(216,120,o),
(180,141,o),
(139,141,cs),
(97,141,o),
(63,120,o),
(63,64,cs),
(63,9,o),
(97,-14,o),
(139,-14,cs)
);
}
);
width = 279;
},
{
layerId = "F6727EBE-EF21-4659-9B68-88D73F70C0AC";
name = Medium;
shapes = (
{
closed = 1;
nodes = (
(173,405,o),
(205,427,o),
(205,478,cs),
(205,531,o),
(173,550,o),
(136,550,cs),
(98,550,o),
(68,531,o),
(68,478,cs),
(68,427,o),
(98,405,o),
(136,405,cs)
);
},
{
closed = 1;
nodes = (
(173,-14,o),
(205,7,o),
(205,59,cs),
(205,111,o),
(173,130,o),
(136,130,cs),
(98,130,o),
(68,111,o),
(68,59,cs),
(68,7,o),
(98,-14,o),
(136,-14,cs)
);
}
);
width = 273;
},
{
layerId = "817F4B86-DD93-4C28-949A-BA0EB0B6E07F";
associatedMasterId = "DE23B2BA-64D1-45BF-8121-66FD42616F3E";
name = Layer3;
width = 600;
},
{
background = {
shapes = (
{
closed = 1;
nodes = (
(167,414,o),
(196,434,o),
(196,482,cs),
(196,532,o),
(167,550,o),
(133,550,cs),
(99,550,o),
(72,532,o),
(72,482,cs),
(72,434,o),
(99,414,o),
(133,414,cs)
);
},
{
closed = 1;
nodes = (
(167,-14,o),
(196,6,o),
(196,54,cs),
(196,103,o),
(167,121,o),
(133,121,cs),
(99,121,o),
(72,103,o),
(72,54,cs),
(72,6,o),
(99,-14,o),
(133,-14,cs)
);
}
);
};
layerId = "DE23B2BA-64D1-45BF-8121-66FD42616F3E";
name = Regular;
shapes = (
{
closed = 1;
nodes = (
(167,414,o),
(196,434,o),
(196,482,cs),
(196,532,o),
(167,550,o),
(133,550,cs),
(99,550,o),
(72,532,o),
(72,482,cs),
(72,434,o),
(99,414,o),
(133,414,cs)
);
},
{
closed = 1;
nodes = (
(167,-14,o),
(196,6,o),
(196,54,cs),
(196,103,o),
(167,121,o),
(133,121,cs),
(99,121,o),
(72,103,o),
(72,54,cs),
(72,6,o),
(99,-14,o),
(133,-14,cs)
);
}
);
width = 268;
}
);
unicode = 7290;
},
{
glyphname = uni1C7B;
layers = (
{
layerId = "A2F8418F-339B-4F91-B830-CE586139F48E";
name = "#instance";
shapes = (
{
closed = 1;
nodes = (
(79,382,l),
(83,390,o),
(109,443,o),
(154,443,cs),
(191,443,o),
(296,397,o),
(344,397,cs),
(418,397,o),
(457,485,o),
(460,495,c),
(421,522,l),
(417,514,o),
(393,463,o),
(346,463,cs),
(315,463,o),
(211,509,o),
(164,509,cs),
(83,509,o),
(48,422,o),
(40,405,c)
);
}
);
width = 500;
},
{
layerId = "B142495F-E341-49EC-94FB-15D38175E9C1";
shapes = (
{
closed = 1;
nodes = (
(149,364,l),
(164,393,o),
(179,409,o),
(206,409,cs),
(253,409,o),
(334,358,o),
(387,358,cs),
(447,358,o),
(498,394,o),
(515,472,c),
(455,502,l),
(440,473,o),
(425,457,o),
(398,457,cs),
(351,457,o),
(270,508,o),
(217,508,cs),
(157,508,o),
(106,472,o),
(89,394,c)
);
}
);
width = 600;
},
{
layerId = "B4679C4A-7B1E-46C8-BD55-32AE88BDC1C0";
name = Semibold;
shapes = (
{
closed = 1;
nodes = (
(123,371,l),
(134,392,o),
(153,422,o),
(186,422,cs),
(229,422,o),
(320,372,o),
(371,372,cs),
(436,372,o),
(482,428,o),
(494,481,c),
(442,509,l),
(431,489,o),
(413,459,o),
(378,459,cs),
(338,459,o),
(248,509,o),
(197,509,cs),
(129,509,o),
(84,453,o),
(70,398,c)
);
}
);
width = 562;
},
{
layerId = "F6727EBE-EF21-4659-9B68-88D73F70C0AC";
name = Medium;
shapes = (
{
closed = 1;
nodes = (
(100,377,l),
(107,391,o),
(130,433,o),
(169,433,cs),
(209,433,o),
(307,385,o),
(357,385,cs),
(427,385,o),
(469,458,o),
(476,488,c),
(431,516,l),
(424,502,o),
(402,461,o),
(361,461,cs),
(326,461,o),
(228,509,o),
(180,509,cs),
(105,509,o),
(65,437,o),
(54,402,c)
);
}
);
width = 530;
},
{
layerId = "817F4B86-DD93-4C28-949A-BA0EB0B6E07F";
associatedMasterId = "DE23B2BA-64D1-45BF-8121-66FD42616F3E";
name = Layer3;
width = 600;
},
{
background = {
shapes = (
{
closed = 1;
nodes = (
(79,382,l),
(83,390,o),
(109,443,o),
(154,443,cs),
(191,443,o),
(296,397,o),
(344,397,cs),
(418,397,o),
(457,485,o),
(460,495,c),
(421,522,l),
(417,514,o),
(393,463,o),
(346,463,cs),
(315,463,o),
(211,509,o),
(164,509,cs),
(83,509,o),
(48,422,o),
(40,405,c)
);
}
);
};
layerId = "DE23B2BA-64D1-45BF-8121-66FD42616F3E";
name = Regular;
shapes = (
{
closed = 1;
nodes = (
(79,382,l),
(83,390,o),
(109,443,o),
(154,443,cs),
(191,443,o),
(296,397,o),
(344,397,cs),
(418,397,o),
(457,485,o),
(460,495,c),
(421,522,l),
(417,514,o),
(393,463,o),
(346,463,cs),
(315,463,o),
(211,509,o),
(164,509,cs),
(83,509,o),
(48,422,o),
(40,405,c)
);
}
);
width = 500;
}
);
unicode = 7291;
},
{
glyphname = uni1C7C;
layers = (
{
layerId = "A2F8418F-339B-4F91-B830-CE586139F48E";
name = "#instance";
shapes = (
{
closed = 1;
nodes = (
(286,419,l),
(286,487,l),
(40,487,l),
(40,419,l)
);
}
);
width = 326;
},
{
layerId = "B142495F-E341-49EC-94FB-15D38175E9C1";
shapes = (
{
closed = 1;
nodes = (
(294,375,l),
(294,487,l),
(32,487,l),
(32,375,l)
);
}
);
width = 326;
},
{
layerId = "B4679C4A-7B1E-46C8-BD55-32AE88BDC1C0";
name = Semibold;
shapes = (
{
closed = 1;
nodes = (
(291,392,l),
(291,487,l),
(35,487,l),
(35,392,l)
);
}
);
width = 326;
},
{
layerId = "F6727EBE-EF21-4659-9B68-88D73F70C0AC";
name = Medium;
shapes = (
{
closed = 1;
nodes = (
(288,406,l),
(288,487,l),
(38,487,l),
(38,406,l)
);
}
);
width = 326;
},
{
layerId = "817F4B86-DD93-4C28-949A-BA0EB0B6E07F";
associatedMasterId = "DE23B2BA-64D1-45BF-8121-66FD42616F3E";
name = Layer3;
width = 600;
},
{
background = {
shapes = (
{
closed = 1;
nodes = (
(286,419,l),
(286,487,l),
(40,487,l),
(40,419,l)
);
}
);
};
layerId = "DE23B2BA-64D1-45BF-8121-66FD42616F3E";
name = Regular;
shapes = (
{
closed = 1;
nodes = (
(286,419,l),
(286,487,l),
(40,487,l),
(40,419,l)
);
}
);
width = 326;
}
);
unicode = 7292;
},
{
glyphname = uni1C7D;
layers = (
{
layerId = "A2F8418F-339B-4F91-B830-CE586139F48E";
name = "#instance";
shapes = (
{
closed = 1;
nodes = (
(395,288,l),
(305,316,o),
(184,430,o),
(184,547,cs),
(184,621,o),
(217,650,o),
(254,650,cs),
(344,650,o),
(396,476,o),
(396,397,cs),
(396,177,o),
(241,97,o),
(158,72,c),
(194,41,l),
(116,278,l),
(41,253,l),
(132,-10,l),
(211,-4,o),
(484,84,o),
(484,393,cs),
(484,601,o),
(371,725,o),
(255,725,cs),
(184,725,o),
(96,685,o),
(96,551,cs),
(96,390,o),
(259,264,o),
(365,224,c)
);
}
);
width = 533;
},
{
layerId = "B142495F-E341-49EC-94FB-15D38175E9C1";
shapes = (
{
closed = 1;
nodes = (
(419,356,l),
(311,407,o),
(257,470,o),
(257,540,cs),
(257,576,o),
(277,602,o),
(310,602,cs),
(353,602,o),
(403,543,o),
(403,431,cs),
(403,264,o),
(306,169,o),
(197,145,c),
(237,121,l),
(158,327,l),
(32,281,l),
(147,-17,l),
(359,8,o),
(552,166,o),
(552,431,cs),
(552,584,o),
(464,728,o),
(309,728,cs),
(185,728,o),
(108,645,o),
(108,540,cs),
(108,432,o),
(198,324,o),
(359,243,c)
);
}
);
width = 588;
},
{
layerId = "B4679C4A-7B1E-46C8-BD55-32AE88BDC1C0";
name = Semibold;
shapes = (
{
closed = 1;
nodes = (
(410,330,l),
(309,373,o),
(230,455,o),
(230,543,cs),
(230,593,o),
(255,620,o),
(289,620,cs),
(350,620,o),
(400,518,o),
(400,418,cs),
(400,231,o),
(281,142,o),
(183,118,c),
(221,91,l),
(142,308,l),
(35,270,l),
(141,-14,l),
(303,4,o),
(526,135,o),
(526,417,cs),
(526,590,o),
(429,727,o),
(289,727,cs),
(184,727,o),
(104,660,o),
(104,544,cs),
(104,416,o),
(221,302,o),
(361,236,c)
);
}
);
width = 567;
},
{
layerId = "F6727EBE-EF21-4659-9B68-88D73F70C0AC";
name = Medium;
shapes = (
{
closed = 1;
nodes = (
(402,308,l),
(307,343,o),
(206,442,o),
(206,545,cs),
(206,608,o),
(235,636,o),
(271,636,cs),
(347,636,o),
(398,496,o),
(398,407,cs),
(398,203,o),
(260,118,o),
(170,94,c),
(207,65,l),
(128,292,l),
(38,261,l),
(136,-12,l),
(255,0,o),
(504,108,o),
(504,404,cs),
(504,596,o),
(398,726,o),
(271,726,cs),
(184,726,o),
(100,673,o),
(100,548,cs),
(100,402,o),
(241,282,o),
(363,230,c)
);
}
);
width = 549;
},
{
layerId = "67C30A08-F4EC-4C2E-BB53-09DCAD2248F3";
associatedMasterId = "DE23B2BA-64D1-45BF-8121-66FD42616F3E";
name = "Oct 8 19, 16:19";
shapes = (
{
closed = 1;
nodes = (
(131,-10,l),
(210,-4,o),
(483,84,o),
(483,393,cs),
(483,601,o),
(370,725,o),
(254,725,cs),
(183,725,o),
(95,685,o),
(95,551,cs),
(95,370,o),
(300,243,o),
(360,227,c),
(336,175,o),
(233,85,o),
(157,73,c),
(193,41,l),
(115,278,l),
(40,253,l)
);
},
{
closed = 1;
nodes = (
(313,315,o),
(183,425,o),
(183,547,cs),
(183,621,o),
(216,650,o),
(253,650,cs),
(343,650,o),
(395,476,o),
(395,397,cs),
(395,344,o),
(389,309,o),
(384,291,c)
);
}
);
width = 532;
},
{
layerId = "E4FE3E4B-A1D2-4027-8FE1-69C95666C91A";
associatedMasterId = "DE23B2BA-64D1-45BF-8121-66FD42616F3E";
name = Layer4;
width = 600;
},
{
background = {
shapes = (
{
closed = 1;
nodes = (
(395,288,l),
(305,316,o),
(184,430,o),
(184,547,cs),
(184,621,o),
(217,650,o),
(254,650,cs),
(344,650,o),
(396,476,o),
(396,397,cs),
(396,177,o),
(241,97,o),
(158,72,c),
(194,41,l),
(116,278,l),
(41,253,l),
(132,-10,l),
(211,-4,o),
(484,84,o),
(484,393,cs),
(484,601,o),
(371,725,o),
(255,725,cs),
(184,725,o),
(96,685,o),
(96,551,cs),
(96,390,o),
(259,264,o),
(365,224,c)
);
}
);
};
layerId = "DE23B2BA-64D1-45BF-8121-66FD42616F3E";
name = Regular;
shapes = (
{
closed = 1;
nodes = (
(395,288,l),
(305,316,o),
(184,430,o),
(184,547,cs),
(184,621,o),
(217,650,o),
(254,650,cs),
(344,650,o),
(396,476,o),
(396,397,cs),
(396,177,o),
(241,97,o),
(158,72,c),
(194,41,l),
(116,278,l),
(41,253,l),
(132,-10,l),
(211,-4,o),
(484,84,o),
(484,393,cs),
(484,601,o),
(371,725,o),
(255,725,cs),
(184,725,o),
(96,685,o),
(96,551,cs),
(96,390,o),
(259,264,o),
(365,224,c)
);
}
);
width = 533;
}
);
unicode = 7293;
},
{
glyphname = uni1C7E;
layers = (
{
layerId = "A2F8418F-339B-4F91-B830-CE586139F48E";
name = "#instance";
shapes = (
{
closed = 1;
nodes = (
(168,83,l),
(168,510,l),
(100,510,l),
(100,83,l)
);
}
);
width = 268;
},
{
layerId = "B142495F-E341-49EC-94FB-15D38175E9C1";
shapes = (
{
closed = 1;
nodes = (
(219,83,l),
(219,510,l),
(100,510,l),
(100,83,l)
);
}
);
width = 319;
},
{
layerId = "B4679C4A-7B1E-46C8-BD55-32AE88BDC1C0";
name = Semibold;
shapes = (
{
closed = 1;
nodes = (
(200,83,l),
(200,510,l),
(100,510,l),
(100,83,l)
);
}
);
width = 300;
},
{
layerId = "F6727EBE-EF21-4659-9B68-88D73F70C0AC";
name = Medium;
shapes = (
{
closed = 1;
nodes = (
(183,83,l),
(183,510,l),
(100,510,l),
(100,83,l)
);
}
);
width = 283;
},
{
layerId = "817F4B86-DD93-4C28-949A-BA0EB0B6E07F";
associatedMasterId = "DE23B2BA-64D1-45BF-8121-66FD42616F3E";
name = Layer3;
width = 600;
},
{
background = {
shapes = (
{
closed = 1;
nodes = (
(168,83,l),
(168,510,l),
(100,510,l),
(100,83,l)
);
}
);
};
layerId = "DE23B2BA-64D1-45BF-8121-66FD42616F3E";
name = Regular;
shapes = (
{
closed = 1;
nodes = (
(168,83,l),
(168,510,l),
(100,510,l),
(100,83,l)
);
}
);
width = 268;
}
);
unicode = 7294;
},
{
glyphname = uni1C7F;
layers = (
{
layerId = "A2F8418F-339B-4F91-B830-CE586139F48E";
name = "#instance";
shapes = (
{
closed = 1;
nodes = (
(168,83,l),
(168,510,l),
(100,510,l),
(100,83,l)
);
},
{
closed = 1;
nodes = (
(401,83,l),
(401,510,l),
(333,510,l),
(333,83,l)
);
}
);
width = 501;
},
{
layerId = "B142495F-E341-49EC-94FB-15D38175E9C1";
shapes = (
{
closed = 1;
nodes = (
(219,83,l),
(219,510,l),
(100,510,l),
(100,83,l)
);
},
{
closed = 1;
nodes = (
(449,83,l),
(449,510,l),
(330,510,l),
(330,83,l)
);
}
);
width = 549;
},
{
layerId = "B4679C4A-7B1E-46C8-BD55-32AE88BDC1C0";
name = Semibold;
shapes = (
{
closed = 1;
nodes = (
(200,83,l),
(200,510,l),
(100,510,l),
(100,83,l)
);
},
{
closed = 1;
nodes = (
(431,83,l),
(431,510,l),
(331,510,l),
(331,83,l)
);
}
);
width = 531;
},
{
layerId = "F6727EBE-EF21-4659-9B68-88D73F70C0AC";
name = Medium;
shapes = (
{
closed = 1;
nodes = (
(183,83,l),
(183,510,l),
(100,510,l),
(100,83,l)
);
},
{
closed = 1;
nodes = (
(415,83,l),
(415,510,l),
(332,510,l),
(332,83,l)
);
}
);
width = 515;
},
{
layerId = "817F4B86-DD93-4C28-949A-BA0EB0B6E07F";
associatedMasterId = "DE23B2BA-64D1-45BF-8121-66FD42616F3E";
name = Layer3;
width = 600;
},
{
background = {
shapes = (
{
closed = 1;
nodes = (
(168,83,l),
(168,510,l),
(100,510,l),
(100,83,l)
);
},
{
closed = 1;
nodes = (
(401,83,l),
(401,510,l),
(333,510,l),
(333,83,l)
);
}
);
};
layerId = "DE23B2BA-64D1-45BF-8121-66FD42616F3E";
name = Regular;
shapes = (
{
closed = 1;
nodes = (
(168,83,l),
(168,510,l),
(100,510,l),
(100,83,l)
);
},
{
closed = 1;
nodes = (
(401,83,l),
(401,510,l),
(333,510,l),
(333,83,l)
);
}
);
width = 501;
}
);
unicode = 7295;
},
